M48
; DRILL file {KiCad 7.0.9} date Tue 02 Jan 2024 07:57:54 AM MST
; FORMAT={-:-/ absolute / inch / decimal}
; #@! TF.CreationDate,2024-01-02T07:57:54-07:00
; #@! TF.GenerationSoftware,Kicad,Pcbnew,7.0.9
; #@! TF.FileFunction,Plated,1,2,PTH
FMAT,2
INCH
; #@! TA.AperFunction,Plated,PTH,ViaDrill
T1C0.0120
; #@! TA.AperFunction,Plated,PTH,ViaDrill
T2C0.0157
; #@! TA.AperFunction,Plated,PTH,ComponentDrill
T3C0.0295
; #@! TA.AperFunction,Plated,PTH,ComponentDrill
T4C0.0394
%
G90
G05
T1
X0.93Y-1.31
X1.4598Y-1.8887
X1.493Y-2.028
X1.5836Y-1.7336
X1.5936Y-2.0086
X1.7176Y-1.8486
X1.925Y-2.09
X2.0052Y-1.6076
X2.14Y-1.81
X2.1993Y-1.4812
X2.204Y-2.216
X2.2128Y-1.4434
X2.2331Y-1.4931
X2.275Y-1.375
X2.275Y-1.4109
X2.3054Y-2.0386
X2.3071Y-1.5078
X2.3141Y-1.325
X2.33Y-1.99
X2.3429Y-1.5087
X2.37Y-1.0203
X2.372Y-1.124
X2.3974Y-1.9649
X2.4477Y-1.5972
X2.45Y-1.22
X2.4732Y-1.5143
X2.481Y-1.261
X2.4818Y-1.6082
X2.55Y-1.48
X2.575Y-1.645
X2.59Y-1.27
X2.59Y-1.7655
X2.6Y-1.6867
X2.6009Y-1.8291
X2.63Y-1.37
X2.63Y-1.76
X2.6358Y-1.7006
X2.65Y-1.0236
X2.6515Y-1.1103
X2.6656Y-1.7404
X2.6674Y-1.8624
X2.675Y-1.465
X2.6867Y-1.8926
X2.75Y-1.205
T2
X1.33Y-2.01
X1.61Y-1.83
X1.865Y-1.845
X1.9511Y-1.6011
T3
X0.9198Y-2.0286
X0.9986Y-2.0286
X2.0563Y-0.825
X2.135Y-0.825
X2.3413Y-0.825
X2.42Y-0.825
X3.085Y-1.205
X3.085Y-1.2838
X3.085Y-1.3625
X3.085Y-1.4413
X3.085Y-1.52
X3.085Y-1.7419
X3.085Y-1.8206
X3.085Y-1.8994
X3.085Y-1.9781
T4
X1.795Y-2.08
X1.795Y-2.18
T0
M30
