%TF.GenerationSoftware,KiCad,Pcbnew,7.0.9*%
%TF.CreationDate,2024-01-02T07:57:38-07:00*%
%TF.ProjectId,ElephantR9,456c6570-6861-46e7-9452-392e6b696361,rev?*%
%TF.SameCoordinates,Original*%
%TF.FileFunction,Copper,L2,Bot*%
%TF.FilePolarity,Positive*%
%FSLAX46Y46*%
G04 Gerber Fmt 4.6, Leading zero omitted, Abs format (unit mm)*
G04 Created by KiCad (PCBNEW 7.0.9) date 2024-01-02 07:57:38*
%MOMM*%
%LPD*%
G01*
G04 APERTURE LIST*
G04 Aperture macros list*
%AMRoundRect*
0 Rectangle with rounded corners*
0 $1 Rounding radius*
0 $2 $3 $4 $5 $6 $7 $8 $9 X,Y pos of 4 corners*
0 Add a 4 corners polygon primitive as box body*
4,1,4,$2,$3,$4,$5,$6,$7,$8,$9,$2,$3,0*
0 Add four circle primitives for the rounded corners*
1,1,$1+$1,$2,$3*
1,1,$1+$1,$4,$5*
1,1,$1+$1,$6,$7*
1,1,$1+$1,$8,$9*
0 Add four rect primitives between the rounded corners*
20,1,$1+$1,$2,$3,$4,$5,0*
20,1,$1+$1,$4,$5,$6,$7,0*
20,1,$1+$1,$6,$7,$8,$9,0*
20,1,$1+$1,$8,$9,$2,$3,0*%
G04 Aperture macros list end*
%TA.AperFunction,ComponentPad*%
%ADD10R,1.700000X1.700000*%
%TD*%
%TA.AperFunction,ComponentPad*%
%ADD11O,1.700000X1.700000*%
%TD*%
%TA.AperFunction,ComponentPad*%
%ADD12RoundRect,0.250000X0.350000X0.625000X-0.350000X0.625000X-0.350000X-0.625000X0.350000X-0.625000X0*%
%TD*%
%TA.AperFunction,ComponentPad*%
%ADD13O,1.200000X1.750000*%
%TD*%
%TA.AperFunction,ComponentPad*%
%ADD14RoundRect,0.250000X0.625000X-0.350000X0.625000X0.350000X-0.625000X0.350000X-0.625000X-0.350000X0*%
%TD*%
%TA.AperFunction,ComponentPad*%
%ADD15O,1.750000X1.200000*%
%TD*%
%TA.AperFunction,ViaPad*%
%ADD16C,0.711200*%
%TD*%
%TA.AperFunction,ViaPad*%
%ADD17C,0.800000*%
%TD*%
%TA.AperFunction,Conductor*%
%ADD18C,0.203200*%
%TD*%
%TA.AperFunction,Conductor*%
%ADD19C,0.254000*%
%TD*%
%TA.AperFunction,Conductor*%
%ADD20C,0.152400*%
%TD*%
G04 APERTURE END LIST*
D10*
%TO.P,SW1,1,A*%
%TO.N,Net-(SW1-A)*%
X45593000Y-55372000D03*
D11*
%TO.P,SW1,2,B*%
%TO.N,/sw_tilt*%
X45593000Y-52832000D03*
%TD*%
D12*
%TO.P,LS2,1,1*%
%TO.N,Net-(C11-Pad1)*%
X61468000Y-20955000D03*
D13*
%TO.P,LS2,2,2*%
%TO.N,Net-(C7-Pad1)*%
X59468000Y-20955000D03*
%TD*%
D12*
%TO.P,LS1,1,1*%
%TO.N,Net-(C5-Pad1)*%
X54229000Y-20955000D03*
D13*
%TO.P,LS1,2,2*%
%TO.N,Net-(C6-Pad1)*%
X52229000Y-20955000D03*
%TD*%
D12*
%TO.P,BT1,1,+*%
%TO.N,+9V*%
X25363898Y-51525898D03*
D13*
%TO.P,BT1,2,-*%
%TO.N,GND*%
X23363898Y-51525898D03*
%TD*%
D14*
%TO.P,J1,1,Pin_1*%
%TO.N,/uart_tx*%
X78359000Y-50244000D03*
D15*
%TO.P,J1,2,Pin_2*%
%TO.N,/uart_rx*%
X78359000Y-48244000D03*
%TO.P,J1,3,Pin_3*%
%TO.N,/uart_cts*%
X78359000Y-46244000D03*
%TO.P,J1,4,Pin_4*%
%TO.N,/uart_rts*%
X78359000Y-44244000D03*
%TD*%
D14*
%TO.P,J2,1,Pin_1*%
%TO.N,/jtms_swdio*%
X78359000Y-38608000D03*
D15*
%TO.P,J2,2,Pin_2*%
%TO.N,/jtck_swclk*%
X78359000Y-36608000D03*
%TO.P,J2,3,Pin_3*%
%TO.N,/jtdi*%
X78359000Y-34608000D03*
%TO.P,J2,4,Pin_4*%
%TO.N,/jtdo-swo*%
X78359000Y-32608000D03*
%TO.P,J2,5,Pin_5*%
%TO.N,/jtrst*%
X78359000Y-30608000D03*
%TD*%
D16*
%TO.N,GND*%
X43626498Y-46953898D03*
X40476898Y-51017898D03*
X40222898Y-44032898D03*
D17*
X49558900Y-40668900D03*
D16*
X37922500Y-51511500D03*
X37078000Y-47974000D03*
D17*
X47371000Y-46863000D03*
D16*
X58779300Y-33655000D03*
X62819959Y-38463253D03*
X65786000Y-32258000D03*
X56721400Y-37925400D03*
X63016500Y-32028500D03*
X55981600Y-56286400D03*
X67310000Y-25999900D03*
X62230000Y-30988000D03*
X23622000Y-33274000D03*
X60248800Y-28549600D03*
X60198000Y-25914900D03*
X69850000Y-30607000D03*
X64770000Y-37592000D03*
X54356000Y-45974000D03*
X50932505Y-40834163D03*
X65405000Y-41783000D03*
X67348901Y-28201100D03*
%TO.N,/spi1_miso*%
X59182000Y-50546000D03*
X58558085Y-51779515D03*
%TO.N,/pwr_aud*%
X67945000Y-37211000D03*
X68241342Y-48072379D03*
X66802000Y-34798000D03*
X60893319Y-49909064D03*
%TO.N,/sw_tilt*%
X48895000Y-53086000D03*
%TO.N,/I2S_data*%
X66061703Y-46458200D03*
X67751581Y-47304581D03*
%TO.N,/I2C_SDA*%
X57785000Y-34925000D03*
X55862196Y-37623494D03*
%TO.N,/I2C_SCL*%
X56206094Y-36662300D03*
X57785000Y-35835703D03*
D17*
%TO.N,/pwr_buck*%
X33782000Y-51054000D03*
X40894000Y-46482000D03*
D16*
%TO.N,/uart_tx*%
X65786000Y-44842700D03*
%TO.N,/uart_rx*%
X66802000Y-44704000D03*
%TO.N,/uart_cts*%
X67706807Y-44205652D03*
%TO.N,/uart_rts*%
X66949107Y-43194270D03*
%TO.N,/jtms_swdio*%
X66040000Y-42841412D03*
%TO.N,/jtck_swclk*%
X63038423Y-40847476D03*
%TO.N,/jtdi*%
X62171289Y-40569164D03*
%TO.N,/jtdo-swo*%
X59510284Y-38319864D03*
%TO.N,/jtrst*%
X58599833Y-38298500D03*
%TD*%
D18*
%TO.N,/spi1_miso*%
X58558085Y-51779515D02*
X59182000Y-51155600D01*
X59182000Y-51155600D02*
X59182000Y-50546000D01*
D19*
%TO.N,/pwr_aud*%
X67564000Y-35560000D02*
X67564000Y-36830000D01*
X62730004Y-48072379D02*
X68241342Y-48072379D01*
X66802000Y-34798000D02*
X67564000Y-35560000D01*
X67564000Y-36830000D02*
X67945000Y-37211000D01*
X60893319Y-49909064D02*
X62730004Y-48072379D01*
%TO.N,/sw_tilt*%
X48641000Y-52832000D02*
X45593000Y-52832000D01*
X48895000Y-53086000D02*
X48641000Y-52832000D01*
D20*
%TO.N,/I2S_data*%
X66908084Y-47304581D02*
X66061703Y-46458200D01*
X67751581Y-47304581D02*
X66908084Y-47304581D01*
%TO.N,/I2C_SDA*%
X55862196Y-37623494D02*
X55574294Y-37335592D01*
X55574294Y-37335592D02*
X55574294Y-36400599D01*
X55574294Y-36400599D02*
X57049893Y-34925000D01*
X57049893Y-34925000D02*
X57785000Y-34925000D01*
%TO.N,/I2C_SCL*%
X57785000Y-35835703D02*
X57032691Y-35835703D01*
X57032691Y-35835703D02*
X56206094Y-36662300D01*
%TO.N,/pwr_buck*%
X40894000Y-46482000D02*
X37718926Y-46482000D01*
X37718926Y-46482000D02*
X33782000Y-50418926D01*
X33782000Y-50418926D02*
X33782000Y-51054000D01*
D19*
%TO.N,/uart_tx*%
X77530000Y-49415000D02*
X78359000Y-50244000D01*
X65786000Y-44842700D02*
X66329900Y-45386600D01*
X73037000Y-49415000D02*
X77530000Y-49415000D01*
X66329900Y-45386600D02*
X69008600Y-45386600D01*
X69008600Y-45386600D02*
X73037000Y-49415000D01*
%TO.N,/uart_rx*%
X68834000Y-44725215D02*
X70358000Y-44725215D01*
X70358000Y-44725215D02*
X72737785Y-47105000D01*
X66986252Y-44888252D02*
X68670963Y-44888252D01*
X77220000Y-47105000D02*
X78359000Y-48244000D01*
X72737785Y-47105000D02*
X77220000Y-47105000D01*
X66802000Y-44704000D02*
X66986252Y-44888252D01*
X68670963Y-44888252D02*
X68834000Y-44725215D01*
%TO.N,/uart_cts*%
X74058735Y-45351000D02*
X77466000Y-45351000D01*
X77466000Y-45351000D02*
X78359000Y-46244000D01*
X72978950Y-44271215D02*
X74058735Y-45351000D01*
X67772370Y-44271215D02*
X72978950Y-44271215D01*
X67706807Y-44205652D02*
X67772370Y-44271215D01*
%TO.N,/uart_rts*%
X66949107Y-43194270D02*
X67061837Y-43307000D01*
X77422000Y-43307000D02*
X78359000Y-44244000D01*
X70358000Y-43307000D02*
X77422000Y-43307000D01*
X67061837Y-43307000D02*
X70358000Y-43307000D01*
%TO.N,/jtms_swdio*%
X69962000Y-39004000D02*
X77963000Y-39004000D01*
X77963000Y-39004000D02*
X78359000Y-38608000D01*
X66369742Y-42511670D02*
X66454330Y-42511670D01*
X66040000Y-42841412D02*
X66369742Y-42511670D01*
X66454330Y-42511670D02*
X69962000Y-39004000D01*
%TO.N,/jtck_swclk*%
X77963000Y-37004000D02*
X78359000Y-36608000D01*
X71080052Y-37004000D02*
X77963000Y-37004000D01*
X63038423Y-40847476D02*
X64134899Y-39751000D01*
X64134899Y-39751000D02*
X68333052Y-39751000D01*
X68333052Y-39751000D02*
X71080052Y-37004000D01*
%TO.N,/jtdi*%
X68145000Y-39297000D02*
X72438000Y-35004000D01*
X62171289Y-40569164D02*
X63443453Y-39297000D01*
X77963000Y-35004000D02*
X78359000Y-34608000D01*
X72438000Y-35004000D02*
X77963000Y-35004000D01*
X63443453Y-39297000D02*
X68145000Y-39297000D01*
%TO.N,/jtdo-swo*%
X77963000Y-33004000D02*
X78359000Y-32608000D01*
X73422000Y-33004000D02*
X77963000Y-33004000D01*
X67920395Y-38843000D02*
X72390000Y-34373395D01*
X60049849Y-37780299D02*
X63102349Y-37780299D01*
X59510284Y-38319864D02*
X60049849Y-37780299D01*
X64165050Y-38843000D02*
X67920395Y-38843000D01*
X72390000Y-34373395D02*
X72390000Y-34036000D01*
X72390000Y-34036000D02*
X73422000Y-33004000D01*
X63102349Y-37780299D02*
X64165050Y-38843000D01*
%TO.N,/jtrst*%
X59538506Y-37326299D02*
X63290402Y-37326299D01*
X72898000Y-30988000D02*
X72914000Y-31004000D01*
X72914000Y-31004000D02*
X77963000Y-31004000D01*
X77963000Y-31004000D02*
X78359000Y-30608000D01*
X71882000Y-34239343D02*
X71882000Y-32004000D01*
X58599833Y-38298500D02*
X58599833Y-38264972D01*
X71882000Y-32004000D02*
X72898000Y-30988000D01*
X63290402Y-37326299D02*
X64353102Y-38389000D01*
X64353102Y-38389000D02*
X67732343Y-38389000D01*
X67732343Y-38389000D02*
X71882000Y-34239343D01*
X58599833Y-38264972D02*
X59538506Y-37326299D01*
%TD*%
%TA.AperFunction,NonConductor*%
G36*
X77302023Y-43654185D02*
G01*
X77322665Y-43670819D01*
X77360876Y-43709030D01*
X77394361Y-43770353D01*
X77389377Y-43840045D01*
X77378189Y-43862682D01*
X77358209Y-43894479D01*
X77298633Y-44064737D01*
X77298630Y-44064750D01*
X77278435Y-44243996D01*
X77278435Y-44244003D01*
X77298630Y-44423249D01*
X77298631Y-44423254D01*
X77358211Y-44593523D01*
X77454184Y-44746262D01*
X77519741Y-44811819D01*
X77553226Y-44873142D01*
X77548242Y-44942834D01*
X77506370Y-44998767D01*
X77440906Y-45023184D01*
X77432060Y-45023500D01*
X74943800Y-45023500D01*
X74876761Y-45003815D01*
X74831006Y-44951011D01*
X74821062Y-44881853D01*
X74850087Y-44818297D01*
X74875662Y-44795899D01*
X74907696Y-44774830D01*
X75028092Y-44647218D01*
X75115812Y-44495281D01*
X75166130Y-44327210D01*
X75176331Y-44152065D01*
X75145865Y-43979289D01*
X75076377Y-43818196D01*
X75076376Y-43818195D01*
X75073516Y-43811564D01*
X75075347Y-43810774D01*
X75061235Y-43752597D01*
X75084088Y-43686571D01*
X75139010Y-43643381D01*
X75185094Y-43634500D01*
X77234984Y-43634500D01*
X77302023Y-43654185D01*
G37*
%TD.AperFunction*%
%TA.AperFunction,NonConductor*%
G36*
X77336597Y-45698185D02*
G01*
X77382352Y-45750989D01*
X77392296Y-45820147D01*
X77374552Y-45868469D01*
X77360800Y-45890356D01*
X77358209Y-45894481D01*
X77298633Y-46064737D01*
X77298630Y-46064750D01*
X77278435Y-46243996D01*
X77278435Y-46244003D01*
X77298630Y-46423249D01*
X77298631Y-46423254D01*
X77358210Y-46593521D01*
X77359195Y-46595565D01*
X77359434Y-46597017D01*
X77360511Y-46600095D01*
X77359972Y-46600283D01*
X77370549Y-46664506D01*
X77342828Y-46728641D01*
X77284834Y-46767609D01*
X77258288Y-46772898D01*
X77221645Y-46776105D01*
X77208396Y-46777264D01*
X77202996Y-46777500D01*
X75186122Y-46777500D01*
X75119083Y-46757815D01*
X75073328Y-46705011D01*
X75063384Y-46635853D01*
X75078734Y-46591502D01*
X75115812Y-46527281D01*
X75166130Y-46359210D01*
X75176331Y-46184065D01*
X75145865Y-46011289D01*
X75076987Y-45851612D01*
X75068510Y-45782260D01*
X75098873Y-45719333D01*
X75158437Y-45682810D01*
X75190847Y-45678500D01*
X77269558Y-45678500D01*
X77336597Y-45698185D01*
G37*
%TD.AperFunction*%
%TA.AperFunction,NonConductor*%
G36*
X77100023Y-47452185D02*
G01*
X77120665Y-47468819D01*
X77360875Y-47709030D01*
X77394360Y-47770353D01*
X77389376Y-47840045D01*
X77378190Y-47862680D01*
X77358209Y-47894481D01*
X77298633Y-48064737D01*
X77298630Y-48064750D01*
X77278435Y-48243996D01*
X77278435Y-48244003D01*
X77298630Y-48423249D01*
X77298631Y-48423254D01*
X77358211Y-48593523D01*
X77454184Y-48746262D01*
X77583741Y-48875819D01*
X77617226Y-48937142D01*
X77612242Y-49006834D01*
X77570370Y-49062767D01*
X77504906Y-49087184D01*
X77496060Y-49087500D01*
X74943800Y-49087500D01*
X74876761Y-49067815D01*
X74831006Y-49015011D01*
X74821062Y-48945853D01*
X74850087Y-48882297D01*
X74875662Y-48859899D01*
X74907696Y-48838830D01*
X75028092Y-48711218D01*
X75115812Y-48559281D01*
X75166130Y-48391210D01*
X75176331Y-48216065D01*
X75145865Y-48043289D01*
X75076377Y-47882196D01*
X74971610Y-47741470D01*
X74864374Y-47651488D01*
X74825673Y-47593318D01*
X74824565Y-47523457D01*
X74861402Y-47464087D01*
X74924489Y-47434058D01*
X74944081Y-47432500D01*
X77032984Y-47432500D01*
X77100023Y-47452185D01*
G37*
%TD.AperFunction*%
%TA.AperFunction,NonConductor*%
G36*
X81984539Y-27960185D02*
G01*
X82030294Y-28012989D01*
X82041500Y-28064500D01*
X82041500Y-53215500D01*
X82021815Y-53282539D01*
X81969011Y-53328294D01*
X81917500Y-53339500D01*
X74927000Y-53339500D01*
X74859961Y-53319815D01*
X74814206Y-53267011D01*
X74803000Y-53215500D01*
X74803000Y-53038549D01*
X74822685Y-52971510D01*
X74858859Y-52934950D01*
X74907696Y-52902830D01*
X75028092Y-52775218D01*
X75115812Y-52623281D01*
X75166130Y-52455210D01*
X75176331Y-52280065D01*
X75145865Y-52107289D01*
X75076377Y-51946196D01*
X74971610Y-51805470D01*
X74971609Y-51805469D01*
X74847294Y-51701155D01*
X74808592Y-51642983D01*
X74803000Y-51606166D01*
X74803000Y-51006549D01*
X74822685Y-50939510D01*
X74858859Y-50902950D01*
X74907696Y-50870830D01*
X75028092Y-50743218D01*
X75115812Y-50591281D01*
X75166130Y-50423210D01*
X75176331Y-50248065D01*
X75145865Y-50075289D01*
X75076987Y-49915612D01*
X75068510Y-49846260D01*
X75098873Y-49783333D01*
X75158437Y-49746810D01*
X75190847Y-49742500D01*
X77159500Y-49742500D01*
X77226539Y-49762185D01*
X77272294Y-49814989D01*
X77283500Y-49866500D01*
X77283500Y-50648269D01*
X77286353Y-50678699D01*
X77286353Y-50678701D01*
X77331206Y-50806880D01*
X77331207Y-50806882D01*
X77411850Y-50916150D01*
X77521118Y-50996793D01*
X77563845Y-51011744D01*
X77649299Y-51041646D01*
X77679730Y-51044500D01*
X77679734Y-51044500D01*
X79038270Y-51044500D01*
X79068699Y-51041646D01*
X79068701Y-51041646D01*
X79132790Y-51019219D01*
X79196882Y-50996793D01*
X79306150Y-50916150D01*
X79386793Y-50806882D01*
X79409219Y-50742790D01*
X79431646Y-50678701D01*
X79431646Y-50678699D01*
X79434500Y-50648269D01*
X79434500Y-49839730D01*
X79431646Y-49809300D01*
X79431646Y-49809298D01*
X79386793Y-49681119D01*
X79386792Y-49681117D01*
X79378403Y-49669750D01*
X79306150Y-49571850D01*
X79196882Y-49491207D01*
X79196880Y-49491206D01*
X79068700Y-49446353D01*
X79038270Y-49443500D01*
X79038266Y-49443500D01*
X78073016Y-49443500D01*
X78005977Y-49423815D01*
X77985335Y-49407181D01*
X77820359Y-49242205D01*
X77786874Y-49180882D01*
X77791858Y-49111190D01*
X77833730Y-49055257D01*
X77899194Y-49030840D01*
X77921923Y-49031304D01*
X78004993Y-49040663D01*
X78039040Y-49044499D01*
X78039043Y-49044500D01*
X78039046Y-49044500D01*
X78678957Y-49044500D01*
X78678958Y-49044499D01*
X78746104Y-49036934D01*
X78813249Y-49029369D01*
X78813252Y-49029368D01*
X78813255Y-49029368D01*
X78983522Y-48969789D01*
X79136262Y-48873816D01*
X79263816Y-48746262D01*
X79359789Y-48593522D01*
X79419368Y-48423255D01*
X79439565Y-48244000D01*
X79426584Y-48128790D01*
X79419369Y-48064750D01*
X79419368Y-48064745D01*
X79411860Y-48043289D01*
X79359789Y-47894478D01*
X79263816Y-47741738D01*
X79136262Y-47614184D01*
X79089439Y-47584763D01*
X78983523Y-47518211D01*
X78813254Y-47458631D01*
X78813249Y-47458630D01*
X78678960Y-47443500D01*
X78678954Y-47443500D01*
X78073016Y-47443500D01*
X78005977Y-47423815D01*
X77985335Y-47407181D01*
X77820359Y-47242205D01*
X77786874Y-47180882D01*
X77791858Y-47111190D01*
X77833730Y-47055257D01*
X77899194Y-47030840D01*
X77921923Y-47031304D01*
X78004993Y-47040663D01*
X78039040Y-47044499D01*
X78039043Y-47044500D01*
X78039046Y-47044500D01*
X78678957Y-47044500D01*
X78678958Y-47044499D01*
X78746104Y-47036934D01*
X78813249Y-47029369D01*
X78813252Y-47029368D01*
X78813255Y-47029368D01*
X78983522Y-46969789D01*
X79136262Y-46873816D01*
X79263816Y-46746262D01*
X79359789Y-46593522D01*
X79419368Y-46423255D01*
X79439565Y-46244000D01*
X79419368Y-46064745D01*
X79359789Y-45894478D01*
X79263816Y-45741738D01*
X79136262Y-45614184D01*
X79122839Y-45605750D01*
X78983523Y-45518211D01*
X78813254Y-45458631D01*
X78813249Y-45458630D01*
X78678960Y-45443500D01*
X78678954Y-45443500D01*
X78073016Y-45443500D01*
X78005977Y-45423815D01*
X77985335Y-45407181D01*
X77820359Y-45242205D01*
X77786874Y-45180882D01*
X77791858Y-45111190D01*
X77833730Y-45055257D01*
X77899194Y-45030840D01*
X77921923Y-45031304D01*
X78004993Y-45040663D01*
X78039040Y-45044499D01*
X78039043Y-45044500D01*
X78039046Y-45044500D01*
X78678957Y-45044500D01*
X78678958Y-45044499D01*
X78746104Y-45036934D01*
X78813249Y-45029369D01*
X78813252Y-45029368D01*
X78813255Y-45029368D01*
X78983522Y-44969789D01*
X79136262Y-44873816D01*
X79263816Y-44746262D01*
X79359789Y-44593522D01*
X79419368Y-44423255D01*
X79439565Y-44244000D01*
X79419373Y-44064790D01*
X79419369Y-44064750D01*
X79419368Y-44064745D01*
X79359788Y-43894476D01*
X79270639Y-43752597D01*
X79263816Y-43741738D01*
X79136262Y-43614184D01*
X79052814Y-43561750D01*
X78983523Y-43518211D01*
X78813254Y-43458631D01*
X78813249Y-43458630D01*
X78678960Y-43443500D01*
X78678954Y-43443500D01*
X78073016Y-43443500D01*
X78005977Y-43423815D01*
X77985335Y-43407181D01*
X77827407Y-43249253D01*
X77665596Y-43087442D01*
X77661951Y-43083463D01*
X77635761Y-43052251D01*
X77635757Y-43052247D01*
X77600478Y-43031879D01*
X77595914Y-43028972D01*
X77562544Y-43005606D01*
X77557959Y-43003468D01*
X77540491Y-42996232D01*
X77535740Y-42994503D01*
X77495618Y-42987428D01*
X77490335Y-42986257D01*
X77450981Y-42975712D01*
X77414891Y-42978871D01*
X77410398Y-42979264D01*
X77404995Y-42979500D01*
X74962046Y-42979500D01*
X74895007Y-42959815D01*
X74849252Y-42907011D01*
X74839308Y-42837853D01*
X74868333Y-42774297D01*
X74893906Y-42751900D01*
X74896176Y-42750406D01*
X74907696Y-42742830D01*
X75028092Y-42615218D01*
X75115812Y-42463281D01*
X75166130Y-42295210D01*
X75176331Y-42120065D01*
X75145865Y-41947289D01*
X75076377Y-41786196D01*
X74971610Y-41645470D01*
X74971609Y-41645469D01*
X74847294Y-41541155D01*
X74808592Y-41482983D01*
X74803000Y-41446166D01*
X74803000Y-40846549D01*
X74822685Y-40779510D01*
X74858859Y-40742950D01*
X74907696Y-40710830D01*
X75028092Y-40583218D01*
X75115812Y-40431281D01*
X75166130Y-40263210D01*
X75176331Y-40088065D01*
X75145865Y-39915289D01*
X75076377Y-39754196D01*
X74971610Y-39613470D01*
X74971609Y-39613469D01*
X74896553Y-39550489D01*
X74857851Y-39492317D01*
X74856743Y-39422457D01*
X74893580Y-39363087D01*
X74956668Y-39333057D01*
X74976259Y-39331500D01*
X77440624Y-39331500D01*
X77507663Y-39351185D01*
X77514248Y-39355723D01*
X77521118Y-39360793D01*
X77649301Y-39405646D01*
X77659445Y-39406597D01*
X77679730Y-39408500D01*
X77679734Y-39408500D01*
X79038270Y-39408500D01*
X79068699Y-39405646D01*
X79068701Y-39405646D01*
X79132790Y-39383219D01*
X79196882Y-39360793D01*
X79306150Y-39280150D01*
X79386793Y-39170882D01*
X79424981Y-39061747D01*
X79431646Y-39042701D01*
X79431646Y-39042699D01*
X79434500Y-39012269D01*
X79434500Y-38203730D01*
X79431646Y-38173300D01*
X79431646Y-38173298D01*
X79398006Y-38077163D01*
X79386793Y-38045118D01*
X79306150Y-37935850D01*
X79196882Y-37855207D01*
X79196880Y-37855206D01*
X79068700Y-37810353D01*
X79038270Y-37807500D01*
X79038266Y-37807500D01*
X77679734Y-37807500D01*
X77679730Y-37807500D01*
X77649300Y-37810353D01*
X77649298Y-37810353D01*
X77521119Y-37855206D01*
X77521117Y-37855207D01*
X77411850Y-37935850D01*
X77331207Y-38045117D01*
X77331206Y-38045119D01*
X77286353Y-38173298D01*
X77286353Y-38173300D01*
X77283500Y-38203730D01*
X77283500Y-38552500D01*
X77263815Y-38619539D01*
X77211011Y-38665294D01*
X77159500Y-38676500D01*
X75170534Y-38676500D01*
X75103495Y-38656815D01*
X75057740Y-38604011D01*
X75047796Y-38534853D01*
X75063147Y-38490501D01*
X75081534Y-38458651D01*
X75115812Y-38399281D01*
X75166130Y-38231210D01*
X75176331Y-38056065D01*
X75145865Y-37883289D01*
X75076377Y-37722196D01*
X74971610Y-37581470D01*
X74934688Y-37550488D01*
X74895986Y-37492318D01*
X74894878Y-37422457D01*
X74931714Y-37363087D01*
X74994802Y-37333058D01*
X75014394Y-37331500D01*
X77706867Y-37331500D01*
X77747822Y-37338459D01*
X77904737Y-37393366D01*
X77904743Y-37393367D01*
X77904745Y-37393368D01*
X77904746Y-37393368D01*
X77904750Y-37393369D01*
X77995246Y-37403565D01*
X78039040Y-37408499D01*
X78039043Y-37408500D01*
X78039046Y-37408500D01*
X78678957Y-37408500D01*
X78678958Y-37408499D01*
X78746104Y-37400934D01*
X78813249Y-37393369D01*
X78813252Y-37393368D01*
X78813255Y-37393368D01*
X78983522Y-37333789D01*
X79136262Y-37237816D01*
X79263816Y-37110262D01*
X79359789Y-36957522D01*
X79419368Y-36787255D01*
X79435190Y-36646830D01*
X79439565Y-36608003D01*
X79439565Y-36607996D01*
X79419369Y-36428750D01*
X79419368Y-36428745D01*
X79359788Y-36258476D01*
X79320582Y-36196080D01*
X79263816Y-36105738D01*
X79136262Y-35978184D01*
X79070384Y-35936790D01*
X78983523Y-35882211D01*
X78813254Y-35822631D01*
X78813249Y-35822630D01*
X78678960Y-35807500D01*
X78678954Y-35807500D01*
X78039046Y-35807500D01*
X78039039Y-35807500D01*
X77904750Y-35822630D01*
X77904745Y-35822631D01*
X77734476Y-35882211D01*
X77581737Y-35978184D01*
X77454184Y-36105737D01*
X77358211Y-36258476D01*
X77298631Y-36428745D01*
X77298630Y-36428750D01*
X77283124Y-36566383D01*
X77256058Y-36630797D01*
X77198463Y-36670352D01*
X77159904Y-36676500D01*
X75152059Y-36676500D01*
X75085020Y-36656815D01*
X75039265Y-36604011D01*
X75029321Y-36534853D01*
X75044672Y-36490501D01*
X75080326Y-36428745D01*
X75115812Y-36367281D01*
X75166130Y-36199210D01*
X75176331Y-36024065D01*
X75145865Y-35851289D01*
X75076377Y-35690196D01*
X74971610Y-35549470D01*
X74971608Y-35549468D01*
X74966654Y-35544217D01*
X74967881Y-35543059D01*
X74934123Y-35492322D01*
X74933013Y-35422461D01*
X74969848Y-35363090D01*
X75032934Y-35333058D01*
X75052530Y-35331500D01*
X77706867Y-35331500D01*
X77747822Y-35338459D01*
X77904737Y-35393366D01*
X77904743Y-35393367D01*
X77904745Y-35393368D01*
X77904746Y-35393368D01*
X77904750Y-35393369D01*
X77995246Y-35403565D01*
X78039040Y-35408499D01*
X78039043Y-35408500D01*
X78039046Y-35408500D01*
X78678957Y-35408500D01*
X78678958Y-35408499D01*
X78746104Y-35400934D01*
X78813249Y-35393369D01*
X78813252Y-35393368D01*
X78813255Y-35393368D01*
X78983522Y-35333789D01*
X79136262Y-35237816D01*
X79263816Y-35110262D01*
X79359789Y-34957522D01*
X79419368Y-34787255D01*
X79432540Y-34670352D01*
X79439565Y-34608003D01*
X79439565Y-34607996D01*
X79419369Y-34428750D01*
X79419368Y-34428745D01*
X79386664Y-34335282D01*
X79359789Y-34258478D01*
X79356165Y-34252711D01*
X79263815Y-34105737D01*
X79136262Y-33978184D01*
X78983523Y-33882211D01*
X78813254Y-33822631D01*
X78813249Y-33822630D01*
X78678960Y-33807500D01*
X78678954Y-33807500D01*
X78039046Y-33807500D01*
X78039039Y-33807500D01*
X77904750Y-33822630D01*
X77904745Y-33822631D01*
X77734476Y-33882211D01*
X77581737Y-33978184D01*
X77454184Y-34105737D01*
X77358211Y-34258476D01*
X77298631Y-34428745D01*
X77298630Y-34428750D01*
X77283124Y-34566383D01*
X77256058Y-34630797D01*
X77198463Y-34670352D01*
X77159904Y-34676500D01*
X75133584Y-34676500D01*
X75066545Y-34656815D01*
X75020790Y-34604011D01*
X75010846Y-34534853D01*
X75026197Y-34490501D01*
X75070477Y-34413804D01*
X75115812Y-34335281D01*
X75166130Y-34167210D01*
X75176331Y-33992065D01*
X75145865Y-33819289D01*
X75076377Y-33658196D01*
X74980602Y-33529548D01*
X74956358Y-33464019D01*
X74971390Y-33395786D01*
X75020926Y-33346511D01*
X75080065Y-33331500D01*
X77706867Y-33331500D01*
X77747822Y-33338459D01*
X77904737Y-33393366D01*
X77904743Y-33393367D01*
X77904745Y-33393368D01*
X77904746Y-33393368D01*
X77904750Y-33393369D01*
X77995246Y-33403565D01*
X78039040Y-33408499D01*
X78039043Y-33408500D01*
X78039046Y-33408500D01*
X78678957Y-33408500D01*
X78678958Y-33408499D01*
X78746104Y-33400934D01*
X78813249Y-33393369D01*
X78813252Y-33393368D01*
X78813255Y-33393368D01*
X78983522Y-33333789D01*
X79136262Y-33237816D01*
X79263816Y-33110262D01*
X79359789Y-32957522D01*
X79419368Y-32787255D01*
X79436489Y-32635302D01*
X79439565Y-32608003D01*
X79439565Y-32607996D01*
X79419369Y-32428750D01*
X79419368Y-32428745D01*
X79359788Y-32258476D01*
X79320582Y-32196080D01*
X79263816Y-32105738D01*
X79136262Y-31978184D01*
X79107426Y-31960065D01*
X78983523Y-31882211D01*
X78813254Y-31822631D01*
X78813249Y-31822630D01*
X78678960Y-31807500D01*
X78678954Y-31807500D01*
X78039046Y-31807500D01*
X78039039Y-31807500D01*
X77904750Y-31822630D01*
X77904745Y-31822631D01*
X77734476Y-31882211D01*
X77581737Y-31978184D01*
X77454184Y-32105737D01*
X77358211Y-32258476D01*
X77298631Y-32428745D01*
X77298630Y-32428750D01*
X77283124Y-32566383D01*
X77256058Y-32630797D01*
X77198463Y-32670352D01*
X77159904Y-32676500D01*
X75106788Y-32676500D01*
X75039749Y-32656815D01*
X74993994Y-32604011D01*
X74984050Y-32534853D01*
X75013075Y-32471297D01*
X75016594Y-32467405D01*
X75028092Y-32455218D01*
X75115812Y-32303281D01*
X75166130Y-32135210D01*
X75176331Y-31960065D01*
X75145865Y-31787289D01*
X75076377Y-31626196D01*
X75004425Y-31529548D01*
X74980181Y-31464019D01*
X74995213Y-31395786D01*
X75044749Y-31346511D01*
X75103888Y-31331500D01*
X77706867Y-31331500D01*
X77747822Y-31338459D01*
X77904737Y-31393366D01*
X77904743Y-31393367D01*
X77904745Y-31393368D01*
X77904746Y-31393368D01*
X77904750Y-31393369D01*
X77995246Y-31403565D01*
X78039040Y-31408499D01*
X78039043Y-31408500D01*
X78039046Y-31408500D01*
X78678957Y-31408500D01*
X78678958Y-31408499D01*
X78746104Y-31400934D01*
X78813249Y-31393369D01*
X78813252Y-31393368D01*
X78813255Y-31393368D01*
X78983522Y-31333789D01*
X79136262Y-31237816D01*
X79263816Y-31110262D01*
X79359789Y-30957522D01*
X79419368Y-30787255D01*
X79435144Y-30647237D01*
X79439565Y-30608003D01*
X79439565Y-30607996D01*
X79419369Y-30428750D01*
X79419368Y-30428745D01*
X79359788Y-30258476D01*
X79263815Y-30105737D01*
X79136262Y-29978184D01*
X78983523Y-29882211D01*
X78813254Y-29822631D01*
X78813249Y-29822630D01*
X78678960Y-29807500D01*
X78678954Y-29807500D01*
X78039046Y-29807500D01*
X78039039Y-29807500D01*
X77904750Y-29822630D01*
X77904745Y-29822631D01*
X77734476Y-29882211D01*
X77581737Y-29978184D01*
X77454184Y-30105737D01*
X77358211Y-30258476D01*
X77298631Y-30428745D01*
X77298630Y-30428750D01*
X77283124Y-30566383D01*
X77256058Y-30630797D01*
X77198463Y-30670352D01*
X77159904Y-30676500D01*
X75076597Y-30676500D01*
X75009558Y-30656815D01*
X74963803Y-30604011D01*
X74953859Y-30534853D01*
X74982884Y-30471297D01*
X74986388Y-30467420D01*
X75028092Y-30423218D01*
X75115812Y-30271281D01*
X75166130Y-30103210D01*
X75176331Y-29928065D01*
X75145865Y-29755289D01*
X75076377Y-29594196D01*
X74971610Y-29453470D01*
X74971609Y-29453469D01*
X74847294Y-29349155D01*
X74808592Y-29290983D01*
X74803000Y-29254166D01*
X74803000Y-28328307D01*
X74822685Y-28261268D01*
X74827638Y-28254247D01*
X74827992Y-28253636D01*
X74827995Y-28253634D01*
X74895592Y-28137252D01*
X74923873Y-28032250D01*
X74960315Y-27972638D01*
X75023201Y-27942190D01*
X75043606Y-27940500D01*
X81917500Y-27940500D01*
X81984539Y-27960185D01*
G37*
%TD.AperFunction*%
%TA.AperFunction,Conductor*%
%TO.N,GND*%
G36*
X69571422Y-16773494D02*
G01*
X69777136Y-16782477D01*
X69781054Y-16782806D01*
X69999630Y-16810051D01*
X70205212Y-16837116D01*
X70208843Y-16837735D01*
X70424278Y-16882907D01*
X70627068Y-16927864D01*
X70630402Y-16928729D01*
X70824917Y-16986638D01*
X70841379Y-16991540D01*
X71039642Y-17054052D01*
X71042717Y-17055134D01*
X71247822Y-17135166D01*
X71440015Y-17214776D01*
X71442811Y-17216037D01*
X71640622Y-17312741D01*
X71825291Y-17408873D01*
X71827761Y-17410249D01*
X71827782Y-17410262D01*
X72016992Y-17523007D01*
X72192690Y-17634939D01*
X72194833Y-17636384D01*
X72335718Y-17736974D01*
X72374204Y-17764453D01*
X72539544Y-17891322D01*
X72541402Y-17892821D01*
X72709664Y-18035330D01*
X72864214Y-18176950D01*
X73020940Y-18333675D01*
X73162574Y-18488240D01*
X73305076Y-18656493D01*
X73306564Y-18658339D01*
X73433448Y-18823698D01*
X73561496Y-19003039D01*
X73562958Y-19005207D01*
X73674884Y-19180894D01*
X73787644Y-19370129D01*
X73789028Y-19372611D01*
X73885153Y-19557264D01*
X73981862Y-19755088D01*
X73983124Y-19757886D01*
X74062737Y-19950089D01*
X74142755Y-20155161D01*
X74143850Y-20158270D01*
X74206355Y-20356506D01*
X74269158Y-20567456D01*
X74270043Y-20570867D01*
X74314992Y-20773622D01*
X74360156Y-20989017D01*
X74360786Y-20992715D01*
X74387855Y-21198326D01*
X74415089Y-21416815D01*
X74415422Y-21420780D01*
X74424452Y-21627608D01*
X74433398Y-21843898D01*
X74433398Y-27335932D01*
X74414491Y-27394123D01*
X74364991Y-27430087D01*
X74357900Y-27432102D01*
X74235889Y-27461919D01*
X74144496Y-27512178D01*
X74118270Y-27522072D01*
X74066400Y-27533600D01*
X74066400Y-27534214D01*
X74047493Y-27592405D01*
X74036024Y-27605570D01*
X74020954Y-27620062D01*
X74020953Y-27620063D01*
X73951544Y-27735380D01*
X73914517Y-27864774D01*
X73912415Y-27999344D01*
X73912416Y-27999347D01*
X73945386Y-28129835D01*
X73945388Y-28129838D01*
X74011160Y-28247260D01*
X74011161Y-28247261D01*
X74038217Y-28274957D01*
X74065356Y-28329794D01*
X74066400Y-28344137D01*
X74066400Y-29254223D01*
X74047493Y-29312414D01*
X74021802Y-29336936D01*
X73936306Y-29393168D01*
X73936303Y-29393170D01*
X73815909Y-29520780D01*
X73815908Y-29520780D01*
X73728188Y-29672719D01*
X73677870Y-29840786D01*
X73677869Y-29840793D01*
X73667668Y-30015931D01*
X73698133Y-30188707D01*
X73767622Y-30349802D01*
X73767626Y-30349808D01*
X73855900Y-30468382D01*
X73875483Y-30526348D01*
X73857254Y-30584755D01*
X73808176Y-30621292D01*
X73776490Y-30626500D01*
X73023730Y-30626500D01*
X73003404Y-30624391D01*
X72992737Y-30622153D01*
X72988775Y-30621150D01*
X72945342Y-30608219D01*
X72945340Y-30608219D01*
X72941735Y-30608367D01*
X72917342Y-30606346D01*
X72913816Y-30605607D01*
X72913815Y-30605607D01*
X72868818Y-30611215D01*
X72864742Y-30611552D01*
X72861108Y-30611703D01*
X72819463Y-30613425D01*
X72819455Y-30613427D01*
X72816104Y-30614735D01*
X72792377Y-30620743D01*
X72788799Y-30621189D01*
X72788794Y-30621190D01*
X72748065Y-30641102D01*
X72744318Y-30642745D01*
X72712312Y-30655234D01*
X72702091Y-30659223D01*
X72702090Y-30659223D01*
X72702089Y-30659224D01*
X72702088Y-30659225D01*
X72699342Y-30661551D01*
X72678847Y-30674941D01*
X72675613Y-30676521D01*
X72675609Y-30676524D01*
X72643557Y-30708575D01*
X72640549Y-30711345D01*
X72605951Y-30740648D01*
X72605950Y-30740650D01*
X72604104Y-30743748D01*
X72589067Y-30763066D01*
X71650005Y-31702127D01*
X71634154Y-31714999D01*
X71622793Y-31722422D01*
X71622790Y-31722425D01*
X71600385Y-31751210D01*
X71596325Y-31755807D01*
X71592954Y-31759178D01*
X71592944Y-31759190D01*
X71579304Y-31778294D01*
X71545406Y-31821846D01*
X71541647Y-31828793D01*
X71538166Y-31835912D01*
X71522420Y-31888806D01*
X71504499Y-31941008D01*
X71503198Y-31948805D01*
X71502219Y-31956662D01*
X71504500Y-32011804D01*
X71504500Y-34041968D01*
X71485593Y-34100159D01*
X71475504Y-34111972D01*
X68640032Y-36947443D01*
X68585515Y-36975220D01*
X68525083Y-36965649D01*
X68481818Y-36922384D01*
X68478575Y-36915349D01*
X68474427Y-36905335D01*
X68377276Y-36778724D01*
X68250665Y-36681573D01*
X68250664Y-36681572D01*
X68103223Y-36620500D01*
X68027577Y-36610541D01*
X67972352Y-36584199D01*
X67943158Y-36530428D01*
X67941500Y-36512388D01*
X67941500Y-35609418D01*
X67943607Y-35589102D01*
X67946393Y-35575816D01*
X67941879Y-35539606D01*
X67941500Y-35533483D01*
X67941500Y-35528719D01*
X67939451Y-35516443D01*
X67937637Y-35505571D01*
X67930810Y-35450797D01*
X67930809Y-35450794D01*
X67928553Y-35443217D01*
X67925984Y-35435733D01*
X67910266Y-35406690D01*
X67899714Y-35387191D01*
X67875476Y-35337611D01*
X67875473Y-35337608D01*
X67870875Y-35331168D01*
X67866019Y-35324928D01*
X67825409Y-35287543D01*
X67635818Y-35097952D01*
X67438839Y-34900974D01*
X67411062Y-34846458D01*
X67410690Y-34818049D01*
X67413330Y-34798000D01*
X67392499Y-34639776D01*
X67331427Y-34492335D01*
X67234276Y-34365724D01*
X67234101Y-34365590D01*
X67107666Y-34268574D01*
X67107664Y-34268572D01*
X67003405Y-34225387D01*
X66960224Y-34207501D01*
X66960223Y-34207500D01*
X66960224Y-34207500D01*
X66802000Y-34186670D01*
X66643776Y-34207500D01*
X66496335Y-34268572D01*
X66496333Y-34268574D01*
X66369728Y-34365720D01*
X66369720Y-34365728D01*
X66272574Y-34492333D01*
X66272572Y-34492335D01*
X66211500Y-34639776D01*
X66190670Y-34797999D01*
X66190670Y-34798000D01*
X66211500Y-34956223D01*
X66272572Y-35103664D01*
X66272573Y-35103665D01*
X66369724Y-35230276D01*
X66496335Y-35327427D01*
X66643776Y-35388499D01*
X66643775Y-35388499D01*
X66667764Y-35391657D01*
X66802000Y-35409330D01*
X66822047Y-35406690D01*
X66882206Y-35417839D01*
X66904974Y-35434839D01*
X67157504Y-35687369D01*
X67185281Y-35741886D01*
X67186500Y-35757373D01*
X67186500Y-36780581D01*
X67184393Y-36800895D01*
X67181607Y-36814184D01*
X67182397Y-36820524D01*
X67186120Y-36850388D01*
X67186500Y-36856516D01*
X67186500Y-36861282D01*
X67190362Y-36884428D01*
X67197190Y-36939203D01*
X67199446Y-36946783D01*
X67202016Y-36954267D01*
X67202017Y-36954269D01*
X67213355Y-36975220D01*
X67228285Y-37002808D01*
X67252522Y-37052386D01*
X67257131Y-37058841D01*
X67261979Y-37065070D01*
X67261980Y-37065071D01*
X67302590Y-37102455D01*
X67308161Y-37108026D01*
X67335937Y-37162541D01*
X67336309Y-37190948D01*
X67333670Y-37210996D01*
X67333670Y-37211000D01*
X67354500Y-37369223D01*
X67415572Y-37516664D01*
X67415573Y-37516665D01*
X67512724Y-37643276D01*
X67639335Y-37740427D01*
X67648981Y-37744422D01*
X67649325Y-37744565D01*
X67695851Y-37784301D01*
X67710135Y-37843795D01*
X67686721Y-37900324D01*
X67681444Y-37906032D01*
X67604974Y-37982503D01*
X67550458Y-38010281D01*
X67534970Y-38011500D01*
X64550476Y-38011500D01*
X64492285Y-37992593D01*
X64480472Y-37982504D01*
X64046406Y-37548438D01*
X63592275Y-37094306D01*
X63579398Y-37078447D01*
X63571979Y-37067091D01*
X63569384Y-37065071D01*
X63543188Y-37044681D01*
X63538597Y-37040628D01*
X63535216Y-37037247D01*
X63532836Y-37035548D01*
X63516107Y-37023602D01*
X63472555Y-36989705D01*
X63465608Y-36985946D01*
X63458491Y-36982467D01*
X63405595Y-36966719D01*
X63384538Y-36959490D01*
X63353396Y-36948799D01*
X63353393Y-36948798D01*
X63345596Y-36947497D01*
X63337744Y-36946518D01*
X63337742Y-36946518D01*
X63337739Y-36946518D01*
X63282597Y-36948799D01*
X59587924Y-36948799D01*
X59567609Y-36946692D01*
X59554322Y-36943906D01*
X59518115Y-36948419D01*
X59511991Y-36948799D01*
X59507221Y-36948799D01*
X59484065Y-36952663D01*
X59429300Y-36959490D01*
X59421702Y-36961752D01*
X59414239Y-36964315D01*
X59365693Y-36990586D01*
X59316118Y-37014822D01*
X59309661Y-37019432D01*
X59303433Y-37024279D01*
X59266049Y-37064890D01*
X58672763Y-37658174D01*
X58618247Y-37685951D01*
X58602760Y-37687170D01*
X58599833Y-37687170D01*
X58441609Y-37708000D01*
X58294168Y-37769072D01*
X58294166Y-37769074D01*
X58167561Y-37866220D01*
X58167553Y-37866228D01*
X58070407Y-37992833D01*
X58070405Y-37992835D01*
X58009333Y-38140276D01*
X57988503Y-38298499D01*
X57988503Y-38298500D01*
X58009333Y-38456723D01*
X58070405Y-38604164D01*
X58070406Y-38604165D01*
X58167557Y-38730776D01*
X58294168Y-38827927D01*
X58441609Y-38888999D01*
X58441608Y-38888999D01*
X58599833Y-38909830D01*
X58758057Y-38888999D01*
X58905498Y-38827927D01*
X58980871Y-38770091D01*
X59038546Y-38749668D01*
X59097211Y-38767046D01*
X59101404Y-38770092D01*
X59204617Y-38849290D01*
X59204619Y-38849291D01*
X59352060Y-38910363D01*
X59352059Y-38910363D01*
X59510284Y-38931194D01*
X59668508Y-38910363D01*
X59815949Y-38849291D01*
X59942560Y-38752140D01*
X60039711Y-38625529D01*
X60100783Y-38478088D01*
X60121614Y-38319864D01*
X60118974Y-38299814D01*
X60130123Y-38239655D01*
X60147122Y-38216889D01*
X60177219Y-38186793D01*
X60231736Y-38159018D01*
X60247221Y-38157799D01*
X62904976Y-38157799D01*
X62963167Y-38176706D01*
X62974979Y-38186794D01*
X63533894Y-38745710D01*
X63561671Y-38800226D01*
X63552100Y-38860658D01*
X63508835Y-38903923D01*
X63467332Y-38912986D01*
X63467408Y-38913593D01*
X63460756Y-38914422D01*
X63459809Y-38914629D01*
X63459273Y-38914606D01*
X63436522Y-38917442D01*
X63423060Y-38919120D01*
X63416937Y-38919500D01*
X63412168Y-38919500D01*
X63389024Y-38923362D01*
X63334250Y-38930190D01*
X63326666Y-38932448D01*
X63319184Y-38935017D01*
X63270655Y-38961279D01*
X63221065Y-38985522D01*
X63214624Y-38990121D01*
X63208383Y-38994978D01*
X63171007Y-39035579D01*
X62274260Y-39932324D01*
X62219744Y-39960101D01*
X62191335Y-39960473D01*
X62171290Y-39957834D01*
X62171289Y-39957834D01*
X62013065Y-39978664D01*
X61865624Y-40039736D01*
X61865622Y-40039738D01*
X61739017Y-40136884D01*
X61739009Y-40136892D01*
X61641863Y-40263497D01*
X61641861Y-40263499D01*
X61580789Y-40410940D01*
X61559959Y-40569163D01*
X61559959Y-40569164D01*
X61580789Y-40727387D01*
X61641861Y-40874828D01*
X61641862Y-40874829D01*
X61739013Y-41001440D01*
X61865624Y-41098591D01*
X62013065Y-41159663D01*
X62013064Y-41159663D01*
X62171289Y-41180494D01*
X62329513Y-41159663D01*
X62399325Y-41130745D01*
X62460318Y-41125945D01*
X62512487Y-41157914D01*
X62515748Y-41161941D01*
X62606147Y-41279752D01*
X62732758Y-41376903D01*
X62880199Y-41437975D01*
X62880198Y-41437975D01*
X63038423Y-41458806D01*
X63196647Y-41437975D01*
X63344088Y-41376903D01*
X63470699Y-41279752D01*
X63567850Y-41153141D01*
X63628922Y-41005700D01*
X63649753Y-40847476D01*
X63647113Y-40827426D01*
X63658262Y-40767266D01*
X63675259Y-40744503D01*
X64262269Y-40157496D01*
X64316785Y-40129719D01*
X64332272Y-40128500D01*
X68064625Y-40128500D01*
X68122816Y-40147407D01*
X68158780Y-40196907D01*
X68158780Y-40258093D01*
X68134629Y-40297504D01*
X66315111Y-42117021D01*
X66267956Y-42141046D01*
X66268395Y-42142522D01*
X66252980Y-42147109D01*
X66245473Y-42149687D01*
X66196944Y-42175949D01*
X66147354Y-42200192D01*
X66140916Y-42204788D01*
X66131198Y-42212353D01*
X66073665Y-42233174D01*
X66057472Y-42232382D01*
X66055095Y-42232069D01*
X66040000Y-42230082D01*
X66039999Y-42230082D01*
X66039998Y-42230082D01*
X65881776Y-42250912D01*
X65734335Y-42311984D01*
X65734333Y-42311986D01*
X65607728Y-42409132D01*
X65607720Y-42409140D01*
X65510574Y-42535745D01*
X65510572Y-42535747D01*
X65449500Y-42683188D01*
X65428670Y-42841411D01*
X65428670Y-42841412D01*
X65449500Y-42999635D01*
X65510572Y-43147076D01*
X65510573Y-43147077D01*
X65607724Y-43273688D01*
X65734335Y-43370839D01*
X65881776Y-43431911D01*
X65881775Y-43431911D01*
X66040000Y-43452742D01*
X66198224Y-43431911D01*
X66271734Y-43401461D01*
X66332730Y-43396661D01*
X66384899Y-43428630D01*
X66401083Y-43455039D01*
X66419680Y-43499935D01*
X66516831Y-43626546D01*
X66643442Y-43723697D01*
X66790883Y-43784769D01*
X66790882Y-43784769D01*
X66800947Y-43786094D01*
X66949107Y-43805600D01*
X67061891Y-43790751D01*
X67122051Y-43801901D01*
X67164169Y-43846283D01*
X67172155Y-43906945D01*
X67166277Y-43926789D01*
X67116308Y-44047426D01*
X67114628Y-44053697D01*
X67112256Y-44053061D01*
X67090484Y-44098705D01*
X67036712Y-44127898D01*
X66980791Y-44122020D01*
X66960225Y-44113501D01*
X66960220Y-44113500D01*
X66802000Y-44092670D01*
X66643776Y-44113500D01*
X66496335Y-44174572D01*
X66496333Y-44174574D01*
X66369728Y-44271720D01*
X66369719Y-44271729D01*
X66306879Y-44353625D01*
X66256455Y-44388281D01*
X66195290Y-44386680D01*
X66168070Y-44371900D01*
X66091666Y-44313274D01*
X66091664Y-44313272D01*
X65945093Y-44252561D01*
X65944224Y-44252201D01*
X65944223Y-44252200D01*
X65944224Y-44252200D01*
X65786000Y-44231370D01*
X65627776Y-44252200D01*
X65480335Y-44313272D01*
X65480333Y-44313274D01*
X65353728Y-44410420D01*
X65353720Y-44410428D01*
X65256574Y-44537033D01*
X65256572Y-44537035D01*
X65195500Y-44684476D01*
X65174670Y-44842699D01*
X65174670Y-44842700D01*
X65195500Y-45000923D01*
X65256572Y-45148364D01*
X65256573Y-45148365D01*
X65353724Y-45274976D01*
X65480335Y-45372127D01*
X65627776Y-45433199D01*
X65627775Y-45433199D01*
X65651764Y-45436357D01*
X65786000Y-45454030D01*
X65806047Y-45451390D01*
X65866207Y-45462539D01*
X65888975Y-45479540D01*
X66028023Y-45618589D01*
X66040897Y-45634442D01*
X66044562Y-45640052D01*
X66048324Y-45645809D01*
X66077113Y-45668216D01*
X66081711Y-45672277D01*
X66085086Y-45675652D01*
X66085089Y-45675654D01*
X66086268Y-45676652D01*
X66086561Y-45677127D01*
X66087982Y-45678547D01*
X66087647Y-45678881D01*
X66118458Y-45728685D01*
X66113916Y-45789702D01*
X66074377Y-45836395D01*
X66035215Y-45850357D01*
X65903479Y-45867700D01*
X65756038Y-45928772D01*
X65756036Y-45928774D01*
X65629431Y-46025920D01*
X65629423Y-46025928D01*
X65532277Y-46152533D01*
X65532275Y-46152535D01*
X65471203Y-46299976D01*
X65450373Y-46458199D01*
X65450373Y-46458200D01*
X65471203Y-46616423D01*
X65532275Y-46763864D01*
X65532276Y-46763865D01*
X65629427Y-46890476D01*
X65756038Y-46987627D01*
X65903479Y-47048699D01*
X65903478Y-47048699D01*
X65924309Y-47051441D01*
X66061703Y-47069530D01*
X66145234Y-47058532D01*
X66205395Y-47069682D01*
X66228161Y-47086681D01*
X66665460Y-47523981D01*
X66668369Y-47527155D01*
X66672641Y-47532246D01*
X66695559Y-47588977D01*
X66680755Y-47648344D01*
X66633882Y-47687672D01*
X66596800Y-47694879D01*
X62779422Y-47694879D01*
X62759107Y-47692772D01*
X62745820Y-47689986D01*
X62709611Y-47694499D01*
X62703488Y-47694879D01*
X62698719Y-47694879D01*
X62675575Y-47698741D01*
X62620799Y-47705569D01*
X62613228Y-47707823D01*
X62605732Y-47710396D01*
X62569330Y-47730097D01*
X62557195Y-47736664D01*
X62547365Y-47741470D01*
X62507616Y-47760902D01*
X62501159Y-47765512D01*
X62494931Y-47770359D01*
X62457547Y-47810970D01*
X60996292Y-49272224D01*
X60941775Y-49300001D01*
X60913366Y-49300373D01*
X60893320Y-49297734D01*
X60893319Y-49297734D01*
X60735095Y-49318564D01*
X60587654Y-49379636D01*
X60587652Y-49379638D01*
X60461047Y-49476784D01*
X60461039Y-49476792D01*
X60363893Y-49603397D01*
X60363891Y-49603399D01*
X60302819Y-49750840D01*
X60281989Y-49909063D01*
X60281989Y-49909064D01*
X60302819Y-50067287D01*
X60363891Y-50214728D01*
X60363892Y-50214729D01*
X60383540Y-50240335D01*
X60456895Y-50335935D01*
X60461043Y-50341340D01*
X60587654Y-50438491D01*
X60735095Y-50499563D01*
X60735094Y-50499563D01*
X60893319Y-50520394D01*
X61051543Y-50499563D01*
X61198984Y-50438491D01*
X61325595Y-50341340D01*
X61422746Y-50214729D01*
X61483818Y-50067288D01*
X61504649Y-49909064D01*
X61502009Y-49889014D01*
X61513158Y-49828855D01*
X61530159Y-49806088D01*
X62857375Y-48478875D01*
X62911891Y-48451098D01*
X62927378Y-48449879D01*
X67718214Y-48449879D01*
X67776405Y-48468786D01*
X67796755Y-48488611D01*
X67809066Y-48504655D01*
X67935677Y-48601806D01*
X68083118Y-48662878D01*
X68083117Y-48662878D01*
X68241342Y-48683709D01*
X68399566Y-48662878D01*
X68547007Y-48601806D01*
X68673618Y-48504655D01*
X68770769Y-48378044D01*
X68831841Y-48230603D01*
X68852672Y-48072379D01*
X68831841Y-47914155D01*
X68770769Y-47766714D01*
X68673618Y-47640103D01*
X68547007Y-47542952D01*
X68521160Y-47532246D01*
X68412854Y-47487384D01*
X68366329Y-47447647D01*
X68352045Y-47388152D01*
X68352587Y-47382998D01*
X68362911Y-47304581D01*
X68362911Y-47304580D01*
X68342080Y-47146357D01*
X68281008Y-46998916D01*
X68281006Y-46998914D01*
X68272345Y-46987627D01*
X68183857Y-46872305D01*
X68057246Y-46775154D01*
X68057245Y-46775153D01*
X67941163Y-46727071D01*
X67909805Y-46714082D01*
X67909804Y-46714081D01*
X67909805Y-46714081D01*
X67751581Y-46693251D01*
X67593357Y-46714081D01*
X67445916Y-46775153D01*
X67445914Y-46775155D01*
X67319309Y-46872301D01*
X67319301Y-46872309D01*
X67268015Y-46939148D01*
X67217591Y-46973804D01*
X67189473Y-46977881D01*
X67084415Y-46977881D01*
X67026224Y-46958974D01*
X67014411Y-46948885D01*
X66690184Y-46624658D01*
X66662407Y-46570141D01*
X66662035Y-46541731D01*
X66673033Y-46458199D01*
X66652202Y-46299976D01*
X66591130Y-46152535D01*
X66591128Y-46152533D01*
X66590352Y-46151522D01*
X66493979Y-46025924D01*
X66384138Y-45941641D01*
X66349483Y-45891218D01*
X66351084Y-45830054D01*
X66388331Y-45781512D01*
X66444406Y-45764100D01*
X68811227Y-45764100D01*
X68869418Y-45783007D01*
X68881230Y-45793095D01*
X70824798Y-47736664D01*
X72735125Y-49646991D01*
X72747999Y-49662845D01*
X72755424Y-49674209D01*
X72784213Y-49696616D01*
X72788810Y-49700676D01*
X72792186Y-49704052D01*
X72811295Y-49717696D01*
X72854844Y-49751592D01*
X72861795Y-49755353D01*
X72868911Y-49758832D01*
X72921806Y-49774579D01*
X72974006Y-49792500D01*
X72974010Y-49792500D01*
X72981802Y-49793801D01*
X72989652Y-49794778D01*
X72989660Y-49794781D01*
X73042425Y-49792598D01*
X73044805Y-49792500D01*
X73672311Y-49792500D01*
X73730502Y-49811407D01*
X73766466Y-49860907D01*
X73766466Y-49922093D01*
X73758048Y-49941000D01*
X73728188Y-49992719D01*
X73677870Y-50160786D01*
X73677869Y-50160793D01*
X73667668Y-50335931D01*
X73698133Y-50508707D01*
X73767622Y-50669802D01*
X73767623Y-50669804D01*
X73872389Y-50810529D01*
X73872391Y-50810531D01*
X74006782Y-50923300D01*
X74006786Y-50923302D01*
X74011828Y-50925834D01*
X74055344Y-50968843D01*
X74066400Y-51014305D01*
X74066400Y-51606223D01*
X74047493Y-51664414D01*
X74021802Y-51688936D01*
X73936306Y-51745168D01*
X73936303Y-51745170D01*
X73815909Y-51872780D01*
X73815908Y-51872780D01*
X73728188Y-52024719D01*
X73677870Y-52192786D01*
X73677869Y-52192793D01*
X73667668Y-52367931D01*
X73698133Y-52540707D01*
X73767622Y-52701802D01*
X73767623Y-52701804D01*
X73872389Y-52842529D01*
X73872391Y-52842531D01*
X74006783Y-52955300D01*
X74006784Y-52955300D01*
X74006786Y-52955302D01*
X74163567Y-53034040D01*
X74167968Y-53035083D01*
X74267073Y-53058572D01*
X74319335Y-53090389D01*
X74320864Y-53092212D01*
X74426155Y-53220901D01*
X74448370Y-53277911D01*
X74441052Y-53321344D01*
X74433357Y-53339997D01*
X74433370Y-53359651D01*
X74433398Y-53359787D01*
X74433398Y-53594002D01*
X74424410Y-53811300D01*
X74415419Y-54017216D01*
X74415086Y-54021181D01*
X74387851Y-54239674D01*
X74360782Y-54445282D01*
X74360152Y-54448980D01*
X74314988Y-54664376D01*
X74270039Y-54867130D01*
X74269154Y-54870541D01*
X74206351Y-55081492D01*
X74143843Y-55279739D01*
X74142748Y-55282849D01*
X74062729Y-55487920D01*
X73983119Y-55680113D01*
X73981857Y-55682910D01*
X73885148Y-55880734D01*
X73789021Y-56065389D01*
X73787637Y-56067871D01*
X73674878Y-56257107D01*
X73562968Y-56432771D01*
X73561506Y-56434939D01*
X73433434Y-56614314D01*
X73306564Y-56779653D01*
X73305066Y-56781512D01*
X73162572Y-56949754D01*
X73020946Y-57104312D01*
X72864203Y-57261054D01*
X72709660Y-57402666D01*
X72541408Y-57545169D01*
X72539550Y-57546667D01*
X72374201Y-57673544D01*
X72194842Y-57801602D01*
X72192675Y-57803064D01*
X72016991Y-57914988D01*
X71827777Y-58027734D01*
X71825295Y-58029118D01*
X71640630Y-58125250D01*
X71442807Y-58221958D01*
X71440010Y-58223220D01*
X71247805Y-58302835D01*
X71042733Y-58382852D01*
X71039624Y-58383947D01*
X70841388Y-58446452D01*
X70630437Y-58509255D01*
X70627026Y-58510140D01*
X70424272Y-58555089D01*
X70208877Y-58600253D01*
X70205179Y-58600883D01*
X69999559Y-58627953D01*
X69781075Y-58655186D01*
X69777111Y-58655519D01*
X69572077Y-58664474D01*
X69353826Y-58673500D01*
X26769500Y-58673500D01*
X26711309Y-58654593D01*
X26675345Y-58605093D01*
X26670500Y-58574500D01*
X26670500Y-58534979D01*
X26670500Y-58534973D01*
X26632638Y-58259509D01*
X26557620Y-57991767D01*
X26446843Y-57736733D01*
X26302371Y-57499159D01*
X26126895Y-57283469D01*
X25923683Y-57093683D01*
X25923678Y-57093679D01*
X25923674Y-57093676D01*
X25696522Y-56933335D01*
X25594229Y-56880331D01*
X25449642Y-56805412D01*
X25192134Y-56713894D01*
X25187638Y-56712296D01*
X24915410Y-56655727D01*
X24915401Y-56655725D01*
X24638003Y-56636751D01*
X24637997Y-56636751D01*
X24360598Y-56655725D01*
X24360589Y-56655727D01*
X24088361Y-56712296D01*
X23954707Y-56759797D01*
X23826358Y-56805412D01*
X23826356Y-56805412D01*
X23826356Y-56805413D01*
X23579477Y-56933335D01*
X23352325Y-57093676D01*
X23352318Y-57093682D01*
X23352317Y-57093683D01*
X23149105Y-57283469D01*
X22993965Y-57474163D01*
X22973629Y-57499159D01*
X22973625Y-57499165D01*
X22829159Y-57736728D01*
X22829155Y-57736735D01*
X22731242Y-57962155D01*
X22718380Y-57991767D01*
X22708302Y-58027736D01*
X22647240Y-58245670D01*
X22643362Y-58259509D01*
X22605500Y-58534973D01*
X22605500Y-58534975D01*
X22605500Y-58570299D01*
X22586593Y-58628490D01*
X22537093Y-58664454D01*
X22502409Y-58669214D01*
X22388634Y-58664509D01*
X22182784Y-58655521D01*
X22178819Y-58655188D01*
X21960318Y-58627952D01*
X21754717Y-58600883D01*
X21751019Y-58600253D01*
X21535665Y-58555099D01*
X21332853Y-58510137D01*
X21329441Y-58509252D01*
X21118549Y-58446466D01*
X20961978Y-58397100D01*
X20920256Y-58383945D01*
X20917178Y-58382862D01*
X20784252Y-58330994D01*
X20712091Y-58302836D01*
X20519886Y-58223222D01*
X20517088Y-58221960D01*
X20319266Y-58125251D01*
X20134602Y-58029120D01*
X20132120Y-58027736D01*
X19942901Y-57914986D01*
X19767210Y-57803057D01*
X19765042Y-57801595D01*
X19585695Y-57673543D01*
X19420351Y-57546670D01*
X19418493Y-57545172D01*
X19250246Y-57402676D01*
X19095675Y-57261037D01*
X18938962Y-57104324D01*
X18797323Y-56949753D01*
X18654826Y-56781505D01*
X18653328Y-56779647D01*
X18526456Y-56614304D01*
X18414831Y-56457964D01*
X18398393Y-56434941D01*
X18396941Y-56432788D01*
X18285013Y-56257098D01*
X18278802Y-56246674D01*
X18278801Y-56246672D01*
X44492500Y-56246672D01*
X44492501Y-56246684D01*
X44507033Y-56319736D01*
X44507035Y-56319742D01*
X44562397Y-56402599D01*
X44562400Y-56402602D01*
X44645257Y-56457964D01*
X44645260Y-56457966D01*
X44700808Y-56469015D01*
X44718315Y-56472498D01*
X44718320Y-56472498D01*
X44718326Y-56472500D01*
X44718327Y-56472500D01*
X46467673Y-56472500D01*
X46467674Y-56472500D01*
X46540740Y-56457966D01*
X46623601Y-56402601D01*
X46678966Y-56319740D01*
X46693500Y-56246674D01*
X46693500Y-54497326D01*
X46678966Y-54424260D01*
X46678964Y-54424257D01*
X46623602Y-54341400D01*
X46623599Y-54341397D01*
X46540742Y-54286035D01*
X46540740Y-54286034D01*
X46540737Y-54286033D01*
X46540736Y-54286033D01*
X46467684Y-54271501D01*
X46467674Y-54271500D01*
X44718326Y-54271500D01*
X44718325Y-54271500D01*
X44718315Y-54271501D01*
X44645263Y-54286033D01*
X44645257Y-54286035D01*
X44562400Y-54341397D01*
X44562397Y-54341400D01*
X44507035Y-54424257D01*
X44507033Y-54424263D01*
X44492501Y-54497315D01*
X44492500Y-54497327D01*
X44492500Y-56246672D01*
X18278801Y-56246672D01*
X18172256Y-56067868D01*
X18170878Y-56065396D01*
X18074748Y-55880733D01*
X18048600Y-55827246D01*
X17978029Y-55682891D01*
X17976780Y-55680122D01*
X17897163Y-55487908D01*
X17881786Y-55448500D01*
X17817124Y-55282787D01*
X17816065Y-55279778D01*
X17753533Y-55081450D01*
X17724292Y-54983232D01*
X17690737Y-54870526D01*
X17689868Y-54867174D01*
X17644909Y-54664376D01*
X17599743Y-54448971D01*
X17599115Y-54445281D01*
X17585439Y-54341400D01*
X17572046Y-54239674D01*
X17544807Y-54021154D01*
X17544479Y-54017238D01*
X17535512Y-53811898D01*
X30108449Y-53811898D01*
X30128214Y-54063044D01*
X30187025Y-54308011D01*
X30283430Y-54540754D01*
X30283433Y-54540760D01*
X30415060Y-54755554D01*
X30415066Y-54755562D01*
X30513267Y-54870541D01*
X30578674Y-54947122D01*
X30578680Y-54947127D01*
X30578683Y-54947130D01*
X30693148Y-55044892D01*
X30770239Y-55110734D01*
X30770241Y-55110735D01*
X30985035Y-55242362D01*
X30985041Y-55242365D01*
X31217785Y-55338770D01*
X31217787Y-55338771D01*
X31462750Y-55397581D01*
X31651016Y-55412398D01*
X31651021Y-55412398D01*
X31776775Y-55412398D01*
X31776780Y-55412398D01*
X31965046Y-55397581D01*
X32210009Y-55338771D01*
X32442757Y-55242364D01*
X32657557Y-55110734D01*
X32849122Y-54947122D01*
X33012734Y-54755557D01*
X33144364Y-54540757D01*
X33240771Y-54308009D01*
X33299581Y-54063046D01*
X33319347Y-53811898D01*
X33299581Y-53560750D01*
X33240771Y-53315787D01*
X33225082Y-53277911D01*
X33144365Y-53083041D01*
X33144362Y-53083035D01*
X33012735Y-52868241D01*
X33012734Y-52868239D01*
X32990777Y-52842531D01*
X32981783Y-52832000D01*
X44487785Y-52832000D01*
X44506603Y-53035083D01*
X44562418Y-53231250D01*
X44653327Y-53413821D01*
X44776236Y-53576579D01*
X44926959Y-53713981D01*
X45100363Y-53821348D01*
X45290544Y-53895024D01*
X45491024Y-53932500D01*
X45694976Y-53932500D01*
X45895456Y-53895024D01*
X46016840Y-53848000D01*
X67038551Y-53848000D01*
X67058316Y-54099146D01*
X67117127Y-54344113D01*
X67213532Y-54576856D01*
X67213535Y-54576862D01*
X67345162Y-54791656D01*
X67345168Y-54791664D01*
X67477948Y-54947130D01*
X67508776Y-54983224D01*
X67508782Y-54983229D01*
X67508785Y-54983232D01*
X67580980Y-55044892D01*
X67700341Y-55146836D01*
X67700343Y-55146837D01*
X67915137Y-55278464D01*
X67915143Y-55278467D01*
X68147887Y-55374872D01*
X68147889Y-55374873D01*
X68392852Y-55433683D01*
X68581118Y-55448500D01*
X68581123Y-55448500D01*
X68706877Y-55448500D01*
X68706882Y-55448500D01*
X68895148Y-55433683D01*
X69140111Y-55374873D01*
X69372859Y-55278466D01*
X69587659Y-55146836D01*
X69779224Y-54983224D01*
X69942836Y-54791659D01*
X70074466Y-54576859D01*
X70170873Y-54344111D01*
X70229683Y-54099148D01*
X70249449Y-53848000D01*
X70229683Y-53596852D01*
X70170873Y-53351889D01*
X70165989Y-53340099D01*
X70074467Y-53119143D01*
X70074464Y-53119137D01*
X69942837Y-52904343D01*
X69942836Y-52904341D01*
X69942831Y-52904335D01*
X69779232Y-52712785D01*
X69779229Y-52712782D01*
X69779224Y-52712776D01*
X69779217Y-52712770D01*
X69779214Y-52712767D01*
X69587664Y-52549168D01*
X69587656Y-52549162D01*
X69372862Y-52417535D01*
X69372856Y-52417532D01*
X69140112Y-52321127D01*
X69140113Y-52321127D01*
X68895146Y-52262316D01*
X68766812Y-52252216D01*
X68706882Y-52247500D01*
X68581118Y-52247500D01*
X68524775Y-52251934D01*
X68392853Y-52262316D01*
X68147886Y-52321127D01*
X67915143Y-52417532D01*
X67915137Y-52417535D01*
X67700343Y-52549162D01*
X67700335Y-52549168D01*
X67508785Y-52712767D01*
X67508767Y-52712785D01*
X67345168Y-52904335D01*
X67345162Y-52904343D01*
X67213535Y-53119137D01*
X67213532Y-53119143D01*
X67117127Y-53351886D01*
X67058316Y-53596853D01*
X67038551Y-53848000D01*
X46016840Y-53848000D01*
X46085637Y-53821348D01*
X46259041Y-53713981D01*
X46409764Y-53576579D01*
X46532673Y-53413821D01*
X46600348Y-53277911D01*
X46607090Y-53264372D01*
X46649953Y-53220709D01*
X46695711Y-53209500D01*
X48223968Y-53209500D01*
X48282159Y-53228407D01*
X48315432Y-53270614D01*
X48343965Y-53339500D01*
X48365573Y-53391665D01*
X48462724Y-53518276D01*
X48589335Y-53615427D01*
X48736776Y-53676499D01*
X48736775Y-53676499D01*
X48895000Y-53697330D01*
X49053224Y-53676499D01*
X49200665Y-53615427D01*
X49327276Y-53518276D01*
X49424427Y-53391665D01*
X49485499Y-53244224D01*
X49506330Y-53086000D01*
X49505940Y-53083041D01*
X49485499Y-52927776D01*
X49424427Y-52780335D01*
X49424425Y-52780333D01*
X49420500Y-52775218D01*
X49327276Y-52653724D01*
X49324243Y-52651397D01*
X49250346Y-52594694D01*
X49200665Y-52556573D01*
X49200664Y-52556572D01*
X49084459Y-52508439D01*
X49053224Y-52495501D01*
X49053223Y-52495500D01*
X49053224Y-52495500D01*
X48895000Y-52474670D01*
X48894999Y-52474670D01*
X48824927Y-52483895D01*
X48783757Y-52480626D01*
X48756193Y-52472420D01*
X48703991Y-52454499D01*
X48696194Y-52453198D01*
X48688342Y-52452219D01*
X48688340Y-52452219D01*
X48688337Y-52452219D01*
X48633195Y-52454500D01*
X46695711Y-52454500D01*
X46637520Y-52435593D01*
X46607090Y-52399628D01*
X46538716Y-52262316D01*
X46532673Y-52250179D01*
X46409764Y-52087421D01*
X46259041Y-51950019D01*
X46085637Y-51842652D01*
X45922660Y-51779515D01*
X57946755Y-51779515D01*
X57967585Y-51937738D01*
X58028657Y-52085179D01*
X58028659Y-52085181D01*
X58115818Y-52198771D01*
X58125809Y-52211791D01*
X58252420Y-52308942D01*
X58399861Y-52370014D01*
X58399860Y-52370014D01*
X58558085Y-52390845D01*
X58716309Y-52370014D01*
X58863750Y-52308942D01*
X58990361Y-52211791D01*
X59087512Y-52085180D01*
X59148584Y-51937739D01*
X59169415Y-51779515D01*
X59168027Y-51768976D01*
X59162596Y-51727724D01*
X59173746Y-51667563D01*
X59190742Y-51644800D01*
X59397890Y-51437652D01*
X59413740Y-51424782D01*
X59423769Y-51418231D01*
X59444550Y-51391529D01*
X59448615Y-51386928D01*
X59451604Y-51383940D01*
X59460579Y-51371368D01*
X59464319Y-51366132D01*
X59479026Y-51347235D01*
X59495945Y-51325498D01*
X59495946Y-51325492D01*
X59499459Y-51319003D01*
X59502694Y-51312383D01*
X59502698Y-51312379D01*
X59517389Y-51263030D01*
X59534100Y-51214355D01*
X59534100Y-51214354D01*
X59535318Y-51207056D01*
X59536228Y-51199755D01*
X59534100Y-51148303D01*
X59534100Y-51088618D01*
X59553007Y-51030427D01*
X59572833Y-51010076D01*
X59583564Y-51001841D01*
X59614276Y-50978276D01*
X59711427Y-50851665D01*
X59772499Y-50704224D01*
X59793330Y-50546000D01*
X59792981Y-50543352D01*
X59772499Y-50387776D01*
X59711427Y-50240335D01*
X59711425Y-50240333D01*
X59691779Y-50214730D01*
X59614276Y-50113724D01*
X59487665Y-50016573D01*
X59487664Y-50016572D01*
X59383405Y-49973387D01*
X59340224Y-49955501D01*
X59340223Y-49955500D01*
X59340224Y-49955500D01*
X59182000Y-49934670D01*
X59023776Y-49955500D01*
X58876335Y-50016572D01*
X58876333Y-50016574D01*
X58749728Y-50113720D01*
X58749720Y-50113728D01*
X58652574Y-50240333D01*
X58652572Y-50240335D01*
X58591500Y-50387776D01*
X58570670Y-50545999D01*
X58570670Y-50546000D01*
X58591500Y-50704223D01*
X58652572Y-50851664D01*
X58652573Y-50851665D01*
X58709484Y-50925833D01*
X58745348Y-50972573D01*
X58765772Y-51030249D01*
X58748394Y-51088915D01*
X58736810Y-51102844D01*
X58692800Y-51146854D01*
X58638283Y-51174631D01*
X58609874Y-51175003D01*
X58558086Y-51168185D01*
X58558085Y-51168185D01*
X58399861Y-51189015D01*
X58252420Y-51250087D01*
X58252418Y-51250089D01*
X58125813Y-51347235D01*
X58125805Y-51347243D01*
X58028659Y-51473848D01*
X58028657Y-51473850D01*
X57967585Y-51621291D01*
X57946755Y-51779514D01*
X57946755Y-51779515D01*
X45922660Y-51779515D01*
X45895456Y-51768976D01*
X45895455Y-51768975D01*
X45895453Y-51768975D01*
X45694976Y-51731500D01*
X45491024Y-51731500D01*
X45290546Y-51768975D01*
X45253337Y-51783390D01*
X45100363Y-51842652D01*
X44926959Y-51950019D01*
X44776236Y-52087421D01*
X44736388Y-52140188D01*
X44653328Y-52250177D01*
X44653323Y-52250186D01*
X44569994Y-52417535D01*
X44562418Y-52432750D01*
X44506603Y-52628917D01*
X44487785Y-52832000D01*
X32981783Y-52832000D01*
X32849130Y-52676683D01*
X32849127Y-52676680D01*
X32849122Y-52676674D01*
X32849115Y-52676668D01*
X32849112Y-52676665D01*
X32657562Y-52513066D01*
X32657554Y-52513060D01*
X32442760Y-52381433D01*
X32442754Y-52381430D01*
X32210010Y-52285025D01*
X32210011Y-52285025D01*
X31965044Y-52226214D01*
X31836710Y-52216114D01*
X31776780Y-52211398D01*
X31651016Y-52211398D01*
X31594673Y-52215832D01*
X31462751Y-52226214D01*
X31217784Y-52285025D01*
X30985041Y-52381430D01*
X30985035Y-52381433D01*
X30770241Y-52513060D01*
X30770233Y-52513066D01*
X30578683Y-52676665D01*
X30578665Y-52676683D01*
X30415066Y-52868233D01*
X30415060Y-52868241D01*
X30283433Y-53083035D01*
X30283430Y-53083041D01*
X30187025Y-53315784D01*
X30128214Y-53560751D01*
X30108449Y-53811898D01*
X17535512Y-53811898D01*
X17535496Y-53811524D01*
X17526500Y-53594000D01*
X17526500Y-53593500D01*
X17526500Y-51848063D01*
X22463898Y-51848063D01*
X22478717Y-51989054D01*
X22478717Y-51989057D01*
X22537177Y-52168972D01*
X22537183Y-52168986D01*
X22631770Y-52332814D01*
X22631774Y-52332820D01*
X22758358Y-52473407D01*
X22758360Y-52473408D01*
X22911422Y-52584615D01*
X22911429Y-52584619D01*
X23084244Y-52661560D01*
X23084254Y-52661563D01*
X23263898Y-52699747D01*
X23263898Y-51888050D01*
X23301322Y-51900898D01*
X23394971Y-51900898D01*
X23463898Y-51889396D01*
X23463898Y-52699746D01*
X23643541Y-52661563D01*
X23643551Y-52661560D01*
X23816365Y-52584619D01*
X23816372Y-52584615D01*
X23969436Y-52473408D01*
X23969437Y-52473407D01*
X24096021Y-52332820D01*
X24096025Y-52332814D01*
X24173420Y-52198764D01*
X24513398Y-52198764D01*
X24513399Y-52198768D01*
X24519806Y-52258378D01*
X24519807Y-52258383D01*
X24570100Y-52393227D01*
X24646662Y-52495500D01*
X24656352Y-52508444D01*
X24656355Y-52508446D01*
X24656356Y-52508447D01*
X24771568Y-52594695D01*
X24906409Y-52644987D01*
X24906410Y-52644987D01*
X24906415Y-52644989D01*
X24966025Y-52651398D01*
X25761770Y-52651397D01*
X25821381Y-52644989D01*
X25888805Y-52619841D01*
X25956227Y-52594695D01*
X25956227Y-52594694D01*
X25956229Y-52594694D01*
X26071444Y-52508444D01*
X26157694Y-52393229D01*
X26207989Y-52258381D01*
X26214398Y-52198771D01*
X26214397Y-51054001D01*
X33126722Y-51054001D01*
X33145762Y-51210816D01*
X33145763Y-51210818D01*
X33165565Y-51263031D01*
X33201780Y-51358523D01*
X33291515Y-51488528D01*
X33291516Y-51488529D01*
X33291517Y-51488530D01*
X33409760Y-51593283D01*
X33549635Y-51666696D01*
X33703015Y-51704500D01*
X33703018Y-51704500D01*
X33860982Y-51704500D01*
X33860985Y-51704500D01*
X34014365Y-51666696D01*
X34154240Y-51593283D01*
X34272483Y-51488530D01*
X34362220Y-51358523D01*
X34418237Y-51210818D01*
X34437278Y-51054000D01*
X34435553Y-51039796D01*
X34421716Y-50925833D01*
X34418237Y-50897182D01*
X34362220Y-50749477D01*
X34272483Y-50619470D01*
X34229774Y-50581633D01*
X34198757Y-50528895D01*
X34204661Y-50467996D01*
X34225417Y-50437531D01*
X37825254Y-46837696D01*
X37879771Y-46809919D01*
X37895258Y-46808700D01*
X40277128Y-46808700D01*
X40335319Y-46827607D01*
X40358604Y-46851462D01*
X40403515Y-46916528D01*
X40403516Y-46916529D01*
X40403517Y-46916530D01*
X40521760Y-47021283D01*
X40661635Y-47094696D01*
X40815015Y-47132500D01*
X40815018Y-47132500D01*
X40972982Y-47132500D01*
X40972985Y-47132500D01*
X41126365Y-47094696D01*
X41266240Y-47021283D01*
X41384483Y-46916530D01*
X41474220Y-46786523D01*
X41530237Y-46638818D01*
X41549278Y-46482000D01*
X41530237Y-46325182D01*
X41474220Y-46177477D01*
X41384483Y-46047470D01*
X41266240Y-45942717D01*
X41168118Y-45891218D01*
X41126364Y-45869303D01*
X40972987Y-45831500D01*
X40972985Y-45831500D01*
X40815015Y-45831500D01*
X40815012Y-45831500D01*
X40661635Y-45869303D01*
X40521758Y-45942718D01*
X40403515Y-46047471D01*
X40358604Y-46112538D01*
X40309987Y-46149688D01*
X40277128Y-46155300D01*
X37735352Y-46155300D01*
X37731051Y-46155112D01*
X37694430Y-46151908D01*
X37690013Y-46151522D01*
X37690007Y-46151522D01*
X37650234Y-46162179D01*
X37646019Y-46163114D01*
X37605468Y-46170264D01*
X37605458Y-46170268D01*
X37604097Y-46171054D01*
X37580248Y-46180932D01*
X37578734Y-46181337D01*
X37578723Y-46181342D01*
X37544994Y-46204959D01*
X37541354Y-46207278D01*
X37505688Y-46227871D01*
X37479225Y-46259408D01*
X37476307Y-46262592D01*
X33562592Y-50176307D01*
X33559408Y-50179225D01*
X33527871Y-50205688D01*
X33527871Y-50205689D01*
X33507282Y-50241349D01*
X33504962Y-50244990D01*
X33481341Y-50278726D01*
X33481341Y-50278727D01*
X33480936Y-50280239D01*
X33471051Y-50304105D01*
X33470267Y-50305463D01*
X33470265Y-50305466D01*
X33463115Y-50346015D01*
X33462180Y-50350230D01*
X33451522Y-50390013D01*
X33454412Y-50423046D01*
X33440649Y-50482664D01*
X33412035Y-50513145D01*
X33409765Y-50514711D01*
X33291515Y-50619471D01*
X33201780Y-50749476D01*
X33145763Y-50897182D01*
X33145762Y-50897183D01*
X33126722Y-51053998D01*
X33126722Y-51054001D01*
X26214397Y-51054001D01*
X26214397Y-50853026D01*
X26207989Y-50793415D01*
X26174723Y-50704223D01*
X26157695Y-50658568D01*
X26071447Y-50543356D01*
X26071446Y-50543355D01*
X26071444Y-50543352D01*
X26052132Y-50528895D01*
X25956227Y-50457100D01*
X25821386Y-50406808D01*
X25821381Y-50406807D01*
X25821379Y-50406806D01*
X25821375Y-50406806D01*
X25790147Y-50403448D01*
X25761771Y-50400398D01*
X25761768Y-50400398D01*
X24966031Y-50400398D01*
X24966027Y-50400398D01*
X24966026Y-50400399D01*
X24958847Y-50401170D01*
X24906417Y-50406806D01*
X24906412Y-50406807D01*
X24771568Y-50457100D01*
X24656356Y-50543348D01*
X24656348Y-50543356D01*
X24570100Y-50658568D01*
X24519808Y-50793409D01*
X24519806Y-50793420D01*
X24515431Y-50834107D01*
X24513545Y-50851664D01*
X24513398Y-50853027D01*
X24513398Y-52198764D01*
X24173420Y-52198764D01*
X24190612Y-52168986D01*
X24190618Y-52168972D01*
X24249078Y-51989057D01*
X24249078Y-51989054D01*
X24263897Y-51848063D01*
X24263898Y-51848059D01*
X24263898Y-51625899D01*
X24263897Y-51625898D01*
X23729523Y-51625898D01*
X23732449Y-51619228D01*
X23742784Y-51494503D01*
X23725411Y-51425898D01*
X24263897Y-51425898D01*
X24263898Y-51425897D01*
X24263898Y-51203736D01*
X24263897Y-51203732D01*
X24249078Y-51062741D01*
X24249078Y-51062738D01*
X24190618Y-50882823D01*
X24190612Y-50882809D01*
X24096025Y-50718981D01*
X24096021Y-50718975D01*
X23969437Y-50578388D01*
X23969435Y-50578387D01*
X23816373Y-50467180D01*
X23816366Y-50467176D01*
X23643551Y-50390235D01*
X23643541Y-50390232D01*
X23463898Y-50352047D01*
X23463898Y-51163745D01*
X23426474Y-51150898D01*
X23332825Y-51150898D01*
X23263898Y-51162399D01*
X23263898Y-50352047D01*
X23084254Y-50390232D01*
X23084246Y-50390234D01*
X22911430Y-50467176D01*
X22911423Y-50467180D01*
X22758359Y-50578387D01*
X22758358Y-50578388D01*
X22631774Y-50718975D01*
X22631770Y-50718981D01*
X22537183Y-50882809D01*
X22537177Y-50882823D01*
X22478717Y-51062738D01*
X22478717Y-51062741D01*
X22463898Y-51203732D01*
X22463898Y-51425897D01*
X22463899Y-51425898D01*
X22998273Y-51425898D01*
X22995347Y-51432568D01*
X22985012Y-51557293D01*
X23002385Y-51625898D01*
X22463899Y-51625898D01*
X22463898Y-51625899D01*
X22463898Y-51848063D01*
X17526500Y-51848063D01*
X17526500Y-27057064D01*
X24325445Y-27057064D01*
X24325456Y-27150678D01*
X24352762Y-27252541D01*
X24405497Y-27343865D01*
X24405498Y-27343867D01*
X24480072Y-27418432D01*
X24510517Y-27436007D01*
X24571405Y-27471158D01*
X24655514Y-27493692D01*
X24669915Y-27497551D01*
X24673271Y-27498450D01*
X24673275Y-27498450D01*
X24725901Y-27498450D01*
X25426513Y-27498537D01*
X25484701Y-27517452D01*
X25520658Y-27566956D01*
X25525500Y-27597537D01*
X25525500Y-30768550D01*
X25506593Y-30826741D01*
X25457093Y-30862705D01*
X25426500Y-30867550D01*
X24767057Y-30867550D01*
X24766903Y-30867500D01*
X24726000Y-30867500D01*
X24673269Y-30867500D01*
X24571401Y-30894798D01*
X24542461Y-30911507D01*
X24480069Y-30947533D01*
X24405502Y-31022109D01*
X24352779Y-31113448D01*
X24352778Y-31113448D01*
X24325494Y-31215317D01*
X24325493Y-31215320D01*
X24325499Y-31258034D01*
X24325500Y-31268050D01*
X24325500Y-31268550D01*
X24325500Y-32467500D01*
X24325500Y-32468000D01*
X24325500Y-32520727D01*
X24352446Y-32621292D01*
X24352794Y-32622589D01*
X24352794Y-32622590D01*
X24379176Y-32668284D01*
X24405520Y-32713913D01*
X24480087Y-32788480D01*
X24571413Y-32841207D01*
X24673273Y-32868500D01*
X24725901Y-32868500D01*
X26779354Y-32868500D01*
X26783364Y-32868662D01*
X27096461Y-32894126D01*
X27112279Y-32896716D01*
X27380019Y-32963217D01*
X27411278Y-32970982D01*
X27426490Y-32976101D01*
X27709548Y-33097702D01*
X27723733Y-33105213D01*
X27983411Y-33270951D01*
X27996196Y-33280654D01*
X28193291Y-33457170D01*
X28225685Y-33486181D01*
X28236734Y-33497823D01*
X28429988Y-33737722D01*
X28439011Y-33750996D01*
X28526215Y-33904786D01*
X28594911Y-34025937D01*
X28594912Y-34025939D01*
X29104704Y-34925000D01*
X29514456Y-35647632D01*
X29514611Y-35647929D01*
X29514800Y-35648143D01*
X30684096Y-37099663D01*
X30684296Y-37099930D01*
X30684562Y-37100152D01*
X31338663Y-37685951D01*
X32024102Y-38299816D01*
X32072986Y-38343595D01*
X32073191Y-38343790D01*
X32073193Y-38343792D01*
X32073194Y-38343793D01*
X32073240Y-38343836D01*
X32073550Y-38344021D01*
X33644644Y-39346755D01*
X33644931Y-39346951D01*
X33645242Y-39347070D01*
X35357795Y-40082783D01*
X35358004Y-40082881D01*
X35358009Y-40082885D01*
X35358014Y-40082886D01*
X35358067Y-40082911D01*
X35358115Y-40082921D01*
X35358120Y-40082923D01*
X35358124Y-40082923D01*
X35358364Y-40082973D01*
X37167260Y-40532271D01*
X37167549Y-40532351D01*
X37167552Y-40532353D01*
X37167554Y-40532353D01*
X37167611Y-40532369D01*
X37167664Y-40532371D01*
X37167667Y-40532372D01*
X37167669Y-40532371D01*
X37167917Y-40532382D01*
X39025640Y-40683471D01*
X39025940Y-40683505D01*
X39025942Y-40683506D01*
X39025943Y-40683505D01*
X39025998Y-40683512D01*
X39026052Y-40683505D01*
X39026058Y-40683506D01*
X39026062Y-40683504D01*
X39026302Y-40683476D01*
X40884070Y-40532382D01*
X40884325Y-40532370D01*
X40884332Y-40532372D01*
X40884338Y-40532370D01*
X40884390Y-40532368D01*
X40884441Y-40532353D01*
X40884447Y-40532353D01*
X40884451Y-40532350D01*
X40884704Y-40532279D01*
X42693632Y-40082973D01*
X42693874Y-40082922D01*
X42693879Y-40082922D01*
X42693883Y-40082919D01*
X42693935Y-40082909D01*
X42693981Y-40082887D01*
X42693990Y-40082885D01*
X42693997Y-40082879D01*
X42694200Y-40082783D01*
X44406749Y-39347074D01*
X44407065Y-39346952D01*
X44407113Y-39346918D01*
X44407119Y-39346916D01*
X44407123Y-39346911D01*
X44407296Y-39346791D01*
X45978447Y-38344021D01*
X45978708Y-38343864D01*
X45978714Y-38343863D01*
X45978718Y-38343859D01*
X45978762Y-38343833D01*
X45978802Y-38343794D01*
X45978806Y-38343792D01*
X45978808Y-38343788D01*
X45978973Y-38343630D01*
X47072259Y-37364505D01*
X55243816Y-37364505D01*
X55254475Y-37404286D01*
X55255410Y-37408504D01*
X55264064Y-37457584D01*
X55263499Y-37457683D01*
X55267675Y-37495813D01*
X55250866Y-37623493D01*
X55250866Y-37623494D01*
X55271696Y-37781717D01*
X55332768Y-37929158D01*
X55332769Y-37929159D01*
X55429920Y-38055770D01*
X55556531Y-38152921D01*
X55703972Y-38213993D01*
X55703971Y-38213993D01*
X55862196Y-38234824D01*
X56020420Y-38213993D01*
X56167861Y-38152921D01*
X56294472Y-38055770D01*
X56391623Y-37929159D01*
X56452695Y-37781718D01*
X56473526Y-37623494D01*
X56452695Y-37465270D01*
X56402517Y-37344131D01*
X56397717Y-37283136D01*
X56429687Y-37230967D01*
X56456097Y-37214783D01*
X56465239Y-37210996D01*
X56511759Y-37191727D01*
X56638370Y-37094576D01*
X56735521Y-36967965D01*
X56796593Y-36820524D01*
X56817424Y-36662300D01*
X56806425Y-36578765D01*
X56817574Y-36518608D01*
X56834571Y-36495845D01*
X57139019Y-36191399D01*
X57193535Y-36163622D01*
X57209022Y-36162403D01*
X57222892Y-36162403D01*
X57281083Y-36181310D01*
X57301434Y-36201136D01*
X57348069Y-36261912D01*
X57352724Y-36267979D01*
X57479335Y-36365130D01*
X57626776Y-36426202D01*
X57626775Y-36426202D01*
X57785000Y-36447033D01*
X57943224Y-36426202D01*
X58090665Y-36365130D01*
X58217276Y-36267979D01*
X58314427Y-36141368D01*
X58375499Y-35993927D01*
X58396330Y-35835703D01*
X58386017Y-35757373D01*
X58375499Y-35677479D01*
X58314427Y-35530038D01*
X58314426Y-35530036D01*
X58253624Y-35450797D01*
X58245812Y-35440617D01*
X58225389Y-35382942D01*
X58242767Y-35324276D01*
X58245792Y-35320111D01*
X58314427Y-35230665D01*
X58375499Y-35083224D01*
X58396330Y-34925000D01*
X58386490Y-34850263D01*
X58375499Y-34766776D01*
X58314427Y-34619335D01*
X58314425Y-34619333D01*
X58310374Y-34614054D01*
X58217276Y-34492724D01*
X58216766Y-34492333D01*
X58143855Y-34436387D01*
X58090665Y-34395573D01*
X58090664Y-34395572D01*
X57945107Y-34335281D01*
X57943224Y-34334501D01*
X57943223Y-34334500D01*
X57943224Y-34334500D01*
X57785000Y-34313670D01*
X57626776Y-34334500D01*
X57479335Y-34395572D01*
X57479333Y-34395574D01*
X57352728Y-34492720D01*
X57352720Y-34492728D01*
X57301434Y-34559567D01*
X57251010Y-34594223D01*
X57222892Y-34598300D01*
X57066319Y-34598300D01*
X57062018Y-34598112D01*
X57025397Y-34594908D01*
X57020980Y-34594522D01*
X57020974Y-34594522D01*
X56981201Y-34605179D01*
X56976986Y-34606114D01*
X56936435Y-34613264D01*
X56936425Y-34613268D01*
X56935064Y-34614054D01*
X56911215Y-34623932D01*
X56909701Y-34624337D01*
X56909690Y-34624342D01*
X56875961Y-34647959D01*
X56872321Y-34650278D01*
X56836655Y-34670871D01*
X56810192Y-34702408D01*
X56807274Y-34705592D01*
X55354886Y-36157980D01*
X55351702Y-36160898D01*
X55320165Y-36187361D01*
X55320165Y-36187362D01*
X55299576Y-36223022D01*
X55297256Y-36226663D01*
X55273635Y-36260399D01*
X55273635Y-36260400D01*
X55273230Y-36261912D01*
X55263345Y-36285778D01*
X55262561Y-36287136D01*
X55262559Y-36287139D01*
X55255409Y-36327688D01*
X55254474Y-36331903D01*
X55245594Y-36365045D01*
X55243816Y-36371685D01*
X55247406Y-36412724D01*
X55247594Y-36417025D01*
X55247594Y-37319164D01*
X55247406Y-37323466D01*
X55244251Y-37359524D01*
X55243816Y-37364505D01*
X47072259Y-37364505D01*
X47367435Y-37100151D01*
X47367656Y-37099966D01*
X47367662Y-37099963D01*
X47367666Y-37099957D01*
X47367705Y-37099925D01*
X47367736Y-37099882D01*
X47367742Y-37099878D01*
X47367744Y-37099871D01*
X47367882Y-37099687D01*
X48537194Y-35648149D01*
X48537345Y-35647973D01*
X48537352Y-35647969D01*
X48537355Y-35647961D01*
X48537392Y-35647920D01*
X48537414Y-35647876D01*
X48537418Y-35647873D01*
X48537419Y-35647868D01*
X48537571Y-35647581D01*
X48555036Y-35616780D01*
X49457087Y-34025939D01*
X49457087Y-34025937D01*
X49612987Y-33750993D01*
X49622009Y-33737722D01*
X49622817Y-33736719D01*
X49815271Y-33497814D01*
X49826305Y-33486187D01*
X50055805Y-33280651D01*
X50068578Y-33270956D01*
X50328286Y-33105200D01*
X50342436Y-33097707D01*
X50625519Y-32976095D01*
X50640705Y-32970985D01*
X50939720Y-32896715D01*
X50955534Y-32894127D01*
X51268634Y-32868662D01*
X51272645Y-32868500D01*
X53378725Y-32868500D01*
X53378727Y-32868500D01*
X53480587Y-32841207D01*
X53571913Y-32788480D01*
X53646480Y-32713913D01*
X53699207Y-32622587D01*
X53726500Y-32520727D01*
X53726500Y-32468000D01*
X53726500Y-32467500D01*
X53726500Y-31267951D01*
X53726500Y-31258535D01*
X53726451Y-31258034D01*
X53726456Y-31215327D01*
X53726456Y-31215326D01*
X53699174Y-31113467D01*
X53646457Y-31022142D01*
X53571898Y-30947573D01*
X53480579Y-30894845D01*
X53433074Y-30882115D01*
X53378725Y-30867551D01*
X53378724Y-30867550D01*
X53326099Y-30867550D01*
X52625500Y-30867550D01*
X52567309Y-30848643D01*
X52531345Y-30799143D01*
X52526500Y-30768550D01*
X52526500Y-27597551D01*
X52545407Y-27539360D01*
X52594907Y-27503396D01*
X52625500Y-27498551D01*
X53284944Y-27498551D01*
X53285095Y-27498600D01*
X53326000Y-27498600D01*
X53378731Y-27498600D01*
X53480599Y-27471302D01*
X53571929Y-27418567D01*
X53646497Y-27343990D01*
X53699221Y-27252653D01*
X53726506Y-27150782D01*
X53726500Y-27098051D01*
X53726500Y-27097551D01*
X53726500Y-25898002D01*
X53726500Y-25890028D01*
X53726499Y-25890014D01*
X53726499Y-25845375D01*
X53726499Y-25845374D01*
X53699206Y-25743514D01*
X53674345Y-25700454D01*
X53646479Y-25652188D01*
X53571915Y-25577622D01*
X53531388Y-25554224D01*
X53480587Y-25524894D01*
X53378727Y-25497601D01*
X53378725Y-25497601D01*
X53326099Y-25497601D01*
X51272644Y-25497501D01*
X51268633Y-25497338D01*
X51015186Y-25476724D01*
X50955547Y-25471874D01*
X50939707Y-25469281D01*
X50640713Y-25395016D01*
X50625509Y-25389899D01*
X50342446Y-25268296D01*
X50328277Y-25260793D01*
X50068587Y-25095048D01*
X50068584Y-25095046D01*
X50055799Y-25085343D01*
X49826313Y-24879819D01*
X49815264Y-24868177D01*
X49622009Y-24628277D01*
X49612986Y-24615003D01*
X49456989Y-24339890D01*
X48763505Y-23116872D01*
X48537551Y-22718384D01*
X48537392Y-22718079D01*
X48537157Y-22717805D01*
X48514057Y-22689130D01*
X47375777Y-21276113D01*
X51378500Y-21276113D01*
X51393486Y-21413910D01*
X51423561Y-21503167D01*
X51452555Y-21589219D01*
X51452556Y-21589222D01*
X51547927Y-21747733D01*
X51547931Y-21747737D01*
X51675149Y-21882039D01*
X51675148Y-21882039D01*
X51828267Y-21985857D01*
X51828270Y-21985858D01*
X52000125Y-22054331D01*
X52182683Y-22084260D01*
X52367407Y-22074245D01*
X52545659Y-22024754D01*
X52709104Y-21938100D01*
X52850100Y-21818337D01*
X52903769Y-21747737D01*
X52962052Y-21671067D01*
X52962053Y-21671065D01*
X52962052Y-21671065D01*
X52962054Y-21671064D01*
X52982038Y-21627869D01*
X53378500Y-21627869D01*
X53378501Y-21627872D01*
X53379146Y-21633869D01*
X53384908Y-21687480D01*
X53384909Y-21687485D01*
X53435202Y-21822329D01*
X53479901Y-21882039D01*
X53521454Y-21937546D01*
X53521457Y-21937548D01*
X53521458Y-21937549D01*
X53636670Y-22023797D01*
X53771511Y-22074089D01*
X53771512Y-22074089D01*
X53771517Y-22074091D01*
X53831127Y-22080500D01*
X54626872Y-22080499D01*
X54686483Y-22074091D01*
X54753907Y-22048943D01*
X54821329Y-22023797D01*
X54821329Y-22023796D01*
X54821331Y-22023796D01*
X54936546Y-21937546D01*
X55022796Y-21822331D01*
X55024286Y-21818338D01*
X55073089Y-21687488D01*
X55073090Y-21687485D01*
X55073091Y-21687483D01*
X55079500Y-21627873D01*
X55079500Y-21276113D01*
X58617500Y-21276113D01*
X58632486Y-21413910D01*
X58662561Y-21503167D01*
X58691555Y-21589219D01*
X58691556Y-21589222D01*
X58786927Y-21747733D01*
X58786931Y-21747737D01*
X58914149Y-21882039D01*
X58914148Y-21882039D01*
X59067267Y-21985857D01*
X59067270Y-21985858D01*
X59239125Y-22054331D01*
X59421683Y-22084260D01*
X59606407Y-22074245D01*
X59784659Y-22024754D01*
X59948104Y-21938100D01*
X60089100Y-21818337D01*
X60142769Y-21747737D01*
X60201052Y-21671067D01*
X60201053Y-21671065D01*
X60201052Y-21671065D01*
X60201054Y-21671064D01*
X60221038Y-21627869D01*
X60617500Y-21627869D01*
X60617501Y-21627872D01*
X60618146Y-21633869D01*
X60623908Y-21687480D01*
X60623909Y-21687485D01*
X60674202Y-21822329D01*
X60718901Y-21882039D01*
X60760454Y-21937546D01*
X60760457Y-21937548D01*
X60760458Y-21937549D01*
X60875670Y-22023797D01*
X61010511Y-22074089D01*
X61010512Y-22074089D01*
X61010517Y-22074091D01*
X61070127Y-22080500D01*
X61865872Y-22080499D01*
X61925483Y-22074091D01*
X61992907Y-22048943D01*
X62060329Y-22023797D01*
X62060329Y-22023796D01*
X62060331Y-22023796D01*
X62175546Y-21937546D01*
X62261796Y-21822331D01*
X62263286Y-21818338D01*
X62312089Y-21687488D01*
X62312090Y-21687485D01*
X62312091Y-21687483D01*
X62318500Y-21627873D01*
X62318500Y-21590000D01*
X67038551Y-21590000D01*
X67058316Y-21841146D01*
X67117127Y-22086113D01*
X67213532Y-22318856D01*
X67213535Y-22318862D01*
X67345162Y-22533656D01*
X67345168Y-22533664D01*
X67502748Y-22718167D01*
X67508776Y-22725224D01*
X67700341Y-22888836D01*
X67700343Y-22888837D01*
X67915137Y-23020464D01*
X67915143Y-23020467D01*
X68147887Y-23116872D01*
X68147889Y-23116873D01*
X68392852Y-23175683D01*
X68581118Y-23190500D01*
X68581123Y-23190500D01*
X68706877Y-23190500D01*
X68706882Y-23190500D01*
X68895148Y-23175683D01*
X69140111Y-23116873D01*
X69372859Y-23020466D01*
X69587659Y-22888836D01*
X69779224Y-22725224D01*
X69942836Y-22533659D01*
X70074466Y-22318859D01*
X70170873Y-22086111D01*
X70229683Y-21841148D01*
X70249449Y-21590000D01*
X70229683Y-21338852D01*
X70170873Y-21093889D01*
X70135271Y-21007939D01*
X70074467Y-20861143D01*
X70074464Y-20861137D01*
X69942837Y-20646343D01*
X69942836Y-20646341D01*
X69875449Y-20567441D01*
X69779232Y-20454785D01*
X69779229Y-20454782D01*
X69779224Y-20454776D01*
X69779217Y-20454770D01*
X69779214Y-20454767D01*
X69587664Y-20291168D01*
X69587656Y-20291162D01*
X69372862Y-20159535D01*
X69372856Y-20159532D01*
X69140112Y-20063127D01*
X69140113Y-20063127D01*
X68895146Y-20004316D01*
X68766812Y-19994216D01*
X68706882Y-19989500D01*
X68581118Y-19989500D01*
X68524775Y-19993934D01*
X68392853Y-20004316D01*
X68147886Y-20063127D01*
X67915143Y-20159532D01*
X67915137Y-20159535D01*
X67700343Y-20291162D01*
X67700335Y-20291168D01*
X67508785Y-20454767D01*
X67508767Y-20454785D01*
X67345168Y-20646335D01*
X67345162Y-20646343D01*
X67213535Y-20861137D01*
X67213532Y-20861143D01*
X67117127Y-21093886D01*
X67058316Y-21338853D01*
X67038551Y-21590000D01*
X62318500Y-21590000D01*
X62318499Y-20282128D01*
X62312091Y-20222517D01*
X62289618Y-20162264D01*
X62261797Y-20087670D01*
X62175549Y-19972458D01*
X62175548Y-19972457D01*
X62175546Y-19972454D01*
X62174805Y-19971899D01*
X62060329Y-19886202D01*
X61925488Y-19835910D01*
X61925483Y-19835909D01*
X61925481Y-19835908D01*
X61925477Y-19835908D01*
X61894249Y-19832550D01*
X61865873Y-19829500D01*
X61865870Y-19829500D01*
X61070133Y-19829500D01*
X61070129Y-19829500D01*
X61070128Y-19829501D01*
X61062949Y-19830272D01*
X61010519Y-19835908D01*
X61010514Y-19835909D01*
X60875670Y-19886202D01*
X60760458Y-19972450D01*
X60760450Y-19972458D01*
X60674202Y-20087670D01*
X60623910Y-20222511D01*
X60623908Y-20222522D01*
X60617500Y-20282129D01*
X60617500Y-21627866D01*
X60617500Y-21627869D01*
X60221038Y-21627869D01*
X60278732Y-21503167D01*
X60318500Y-21322497D01*
X60318500Y-20633887D01*
X60303514Y-20496090D01*
X60244444Y-20320779D01*
X60226628Y-20291168D01*
X60149072Y-20162266D01*
X60149068Y-20162262D01*
X60078410Y-20087670D01*
X60021850Y-20027960D01*
X60021851Y-20027960D01*
X59868732Y-19924142D01*
X59696875Y-19855669D01*
X59514317Y-19825740D01*
X59514316Y-19825740D01*
X59468136Y-19828243D01*
X59329593Y-19835755D01*
X59151341Y-19885246D01*
X59151340Y-19885246D01*
X59151338Y-19885247D01*
X59151332Y-19885250D01*
X58987896Y-19971899D01*
X58987895Y-19971900D01*
X58846901Y-20091661D01*
X58846896Y-20091666D01*
X58734947Y-20238932D01*
X58734946Y-20238934D01*
X58657269Y-20406829D01*
X58657268Y-20406831D01*
X58646717Y-20454767D01*
X58617500Y-20587503D01*
X58617500Y-21276113D01*
X55079500Y-21276113D01*
X55079499Y-20282128D01*
X55073091Y-20222517D01*
X55050618Y-20162264D01*
X55022797Y-20087670D01*
X54936549Y-19972458D01*
X54936548Y-19972457D01*
X54936546Y-19972454D01*
X54935805Y-19971899D01*
X54821329Y-19886202D01*
X54686488Y-19835910D01*
X54686483Y-19835909D01*
X54686481Y-19835908D01*
X54686477Y-19835908D01*
X54655249Y-19832550D01*
X54626873Y-19829500D01*
X54626870Y-19829500D01*
X53831133Y-19829500D01*
X53831129Y-19829500D01*
X53831128Y-19829501D01*
X53823949Y-19830272D01*
X53771519Y-19835908D01*
X53771514Y-19835909D01*
X53636670Y-19886202D01*
X53521458Y-19972450D01*
X53521450Y-19972458D01*
X53435202Y-20087670D01*
X53384910Y-20222511D01*
X53384908Y-20222522D01*
X53378500Y-20282129D01*
X53378500Y-21627866D01*
X53378500Y-21627869D01*
X52982038Y-21627869D01*
X53039732Y-21503167D01*
X53079500Y-21322497D01*
X53079500Y-20633887D01*
X53064514Y-20496090D01*
X53005444Y-20320779D01*
X52987628Y-20291168D01*
X52910072Y-20162266D01*
X52910068Y-20162262D01*
X52839410Y-20087670D01*
X52782850Y-20027960D01*
X52782851Y-20027960D01*
X52629732Y-19924142D01*
X52457875Y-19855669D01*
X52275317Y-19825740D01*
X52275316Y-19825740D01*
X52229136Y-19828243D01*
X52090593Y-19835755D01*
X51912341Y-19885246D01*
X51912340Y-19885246D01*
X51912338Y-19885247D01*
X51912332Y-19885250D01*
X51748896Y-19971899D01*
X51748895Y-19971900D01*
X51607901Y-20091661D01*
X51607896Y-20091666D01*
X51495947Y-20238932D01*
X51495946Y-20238934D01*
X51418269Y-20406829D01*
X51418268Y-20406831D01*
X51407717Y-20454767D01*
X51378500Y-20587503D01*
X51378500Y-21276113D01*
X47375777Y-21276113D01*
X47367878Y-21266307D01*
X47367707Y-21266076D01*
X47367404Y-21265820D01*
X45978976Y-20022372D01*
X45978765Y-20022168D01*
X45978402Y-20021950D01*
X44407283Y-19019200D01*
X44407065Y-19019047D01*
X44406725Y-19018915D01*
X42694250Y-18283238D01*
X42693942Y-18283092D01*
X42693615Y-18283022D01*
X40884709Y-17833721D01*
X40884390Y-17833631D01*
X40884022Y-17833613D01*
X39026322Y-17682525D01*
X39025999Y-17682487D01*
X39025637Y-17682528D01*
X37167928Y-17833617D01*
X37167609Y-17833631D01*
X37167261Y-17833728D01*
X35358369Y-18283025D01*
X35358064Y-18283089D01*
X35357772Y-18283227D01*
X33645264Y-19018920D01*
X33644934Y-19019048D01*
X33644668Y-19019230D01*
X32073576Y-20021962D01*
X32073238Y-20022164D01*
X32073000Y-20022392D01*
X30684582Y-21265830D01*
X30684290Y-21266076D01*
X30684101Y-21266329D01*
X29514815Y-22717837D01*
X29514610Y-22718071D01*
X29514469Y-22718343D01*
X28595010Y-24339890D01*
X28439012Y-24615003D01*
X28429989Y-24628277D01*
X28236734Y-24868176D01*
X28225685Y-24879818D01*
X27996196Y-25085345D01*
X27983411Y-25095048D01*
X27723733Y-25260786D01*
X27709548Y-25268297D01*
X27426490Y-25389898D01*
X27411278Y-25395017D01*
X27112290Y-25469281D01*
X27096450Y-25471874D01*
X26871057Y-25490205D01*
X26783365Y-25497338D01*
X26783340Y-25497340D01*
X26779378Y-25497503D01*
X24731540Y-25499700D01*
X24726000Y-25499700D01*
X24673273Y-25499700D01*
X24571411Y-25526994D01*
X24571410Y-25526994D01*
X24571408Y-25526995D01*
X24480086Y-25579721D01*
X24480085Y-25579721D01*
X24405517Y-25654290D01*
X24405513Y-25654294D01*
X24352793Y-25745614D01*
X24352788Y-25745624D01*
X24325499Y-25847479D01*
X24325499Y-25847480D01*
X24325500Y-25900207D01*
X24325500Y-27056895D01*
X24325445Y-27057064D01*
X17526500Y-27057064D01*
X17526500Y-21843998D01*
X17535503Y-21626314D01*
X17538665Y-21553898D01*
X20710449Y-21553898D01*
X20730214Y-21805044D01*
X20789025Y-22050011D01*
X20885430Y-22282754D01*
X20885433Y-22282760D01*
X20907555Y-22318859D01*
X21017062Y-22497557D01*
X21180674Y-22689122D01*
X21180680Y-22689127D01*
X21180683Y-22689130D01*
X21222932Y-22725214D01*
X21372239Y-22852734D01*
X21372241Y-22852735D01*
X21587035Y-22984362D01*
X21587041Y-22984365D01*
X21819785Y-23080770D01*
X21819787Y-23080771D01*
X22064750Y-23139581D01*
X22253016Y-23154398D01*
X22253021Y-23154398D01*
X22378775Y-23154398D01*
X22378780Y-23154398D01*
X22567046Y-23139581D01*
X22812009Y-23080771D01*
X23044757Y-22984364D01*
X23259557Y-22852734D01*
X23451122Y-22689122D01*
X23614734Y-22497557D01*
X23746364Y-22282757D01*
X23842771Y-22050009D01*
X23901581Y-21805046D01*
X23921347Y-21553898D01*
X23901581Y-21302750D01*
X23842771Y-21057787D01*
X23822123Y-21007939D01*
X23746365Y-20825041D01*
X23746362Y-20825035D01*
X23636854Y-20646335D01*
X23614734Y-20610239D01*
X23578181Y-20567441D01*
X23451130Y-20418683D01*
X23451127Y-20418680D01*
X23451122Y-20418674D01*
X23451115Y-20418668D01*
X23451112Y-20418665D01*
X23259562Y-20255066D01*
X23259554Y-20255060D01*
X23044760Y-20123433D01*
X23044754Y-20123430D01*
X22812010Y-20027025D01*
X22812011Y-20027025D01*
X22567044Y-19968214D01*
X22438710Y-19958114D01*
X22378780Y-19953398D01*
X22253016Y-19953398D01*
X22196673Y-19957832D01*
X22064751Y-19968214D01*
X21819784Y-20027025D01*
X21587041Y-20123430D01*
X21587035Y-20123433D01*
X21372241Y-20255060D01*
X21372233Y-20255066D01*
X21180683Y-20418665D01*
X21180665Y-20418683D01*
X21017066Y-20610233D01*
X21017060Y-20610241D01*
X20885433Y-20825035D01*
X20885430Y-20825041D01*
X20789025Y-21057784D01*
X20730214Y-21302751D01*
X20710449Y-21553898D01*
X17538665Y-21553898D01*
X17544479Y-21420757D01*
X17544807Y-21416850D01*
X17572056Y-21198247D01*
X17590549Y-21057784D01*
X17599117Y-20992704D01*
X17599741Y-20989036D01*
X17644903Y-20773651D01*
X17644910Y-20773622D01*
X17689871Y-20570811D01*
X17690733Y-20567487D01*
X17753535Y-20356541D01*
X17764811Y-20320780D01*
X17816071Y-20158202D01*
X17817117Y-20155231D01*
X17897166Y-19950082D01*
X17976791Y-19757852D01*
X17978017Y-19755132D01*
X18074759Y-19557243D01*
X18170892Y-19372576D01*
X18172239Y-19370161D01*
X18285020Y-19180889D01*
X18396952Y-19005192D01*
X18398368Y-19003092D01*
X18526462Y-18823686D01*
X18653368Y-18658300D01*
X18654808Y-18656514D01*
X18797331Y-18488237D01*
X18938951Y-18333686D01*
X19095688Y-18176950D01*
X19250239Y-18035330D01*
X19418514Y-17892808D01*
X19420300Y-17891368D01*
X19585670Y-17764473D01*
X19765092Y-17636368D01*
X19767192Y-17634952D01*
X19942889Y-17523020D01*
X20132161Y-17410239D01*
X20134576Y-17408892D01*
X20319243Y-17312759D01*
X20517132Y-17216017D01*
X20519852Y-17214791D01*
X20712059Y-17135175D01*
X20917231Y-17055117D01*
X20920202Y-17054071D01*
X21118496Y-16991548D01*
X21329487Y-16928733D01*
X21332811Y-16927871D01*
X21535583Y-16882917D01*
X21751036Y-16837741D01*
X21754704Y-16837117D01*
X21960278Y-16810052D01*
X22178850Y-16782807D01*
X22182757Y-16782479D01*
X22388456Y-16773497D01*
X22606000Y-16764500D01*
X22606500Y-16764500D01*
X22647500Y-16764500D01*
X22647504Y-16764498D01*
X69353898Y-16764498D01*
X69571422Y-16773494D01*
G37*
%TD.AperFunction*%
%TD*%
M02*
