%TF.GenerationSoftware,KiCad,Pcbnew,7.0.9*%
%TF.CreationDate,2024-01-02T07:57:40-07:00*%
%TF.ProjectId,ElephantR9,456c6570-6861-46e7-9452-392e6b696361,rev?*%
%TF.SameCoordinates,Original*%
%TF.FileFunction,Profile,NP*%
%FSLAX46Y46*%
G04 Gerber Fmt 4.6, Leading zero omitted, Abs format (unit mm)*
G04 Created by KiCad (PCBNEW 7.0.9) date 2024-01-02 07:57:40*
%MOMM*%
%LPD*%
G01*
G04 APERTURE LIST*
%TA.AperFunction,Profile*%
%ADD10C,0.100000*%
%TD*%
G04 APERTURE END LIST*
D10*
X26670000Y-58674000D02*
G75*
G03*
X22606000Y-58674000I-2032000J0D01*
G01*
X17526000Y-53594000D02*
X17526000Y-21844000D01*
X82042000Y-27940000D02*
X74930139Y-27940000D01*
X74433898Y-27432000D02*
G75*
G03*
X74930139Y-27940000I-11898J-508000D01*
G01*
X22606000Y-16764000D02*
G75*
G03*
X17526000Y-21844000I0J-5080000D01*
G01*
X69353898Y-58673998D02*
G75*
G03*
X74433898Y-53594002I2J5079998D01*
G01*
X22606000Y-16764000D02*
X69353898Y-16763998D01*
X17526000Y-53594000D02*
G75*
G03*
X22606000Y-58674000I5080000J0D01*
G01*
X82042000Y-53340000D02*
X82042000Y-27940000D01*
X74433902Y-21843998D02*
G75*
G03*
X69353898Y-16763998I-5080002J-2D01*
G01*
X74433898Y-53340000D02*
X82042000Y-53340000D01*
X74433898Y-21843998D02*
X74433898Y-27432000D01*
X69353898Y-58674002D02*
X26670000Y-58674000D01*
X74433898Y-53594002D02*
X74433898Y-53340000D01*
%TO.C,BT2*%
X53726000Y-31268050D02*
X53726000Y-32468000D01*
X53726000Y-25898101D02*
X53726000Y-27098051D01*
X53326000Y-32868000D02*
X51270621Y-32868000D01*
X53326000Y-27498051D02*
X52526000Y-27498051D01*
X52526000Y-30868050D02*
X53326000Y-30868050D01*
X52526000Y-27498051D02*
X52526000Y-30868050D01*
X51270621Y-32868000D02*
X50947437Y-32894285D01*
X51270621Y-25498001D02*
X53326000Y-25498101D01*
X50947437Y-32894285D02*
X50632747Y-32972448D01*
X50947437Y-25471716D02*
X51270621Y-25498001D01*
X50632747Y-32972448D02*
X50334824Y-33100435D01*
X50632747Y-25393553D02*
X50947437Y-25471716D01*
X50334824Y-33100435D02*
X50061498Y-33274883D01*
X50334824Y-25265566D02*
X50632747Y-25393553D01*
X50061498Y-33274883D02*
X49819954Y-33491205D01*
X50061498Y-25091118D02*
X50334824Y-25265566D01*
X49819954Y-33491205D02*
X49616540Y-33743716D01*
X49819954Y-24874796D02*
X50061498Y-25091118D01*
X49616540Y-33743716D02*
X49456603Y-34025778D01*
X49616540Y-24622285D02*
X49819954Y-24874796D01*
X49456603Y-34025778D02*
X48536966Y-35647636D01*
X49456603Y-24340223D02*
X49616540Y-24622285D01*
X48536966Y-35647636D02*
X47367335Y-37099572D01*
X48536966Y-22718365D02*
X49456603Y-24340223D01*
X47367335Y-37099572D02*
X45978454Y-38343424D01*
X47367335Y-21266429D02*
X48536966Y-22718365D01*
X45978454Y-38343424D02*
X44406830Y-39346496D01*
X45978454Y-20022577D02*
X47367335Y-21266429D01*
X44406830Y-39346496D02*
X42693773Y-40082424D01*
X44406830Y-19019505D02*
X45978454Y-20022577D01*
X42693773Y-40082424D02*
X40884308Y-40531863D01*
X42693773Y-18283577D02*
X44406830Y-19019505D01*
X40884308Y-40531863D02*
X39026000Y-40683000D01*
X40884308Y-17834138D02*
X42693773Y-18283577D01*
X39026000Y-40683000D02*
X37167691Y-40531863D01*
X39026000Y-17683001D02*
X40884308Y-17834138D01*
X37167691Y-40531863D02*
X35358226Y-40082424D01*
X37167691Y-17834138D02*
X39026000Y-17683001D01*
X35358226Y-40082424D02*
X33645169Y-39346496D01*
X35358226Y-18283577D02*
X37167691Y-17834138D01*
X33645169Y-39346496D02*
X32073545Y-38343424D01*
X33645169Y-19019505D02*
X35358226Y-18283577D01*
X32073545Y-38343424D02*
X30684664Y-37099572D01*
X32073545Y-20022577D02*
X33645169Y-19019505D01*
X30684664Y-37099572D02*
X29515033Y-35647636D01*
X30684664Y-21266429D02*
X32073545Y-20022577D01*
X29515033Y-35647636D02*
X28595396Y-34025778D01*
X29515033Y-22718365D02*
X30684664Y-21266429D01*
X28595396Y-34025778D02*
X28435459Y-33743716D01*
X28595396Y-24340223D02*
X29515033Y-22718365D01*
X28435459Y-33743716D02*
X28232045Y-33491205D01*
X28435459Y-24622285D02*
X28595396Y-24340223D01*
X28232045Y-33491205D02*
X27990501Y-33274883D01*
X28232045Y-24874796D02*
X28435459Y-24622285D01*
X27990501Y-33274883D02*
X27717175Y-33100435D01*
X27990501Y-25091118D02*
X28232045Y-24874796D01*
X27717175Y-33100435D02*
X27419252Y-32972448D01*
X27717175Y-25265566D02*
X27990501Y-25091118D01*
X27419252Y-32972448D02*
X27104562Y-32894285D01*
X27419252Y-25393553D02*
X27717175Y-25265566D01*
X27104562Y-32894285D02*
X26781378Y-32868000D01*
X27104562Y-25471716D02*
X27419252Y-25393553D01*
X26781378Y-32868000D02*
X24726000Y-32868000D01*
X26781378Y-25498001D02*
X27104562Y-25471716D01*
X25526000Y-30868050D02*
X25526000Y-27498051D01*
X25526000Y-27498051D02*
X24726000Y-27497950D01*
X24726000Y-30868050D02*
X25526000Y-30868050D01*
X24726000Y-25500207D02*
X26781378Y-25498001D01*
X24326000Y-32468000D02*
X24326000Y-31268050D01*
X24326000Y-27100157D02*
X24326000Y-25900207D01*
X53326000Y-32868000D02*
G75*
G03*
X53726000Y-32468000I1J399999D01*
G01*
X53326000Y-27498051D02*
G75*
G03*
X53726000Y-27098051I1J399999D01*
G01*
X53726000Y-31268050D02*
G75*
G03*
X53326000Y-30868050I-399999J1D01*
G01*
X53726000Y-25898101D02*
G75*
G03*
X53326000Y-25498101I-399999J1D01*
G01*
X24326000Y-32468000D02*
G75*
G03*
X24726000Y-32868000I400000J0D01*
G01*
X24326050Y-27097950D02*
G75*
G03*
X24726000Y-27497950I399950J-50D01*
G01*
X24726000Y-30868050D02*
G75*
G03*
X24326000Y-31268050I0J-400000D01*
G01*
X24726000Y-25500200D02*
G75*
G03*
X24326000Y-25900207I0J-400000D01*
G01*
%TD*%
M02*
