%TF.GenerationSoftware,KiCad,Pcbnew,7.0.9*%
%TF.CreationDate,2023-12-30T14:39:05-07:00*%
%TF.ProjectId,ElephantR9,456c6570-6861-46e7-9452-392e6b696361,rev?*%
%TF.SameCoordinates,Original*%
%TF.FileFunction,Soldermask,Top*%
%TF.FilePolarity,Negative*%
%FSLAX46Y46*%
G04 Gerber Fmt 4.6, Leading zero omitted, Abs format (unit mm)*
G04 Created by KiCad (PCBNEW 7.0.9) date 2023-12-30 14:39:05*
%MOMM*%
%LPD*%
G01*
G04 APERTURE LIST*
G04 Aperture macros list*
%AMRoundRect*
0 Rectangle with rounded corners*
0 $1 Rounding radius*
0 $2 $3 $4 $5 $6 $7 $8 $9 X,Y pos of 4 corners*
0 Add a 4 corners polygon primitive as box body*
4,1,4,$2,$3,$4,$5,$6,$7,$8,$9,$2,$3,0*
0 Add four circle primitives for the rounded corners*
1,1,$1+$1,$2,$3*
1,1,$1+$1,$4,$5*
1,1,$1+$1,$6,$7*
1,1,$1+$1,$8,$9*
0 Add four rect primitives between the rounded corners*
20,1,$1+$1,$2,$3,$4,$5,0*
20,1,$1+$1,$4,$5,$6,$7,0*
20,1,$1+$1,$6,$7,$8,$9,0*
20,1,$1+$1,$8,$9,$2,$3,0*%
%AMFreePoly0*
4,1,32,0.200000,1.710000,0.217978,1.702552,0.236753,1.697426,0.376386,1.589219,0.526381,1.504463,0.687059,1.442253,0.855037,1.403901,1.028740,1.390056,1.444035,1.390057,1.486461,1.372483,1.504035,1.330057,1.504034,-1.539942,1.486463,-1.582365,1.486460,-1.582365,1.486460,-1.582368,1.464626,-1.591411,1.444038,-1.599942,1.046227,-1.599966,0.870517,-1.612848,0.700699,-1.650739,
0.538233,-1.712989,0.386579,-1.798267,0.245504,-1.907443,0.226743,-1.912552,0.208783,-1.919992,-1.650000,-1.919992,-1.692426,-1.902418,-1.710000,-1.859992,-1.710000,1.650007,-1.692426,1.692433,-1.650000,1.710007,0.200000,1.710000,0.200000,1.710000,$1*%
G04 Aperture macros list end*
%ADD10C,1.000000*%
%ADD11RoundRect,0.325000X-0.325000X-0.825000X0.325000X-0.825000X0.325000X0.825000X-0.325000X0.825000X0*%
%ADD12RoundRect,0.062500X-0.350000X-0.062500X0.350000X-0.062500X0.350000X0.062500X-0.350000X0.062500X0*%
%ADD13RoundRect,0.062500X-0.062500X-0.350000X0.062500X-0.350000X0.062500X0.350000X-0.062500X0.350000X0*%
%ADD14R,2.500000X2.500000*%
%ADD15RoundRect,0.100000X-0.130000X-0.100000X0.130000X-0.100000X0.130000X0.100000X-0.130000X0.100000X0*%
%ADD16O,1.750000X1.200000*%
%ADD17RoundRect,0.250000X0.625000X-0.350000X0.625000X0.350000X-0.625000X0.350000X-0.625000X-0.350000X0*%
%ADD18RoundRect,0.100000X-0.637500X-0.100000X0.637500X-0.100000X0.637500X0.100000X-0.637500X0.100000X0*%
%ADD19C,2.700000*%
%ADD20RoundRect,0.147500X-0.147500X-0.172500X0.147500X-0.172500X0.147500X0.172500X-0.147500X0.172500X0*%
%ADD21RoundRect,0.225000X-0.225000X-0.250000X0.225000X-0.250000X0.225000X0.250000X-0.225000X0.250000X0*%
%ADD22RoundRect,0.062500X-0.375000X-0.062500X0.375000X-0.062500X0.375000X0.062500X-0.375000X0.062500X0*%
%ADD23RoundRect,0.062500X-0.062500X-0.375000X0.062500X-0.375000X0.062500X0.375000X-0.062500X0.375000X0*%
%ADD24R,5.600000X5.600000*%
%ADD25RoundRect,0.375000X-0.375000X-0.925000X0.375000X-0.925000X0.375000X0.925000X-0.375000X0.925000X0*%
%ADD26R,8.200000X2.600000*%
%ADD27R,1.700000X1.700000*%
%ADD28O,1.700000X1.700000*%
%ADD29RoundRect,0.200000X-0.200000X-0.275000X0.200000X-0.275000X0.200000X0.275000X-0.200000X0.275000X0*%
%ADD30R,1.200000X1.400000*%
%ADD31FreePoly0,180.000000*%
%ADD32FreePoly0,0.000000*%
%ADD33RoundRect,0.250000X0.350000X0.625000X-0.350000X0.625000X-0.350000X-0.625000X0.350000X-0.625000X0*%
%ADD34O,1.200000X1.750000*%
%ADD35RoundRect,0.218750X-0.218750X-0.256250X0.218750X-0.256250X0.218750X0.256250X-0.218750X0.256250X0*%
%ADD36R,1.900000X1.300000*%
%ADD37R,0.800000X0.600000*%
%ADD38R,0.700000X1.000000*%
%ADD39R,0.250000X0.700000*%
%ADD40R,0.700000X0.250000*%
%ADD41R,0.400000X0.220000*%
%ADD42R,0.356000X0.220000*%
G04 APERTURE END LIST*
D10*
%TO.C,REF\u002A\u002A12*%
X74422000Y-52324000D03*
%TD*%
%TO.C,REF\u002A\u002A11*%
X74422000Y-50292000D03*
%TD*%
%TO.C,REF\u002A\u002A10*%
X74422000Y-48260000D03*
%TD*%
%TO.C,REF\u002A\u002A9*%
X74422000Y-46228000D03*
%TD*%
%TO.C,REF\u002A\u002A8*%
X74422000Y-44196000D03*
%TD*%
%TO.C,REF\u002A\u002A7*%
X74422000Y-42164000D03*
%TD*%
%TO.C,REF\u002A\u002A6*%
X74422000Y-40132000D03*
%TD*%
%TO.C,REF\u002A\u002A5*%
X74422000Y-38100000D03*
%TD*%
%TO.C,REF\u002A\u002A4*%
X74422000Y-36068000D03*
%TD*%
%TO.C,REF\u002A\u002A3*%
X74422000Y-34036000D03*
%TD*%
%TO.C,REF\u002A\u002A2*%
X74422000Y-32004000D03*
%TD*%
%TO.C,REF\u002A\u002A1*%
X74422000Y-29972000D03*
%TD*%
%TO.C,REF\u002A\u002A*%
X74422000Y-27940000D03*
%TD*%
D11*
%TO.C,C10*%
X62253200Y-51257200D03*
X65153200Y-51257200D03*
%TD*%
D12*
%TO.C,U3*%
X60579000Y-34417000D03*
X60579000Y-34917000D03*
X60579000Y-35417000D03*
X60579000Y-35917000D03*
X60579000Y-36417000D03*
D13*
X61516500Y-37354500D03*
X62016500Y-37354500D03*
X62516500Y-37354500D03*
X63016500Y-37354500D03*
X63516500Y-37354500D03*
D12*
X64454000Y-36417000D03*
X64454000Y-35917000D03*
X64454000Y-35417000D03*
X64454000Y-34917000D03*
X64454000Y-34417000D03*
D13*
X63516500Y-33479500D03*
X63016500Y-33479500D03*
X62516500Y-33479500D03*
X62016500Y-33479500D03*
X61516500Y-33479500D03*
D14*
X62516500Y-35417000D03*
%TD*%
D15*
%TO.C,C18*%
X57991000Y-32385000D03*
X57351000Y-32385000D03*
%TD*%
%TO.C,C16*%
X65865000Y-31242000D03*
X65225000Y-31242000D03*
%TD*%
%TO.C,C15*%
X38814000Y-50165000D03*
X38174000Y-50165000D03*
%TD*%
%TO.C,C13*%
X42460898Y-45653898D03*
X41820898Y-45653898D03*
%TD*%
%TO.C,C12*%
X42460898Y-42889898D03*
X41820898Y-42889898D03*
%TD*%
%TO.C,C11*%
X65865000Y-26162000D03*
X65225000Y-26162000D03*
%TD*%
%TO.C,C9*%
X52530000Y-40513000D03*
X51890000Y-40513000D03*
%TD*%
%TO.C,C8*%
X52530000Y-37719000D03*
X51890000Y-37719000D03*
%TD*%
%TO.C,C7*%
X65865000Y-28321000D03*
X65225000Y-28321000D03*
%TD*%
%TO.C,C6*%
X59108000Y-28194000D03*
X58468000Y-28194000D03*
%TD*%
%TO.C,C5*%
X59108000Y-26162000D03*
X58468000Y-26162000D03*
%TD*%
D16*
%TO.C,J2*%
X78359000Y-30608000D03*
X78359000Y-32608000D03*
X78359000Y-34608000D03*
X78359000Y-36608000D03*
D17*
X78359000Y-38608000D03*
%TD*%
%TO.C,J1*%
X78359000Y-50244000D03*
D16*
X78359000Y-48244000D03*
X78359000Y-46244000D03*
X78359000Y-44244000D03*
%TD*%
D18*
%TO.C,U4*%
X58554700Y-53635000D03*
X58554700Y-54285000D03*
X58554700Y-54935000D03*
X58554700Y-55585000D03*
X64279700Y-55585000D03*
X64279700Y-54935000D03*
X64279700Y-54285000D03*
X64279700Y-53635000D03*
%TD*%
D19*
%TO.C,H3*%
X68644000Y-53848000D03*
%TD*%
D20*
%TO.C,FB4*%
X68199000Y-28025000D03*
X69169000Y-28025000D03*
%TD*%
%TO.C,FB3*%
X68199000Y-26035000D03*
X69169000Y-26035000D03*
%TD*%
%TO.C,FB2*%
X61514000Y-27940000D03*
X62484000Y-27940000D03*
%TD*%
%TO.C,FB1*%
X62484000Y-25950000D03*
X61514000Y-25950000D03*
%TD*%
D21*
%TO.C,C17*%
X70511000Y-32258000D03*
X68961000Y-32258000D03*
%TD*%
D22*
%TO.C,U5*%
X56462500Y-42089500D03*
X56462500Y-42589500D03*
X56462500Y-43089500D03*
X56462500Y-43589500D03*
X56462500Y-44089500D03*
X56462500Y-44589500D03*
X56462500Y-45089500D03*
X56462500Y-45589500D03*
X56462500Y-46089500D03*
X56462500Y-46589500D03*
X56462500Y-47089500D03*
X56462500Y-47589500D03*
D23*
X57150000Y-48277000D03*
X57650000Y-48277000D03*
X58150000Y-48277000D03*
X58650000Y-48277000D03*
X59150000Y-48277000D03*
X59650000Y-48277000D03*
X60150000Y-48277000D03*
X60650000Y-48277000D03*
X61150000Y-48277000D03*
X61650000Y-48277000D03*
X62150000Y-48277000D03*
X62650000Y-48277000D03*
D22*
X63337500Y-47589500D03*
X63337500Y-47089500D03*
X63337500Y-46589500D03*
X63337500Y-46089500D03*
X63337500Y-45589500D03*
X63337500Y-45089500D03*
X63337500Y-44589500D03*
X63337500Y-44089500D03*
X63337500Y-43589500D03*
X63337500Y-43089500D03*
X63337500Y-42589500D03*
X63337500Y-42089500D03*
D23*
X62650000Y-41402000D03*
X62150000Y-41402000D03*
X61650000Y-41402000D03*
X61150000Y-41402000D03*
X60650000Y-41402000D03*
X60150000Y-41402000D03*
X59650000Y-41402000D03*
X59150000Y-41402000D03*
X58650000Y-41402000D03*
X58150000Y-41402000D03*
X57650000Y-41402000D03*
X57150000Y-41402000D03*
D24*
X59900000Y-44839500D03*
%TD*%
D25*
%TO.C,C3*%
X20193000Y-35941000D03*
X26193000Y-35941000D03*
%TD*%
D21*
%TO.C,C14*%
X38050898Y-45810898D03*
X39600898Y-45810898D03*
%TD*%
%TO.C,C2*%
X29083000Y-48502000D03*
X30633000Y-48502000D03*
%TD*%
D26*
%TO.C,L1*%
X24892000Y-45720000D03*
X24892000Y-40120000D03*
%TD*%
D27*
%TO.C,SW1*%
X45593000Y-55372000D03*
D28*
X45593000Y-52832000D03*
%TD*%
D29*
%TO.C,R7*%
X41315898Y-52541898D03*
X42965898Y-52541898D03*
%TD*%
D21*
%TO.C,C4*%
X37719000Y-42914000D03*
X39269000Y-42914000D03*
%TD*%
D19*
%TO.C,H1*%
X22315898Y-21553898D03*
%TD*%
%TO.C,H2*%
X68644000Y-21590000D03*
%TD*%
D30*
%TO.C,Y2*%
X44540898Y-43102898D03*
X44540898Y-45302898D03*
X46240898Y-45302898D03*
X46240898Y-43102898D03*
%TD*%
D31*
%TO.C,BT2*%
X54176000Y-29283000D03*
D32*
X23876000Y-29083000D03*
%TD*%
D33*
%TO.C,LS2*%
X61468000Y-20955000D03*
D34*
X59468000Y-20955000D03*
%TD*%
D19*
%TO.C,H4*%
X31713898Y-53811898D03*
%TD*%
D35*
%TO.C,D3*%
X41393398Y-55589898D03*
X42968398Y-55589898D03*
%TD*%
D29*
%TO.C,R1*%
X37047898Y-54573898D03*
X38697898Y-54573898D03*
%TD*%
D34*
%TO.C,LS1*%
X52229000Y-20955000D03*
D33*
X54229000Y-20955000D03*
%TD*%
D36*
%TO.C,Y1*%
X49378000Y-43053000D03*
X49378000Y-48553000D03*
X52578000Y-48553000D03*
X52578000Y-43053000D03*
%TD*%
D29*
%TO.C,R4*%
X41301796Y-48561040D03*
X42951796Y-48561040D03*
%TD*%
D10*
%TO.C,TP2*%
X19050000Y-31750000D03*
%TD*%
D33*
%TO.C,BT1*%
X25363898Y-51525898D03*
D34*
X23363898Y-51525898D03*
%TD*%
D29*
%TO.C,R8*%
X35270898Y-52287898D03*
X36920898Y-52287898D03*
%TD*%
D10*
%TO.C,TP1*%
X18923000Y-40005000D03*
%TD*%
D37*
%TO.C,R2*%
X53023000Y-51039000D03*
D38*
X50673000Y-51689000D03*
D37*
X53023000Y-52339000D03*
%TD*%
D21*
%TO.C,C1*%
X30340000Y-44577000D03*
X31890000Y-44577000D03*
%TD*%
D39*
%TO.C,U1*%
X35179000Y-46299000D03*
X34679000Y-46299000D03*
X34179000Y-46299000D03*
X33679000Y-46299000D03*
X32679000Y-46299000D03*
D40*
X32004000Y-46974000D03*
X32004000Y-47474000D03*
X32004000Y-47974000D03*
X32004000Y-48474000D03*
D39*
X32679000Y-49149000D03*
X33679000Y-49149000D03*
X34179000Y-49149000D03*
X34679000Y-49149000D03*
X35179000Y-49149000D03*
D40*
X35854000Y-48474000D03*
X35854000Y-47974000D03*
X35854000Y-47474000D03*
X35854000Y-46974000D03*
D41*
X33054000Y-47724000D03*
D42*
X33624000Y-47724000D03*
%TD*%
M02*
