%TF.GenerationSoftware,KiCad,Pcbnew,7.0.9*%
%TF.CreationDate,2023-12-30T14:39:04-07:00*%
%TF.ProjectId,ElephantR9,456c6570-6861-46e7-9452-392e6b696361,rev?*%
%TF.SameCoordinates,Original*%
%TF.FileFunction,Legend,Top*%
%TF.FilePolarity,Positive*%
%FSLAX46Y46*%
G04 Gerber Fmt 4.6, Leading zero omitted, Abs format (unit mm)*
G04 Created by KiCad (PCBNEW 7.0.9) date 2023-12-30 14:39:04*
%MOMM*%
%LPD*%
G01*
G04 APERTURE LIST*
%ADD10C,0.100000*%
%ADD11C,0.150000*%
%ADD12C,0.120000*%
G04 APERTURE END LIST*
D10*
X65473342Y-49511180D02*
X65425723Y-49558800D01*
X65425723Y-49558800D02*
X65282866Y-49606419D01*
X65282866Y-49606419D02*
X65187628Y-49606419D01*
X65187628Y-49606419D02*
X65044771Y-49558800D01*
X65044771Y-49558800D02*
X64949533Y-49463561D01*
X64949533Y-49463561D02*
X64901914Y-49368323D01*
X64901914Y-49368323D02*
X64854295Y-49177847D01*
X64854295Y-49177847D02*
X64854295Y-49034990D01*
X64854295Y-49034990D02*
X64901914Y-48844514D01*
X64901914Y-48844514D02*
X64949533Y-48749276D01*
X64949533Y-48749276D02*
X65044771Y-48654038D01*
X65044771Y-48654038D02*
X65187628Y-48606419D01*
X65187628Y-48606419D02*
X65282866Y-48606419D01*
X65282866Y-48606419D02*
X65425723Y-48654038D01*
X65425723Y-48654038D02*
X65473342Y-48701657D01*
X66425723Y-49606419D02*
X65854295Y-49606419D01*
X66140009Y-49606419D02*
X66140009Y-48606419D01*
X66140009Y-48606419D02*
X66044771Y-48749276D01*
X66044771Y-48749276D02*
X65949533Y-48844514D01*
X65949533Y-48844514D02*
X65854295Y-48892133D01*
X67044771Y-48606419D02*
X67140009Y-48606419D01*
X67140009Y-48606419D02*
X67235247Y-48654038D01*
X67235247Y-48654038D02*
X67282866Y-48701657D01*
X67282866Y-48701657D02*
X67330485Y-48796895D01*
X67330485Y-48796895D02*
X67378104Y-48987371D01*
X67378104Y-48987371D02*
X67378104Y-49225466D01*
X67378104Y-49225466D02*
X67330485Y-49415942D01*
X67330485Y-49415942D02*
X67282866Y-49511180D01*
X67282866Y-49511180D02*
X67235247Y-49558800D01*
X67235247Y-49558800D02*
X67140009Y-49606419D01*
X67140009Y-49606419D02*
X67044771Y-49606419D01*
X67044771Y-49606419D02*
X66949533Y-49558800D01*
X66949533Y-49558800D02*
X66901914Y-49511180D01*
X66901914Y-49511180D02*
X66854295Y-49415942D01*
X66854295Y-49415942D02*
X66806676Y-49225466D01*
X66806676Y-49225466D02*
X66806676Y-48987371D01*
X66806676Y-48987371D02*
X66854295Y-48796895D01*
X66854295Y-48796895D02*
X66901914Y-48701657D01*
X66901914Y-48701657D02*
X66949533Y-48654038D01*
X66949533Y-48654038D02*
X67044771Y-48606419D01*
X60832084Y-49478666D02*
X61593989Y-49478666D01*
X61213036Y-49859619D02*
X61213036Y-49097714D01*
D11*
X60071095Y-31458819D02*
X60071095Y-32268342D01*
X60071095Y-32268342D02*
X60118714Y-32363580D01*
X60118714Y-32363580D02*
X60166333Y-32411200D01*
X60166333Y-32411200D02*
X60261571Y-32458819D01*
X60261571Y-32458819D02*
X60452047Y-32458819D01*
X60452047Y-32458819D02*
X60547285Y-32411200D01*
X60547285Y-32411200D02*
X60594904Y-32363580D01*
X60594904Y-32363580D02*
X60642523Y-32268342D01*
X60642523Y-32268342D02*
X60642523Y-31458819D01*
X61023476Y-31458819D02*
X61642523Y-31458819D01*
X61642523Y-31458819D02*
X61309190Y-31839771D01*
X61309190Y-31839771D02*
X61452047Y-31839771D01*
X61452047Y-31839771D02*
X61547285Y-31887390D01*
X61547285Y-31887390D02*
X61594904Y-31935009D01*
X61594904Y-31935009D02*
X61642523Y-32030247D01*
X61642523Y-32030247D02*
X61642523Y-32268342D01*
X61642523Y-32268342D02*
X61594904Y-32363580D01*
X61594904Y-32363580D02*
X61547285Y-32411200D01*
X61547285Y-32411200D02*
X61452047Y-32458819D01*
X61452047Y-32458819D02*
X61166333Y-32458819D01*
X61166333Y-32458819D02*
X61071095Y-32411200D01*
X61071095Y-32411200D02*
X61023476Y-32363580D01*
X57028142Y-31694580D02*
X56980523Y-31742200D01*
X56980523Y-31742200D02*
X56837666Y-31789819D01*
X56837666Y-31789819D02*
X56742428Y-31789819D01*
X56742428Y-31789819D02*
X56599571Y-31742200D01*
X56599571Y-31742200D02*
X56504333Y-31646961D01*
X56504333Y-31646961D02*
X56456714Y-31551723D01*
X56456714Y-31551723D02*
X56409095Y-31361247D01*
X56409095Y-31361247D02*
X56409095Y-31218390D01*
X56409095Y-31218390D02*
X56456714Y-31027914D01*
X56456714Y-31027914D02*
X56504333Y-30932676D01*
X56504333Y-30932676D02*
X56599571Y-30837438D01*
X56599571Y-30837438D02*
X56742428Y-30789819D01*
X56742428Y-30789819D02*
X56837666Y-30789819D01*
X56837666Y-30789819D02*
X56980523Y-30837438D01*
X56980523Y-30837438D02*
X57028142Y-30885057D01*
X57980523Y-31789819D02*
X57409095Y-31789819D01*
X57694809Y-31789819D02*
X57694809Y-30789819D01*
X57694809Y-30789819D02*
X57599571Y-30932676D01*
X57599571Y-30932676D02*
X57504333Y-31027914D01*
X57504333Y-31027914D02*
X57409095Y-31075533D01*
X58551952Y-31218390D02*
X58456714Y-31170771D01*
X58456714Y-31170771D02*
X58409095Y-31123152D01*
X58409095Y-31123152D02*
X58361476Y-31027914D01*
X58361476Y-31027914D02*
X58361476Y-30980295D01*
X58361476Y-30980295D02*
X58409095Y-30885057D01*
X58409095Y-30885057D02*
X58456714Y-30837438D01*
X58456714Y-30837438D02*
X58551952Y-30789819D01*
X58551952Y-30789819D02*
X58742428Y-30789819D01*
X58742428Y-30789819D02*
X58837666Y-30837438D01*
X58837666Y-30837438D02*
X58885285Y-30885057D01*
X58885285Y-30885057D02*
X58932904Y-30980295D01*
X58932904Y-30980295D02*
X58932904Y-31027914D01*
X58932904Y-31027914D02*
X58885285Y-31123152D01*
X58885285Y-31123152D02*
X58837666Y-31170771D01*
X58837666Y-31170771D02*
X58742428Y-31218390D01*
X58742428Y-31218390D02*
X58551952Y-31218390D01*
X58551952Y-31218390D02*
X58456714Y-31266009D01*
X58456714Y-31266009D02*
X58409095Y-31313628D01*
X58409095Y-31313628D02*
X58361476Y-31408866D01*
X58361476Y-31408866D02*
X58361476Y-31599342D01*
X58361476Y-31599342D02*
X58409095Y-31694580D01*
X58409095Y-31694580D02*
X58456714Y-31742200D01*
X58456714Y-31742200D02*
X58551952Y-31789819D01*
X58551952Y-31789819D02*
X58742428Y-31789819D01*
X58742428Y-31789819D02*
X58837666Y-31742200D01*
X58837666Y-31742200D02*
X58885285Y-31694580D01*
X58885285Y-31694580D02*
X58932904Y-31599342D01*
X58932904Y-31599342D02*
X58932904Y-31408866D01*
X58932904Y-31408866D02*
X58885285Y-31313628D01*
X58885285Y-31313628D02*
X58837666Y-31266009D01*
X58837666Y-31266009D02*
X58742428Y-31218390D01*
X64902142Y-30551580D02*
X64854523Y-30599200D01*
X64854523Y-30599200D02*
X64711666Y-30646819D01*
X64711666Y-30646819D02*
X64616428Y-30646819D01*
X64616428Y-30646819D02*
X64473571Y-30599200D01*
X64473571Y-30599200D02*
X64378333Y-30503961D01*
X64378333Y-30503961D02*
X64330714Y-30408723D01*
X64330714Y-30408723D02*
X64283095Y-30218247D01*
X64283095Y-30218247D02*
X64283095Y-30075390D01*
X64283095Y-30075390D02*
X64330714Y-29884914D01*
X64330714Y-29884914D02*
X64378333Y-29789676D01*
X64378333Y-29789676D02*
X64473571Y-29694438D01*
X64473571Y-29694438D02*
X64616428Y-29646819D01*
X64616428Y-29646819D02*
X64711666Y-29646819D01*
X64711666Y-29646819D02*
X64854523Y-29694438D01*
X64854523Y-29694438D02*
X64902142Y-29742057D01*
X65854523Y-30646819D02*
X65283095Y-30646819D01*
X65568809Y-30646819D02*
X65568809Y-29646819D01*
X65568809Y-29646819D02*
X65473571Y-29789676D01*
X65473571Y-29789676D02*
X65378333Y-29884914D01*
X65378333Y-29884914D02*
X65283095Y-29932533D01*
X66711666Y-29646819D02*
X66521190Y-29646819D01*
X66521190Y-29646819D02*
X66425952Y-29694438D01*
X66425952Y-29694438D02*
X66378333Y-29742057D01*
X66378333Y-29742057D02*
X66283095Y-29884914D01*
X66283095Y-29884914D02*
X66235476Y-30075390D01*
X66235476Y-30075390D02*
X66235476Y-30456342D01*
X66235476Y-30456342D02*
X66283095Y-30551580D01*
X66283095Y-30551580D02*
X66330714Y-30599200D01*
X66330714Y-30599200D02*
X66425952Y-30646819D01*
X66425952Y-30646819D02*
X66616428Y-30646819D01*
X66616428Y-30646819D02*
X66711666Y-30599200D01*
X66711666Y-30599200D02*
X66759285Y-30551580D01*
X66759285Y-30551580D02*
X66806904Y-30456342D01*
X66806904Y-30456342D02*
X66806904Y-30218247D01*
X66806904Y-30218247D02*
X66759285Y-30123009D01*
X66759285Y-30123009D02*
X66711666Y-30075390D01*
X66711666Y-30075390D02*
X66616428Y-30027771D01*
X66616428Y-30027771D02*
X66425952Y-30027771D01*
X66425952Y-30027771D02*
X66330714Y-30075390D01*
X66330714Y-30075390D02*
X66283095Y-30123009D01*
X66283095Y-30123009D02*
X66235476Y-30218247D01*
X37851142Y-49474580D02*
X37803523Y-49522200D01*
X37803523Y-49522200D02*
X37660666Y-49569819D01*
X37660666Y-49569819D02*
X37565428Y-49569819D01*
X37565428Y-49569819D02*
X37422571Y-49522200D01*
X37422571Y-49522200D02*
X37327333Y-49426961D01*
X37327333Y-49426961D02*
X37279714Y-49331723D01*
X37279714Y-49331723D02*
X37232095Y-49141247D01*
X37232095Y-49141247D02*
X37232095Y-48998390D01*
X37232095Y-48998390D02*
X37279714Y-48807914D01*
X37279714Y-48807914D02*
X37327333Y-48712676D01*
X37327333Y-48712676D02*
X37422571Y-48617438D01*
X37422571Y-48617438D02*
X37565428Y-48569819D01*
X37565428Y-48569819D02*
X37660666Y-48569819D01*
X37660666Y-48569819D02*
X37803523Y-48617438D01*
X37803523Y-48617438D02*
X37851142Y-48665057D01*
X38803523Y-49569819D02*
X38232095Y-49569819D01*
X38517809Y-49569819D02*
X38517809Y-48569819D01*
X38517809Y-48569819D02*
X38422571Y-48712676D01*
X38422571Y-48712676D02*
X38327333Y-48807914D01*
X38327333Y-48807914D02*
X38232095Y-48855533D01*
X39708285Y-48569819D02*
X39232095Y-48569819D01*
X39232095Y-48569819D02*
X39184476Y-49046009D01*
X39184476Y-49046009D02*
X39232095Y-48998390D01*
X39232095Y-48998390D02*
X39327333Y-48950771D01*
X39327333Y-48950771D02*
X39565428Y-48950771D01*
X39565428Y-48950771D02*
X39660666Y-48998390D01*
X39660666Y-48998390D02*
X39708285Y-49046009D01*
X39708285Y-49046009D02*
X39755904Y-49141247D01*
X39755904Y-49141247D02*
X39755904Y-49379342D01*
X39755904Y-49379342D02*
X39708285Y-49474580D01*
X39708285Y-49474580D02*
X39660666Y-49522200D01*
X39660666Y-49522200D02*
X39565428Y-49569819D01*
X39565428Y-49569819D02*
X39327333Y-49569819D01*
X39327333Y-49569819D02*
X39232095Y-49522200D01*
X39232095Y-49522200D02*
X39184476Y-49474580D01*
X41498040Y-44963478D02*
X41450421Y-45011098D01*
X41450421Y-45011098D02*
X41307564Y-45058717D01*
X41307564Y-45058717D02*
X41212326Y-45058717D01*
X41212326Y-45058717D02*
X41069469Y-45011098D01*
X41069469Y-45011098D02*
X40974231Y-44915859D01*
X40974231Y-44915859D02*
X40926612Y-44820621D01*
X40926612Y-44820621D02*
X40878993Y-44630145D01*
X40878993Y-44630145D02*
X40878993Y-44487288D01*
X40878993Y-44487288D02*
X40926612Y-44296812D01*
X40926612Y-44296812D02*
X40974231Y-44201574D01*
X40974231Y-44201574D02*
X41069469Y-44106336D01*
X41069469Y-44106336D02*
X41212326Y-44058717D01*
X41212326Y-44058717D02*
X41307564Y-44058717D01*
X41307564Y-44058717D02*
X41450421Y-44106336D01*
X41450421Y-44106336D02*
X41498040Y-44153955D01*
X42450421Y-45058717D02*
X41878993Y-45058717D01*
X42164707Y-45058717D02*
X42164707Y-44058717D01*
X42164707Y-44058717D02*
X42069469Y-44201574D01*
X42069469Y-44201574D02*
X41974231Y-44296812D01*
X41974231Y-44296812D02*
X41878993Y-44344431D01*
X42783755Y-44058717D02*
X43402802Y-44058717D01*
X43402802Y-44058717D02*
X43069469Y-44439669D01*
X43069469Y-44439669D02*
X43212326Y-44439669D01*
X43212326Y-44439669D02*
X43307564Y-44487288D01*
X43307564Y-44487288D02*
X43355183Y-44534907D01*
X43355183Y-44534907D02*
X43402802Y-44630145D01*
X43402802Y-44630145D02*
X43402802Y-44868240D01*
X43402802Y-44868240D02*
X43355183Y-44963478D01*
X43355183Y-44963478D02*
X43307564Y-45011098D01*
X43307564Y-45011098D02*
X43212326Y-45058717D01*
X43212326Y-45058717D02*
X42926612Y-45058717D01*
X42926612Y-45058717D02*
X42831374Y-45011098D01*
X42831374Y-45011098D02*
X42783755Y-44963478D01*
X41498040Y-42199478D02*
X41450421Y-42247098D01*
X41450421Y-42247098D02*
X41307564Y-42294717D01*
X41307564Y-42294717D02*
X41212326Y-42294717D01*
X41212326Y-42294717D02*
X41069469Y-42247098D01*
X41069469Y-42247098D02*
X40974231Y-42151859D01*
X40974231Y-42151859D02*
X40926612Y-42056621D01*
X40926612Y-42056621D02*
X40878993Y-41866145D01*
X40878993Y-41866145D02*
X40878993Y-41723288D01*
X40878993Y-41723288D02*
X40926612Y-41532812D01*
X40926612Y-41532812D02*
X40974231Y-41437574D01*
X40974231Y-41437574D02*
X41069469Y-41342336D01*
X41069469Y-41342336D02*
X41212326Y-41294717D01*
X41212326Y-41294717D02*
X41307564Y-41294717D01*
X41307564Y-41294717D02*
X41450421Y-41342336D01*
X41450421Y-41342336D02*
X41498040Y-41389955D01*
X42450421Y-42294717D02*
X41878993Y-42294717D01*
X42164707Y-42294717D02*
X42164707Y-41294717D01*
X42164707Y-41294717D02*
X42069469Y-41437574D01*
X42069469Y-41437574D02*
X41974231Y-41532812D01*
X41974231Y-41532812D02*
X41878993Y-41580431D01*
X42831374Y-41389955D02*
X42878993Y-41342336D01*
X42878993Y-41342336D02*
X42974231Y-41294717D01*
X42974231Y-41294717D02*
X43212326Y-41294717D01*
X43212326Y-41294717D02*
X43307564Y-41342336D01*
X43307564Y-41342336D02*
X43355183Y-41389955D01*
X43355183Y-41389955D02*
X43402802Y-41485193D01*
X43402802Y-41485193D02*
X43402802Y-41580431D01*
X43402802Y-41580431D02*
X43355183Y-41723288D01*
X43355183Y-41723288D02*
X42783755Y-42294717D01*
X42783755Y-42294717D02*
X43402802Y-42294717D01*
X64902142Y-25471580D02*
X64854523Y-25519200D01*
X64854523Y-25519200D02*
X64711666Y-25566819D01*
X64711666Y-25566819D02*
X64616428Y-25566819D01*
X64616428Y-25566819D02*
X64473571Y-25519200D01*
X64473571Y-25519200D02*
X64378333Y-25423961D01*
X64378333Y-25423961D02*
X64330714Y-25328723D01*
X64330714Y-25328723D02*
X64283095Y-25138247D01*
X64283095Y-25138247D02*
X64283095Y-24995390D01*
X64283095Y-24995390D02*
X64330714Y-24804914D01*
X64330714Y-24804914D02*
X64378333Y-24709676D01*
X64378333Y-24709676D02*
X64473571Y-24614438D01*
X64473571Y-24614438D02*
X64616428Y-24566819D01*
X64616428Y-24566819D02*
X64711666Y-24566819D01*
X64711666Y-24566819D02*
X64854523Y-24614438D01*
X64854523Y-24614438D02*
X64902142Y-24662057D01*
X65854523Y-25566819D02*
X65283095Y-25566819D01*
X65568809Y-25566819D02*
X65568809Y-24566819D01*
X65568809Y-24566819D02*
X65473571Y-24709676D01*
X65473571Y-24709676D02*
X65378333Y-24804914D01*
X65378333Y-24804914D02*
X65283095Y-24852533D01*
X66806904Y-25566819D02*
X66235476Y-25566819D01*
X66521190Y-25566819D02*
X66521190Y-24566819D01*
X66521190Y-24566819D02*
X66425952Y-24709676D01*
X66425952Y-24709676D02*
X66330714Y-24804914D01*
X66330714Y-24804914D02*
X66235476Y-24852533D01*
X52043333Y-39822580D02*
X51995714Y-39870200D01*
X51995714Y-39870200D02*
X51852857Y-39917819D01*
X51852857Y-39917819D02*
X51757619Y-39917819D01*
X51757619Y-39917819D02*
X51614762Y-39870200D01*
X51614762Y-39870200D02*
X51519524Y-39774961D01*
X51519524Y-39774961D02*
X51471905Y-39679723D01*
X51471905Y-39679723D02*
X51424286Y-39489247D01*
X51424286Y-39489247D02*
X51424286Y-39346390D01*
X51424286Y-39346390D02*
X51471905Y-39155914D01*
X51471905Y-39155914D02*
X51519524Y-39060676D01*
X51519524Y-39060676D02*
X51614762Y-38965438D01*
X51614762Y-38965438D02*
X51757619Y-38917819D01*
X51757619Y-38917819D02*
X51852857Y-38917819D01*
X51852857Y-38917819D02*
X51995714Y-38965438D01*
X51995714Y-38965438D02*
X52043333Y-39013057D01*
X52519524Y-39917819D02*
X52710000Y-39917819D01*
X52710000Y-39917819D02*
X52805238Y-39870200D01*
X52805238Y-39870200D02*
X52852857Y-39822580D01*
X52852857Y-39822580D02*
X52948095Y-39679723D01*
X52948095Y-39679723D02*
X52995714Y-39489247D01*
X52995714Y-39489247D02*
X52995714Y-39108295D01*
X52995714Y-39108295D02*
X52948095Y-39013057D01*
X52948095Y-39013057D02*
X52900476Y-38965438D01*
X52900476Y-38965438D02*
X52805238Y-38917819D01*
X52805238Y-38917819D02*
X52614762Y-38917819D01*
X52614762Y-38917819D02*
X52519524Y-38965438D01*
X52519524Y-38965438D02*
X52471905Y-39013057D01*
X52471905Y-39013057D02*
X52424286Y-39108295D01*
X52424286Y-39108295D02*
X52424286Y-39346390D01*
X52424286Y-39346390D02*
X52471905Y-39441628D01*
X52471905Y-39441628D02*
X52519524Y-39489247D01*
X52519524Y-39489247D02*
X52614762Y-39536866D01*
X52614762Y-39536866D02*
X52805238Y-39536866D01*
X52805238Y-39536866D02*
X52900476Y-39489247D01*
X52900476Y-39489247D02*
X52948095Y-39441628D01*
X52948095Y-39441628D02*
X52995714Y-39346390D01*
X52043333Y-37028580D02*
X51995714Y-37076200D01*
X51995714Y-37076200D02*
X51852857Y-37123819D01*
X51852857Y-37123819D02*
X51757619Y-37123819D01*
X51757619Y-37123819D02*
X51614762Y-37076200D01*
X51614762Y-37076200D02*
X51519524Y-36980961D01*
X51519524Y-36980961D02*
X51471905Y-36885723D01*
X51471905Y-36885723D02*
X51424286Y-36695247D01*
X51424286Y-36695247D02*
X51424286Y-36552390D01*
X51424286Y-36552390D02*
X51471905Y-36361914D01*
X51471905Y-36361914D02*
X51519524Y-36266676D01*
X51519524Y-36266676D02*
X51614762Y-36171438D01*
X51614762Y-36171438D02*
X51757619Y-36123819D01*
X51757619Y-36123819D02*
X51852857Y-36123819D01*
X51852857Y-36123819D02*
X51995714Y-36171438D01*
X51995714Y-36171438D02*
X52043333Y-36219057D01*
X52614762Y-36552390D02*
X52519524Y-36504771D01*
X52519524Y-36504771D02*
X52471905Y-36457152D01*
X52471905Y-36457152D02*
X52424286Y-36361914D01*
X52424286Y-36361914D02*
X52424286Y-36314295D01*
X52424286Y-36314295D02*
X52471905Y-36219057D01*
X52471905Y-36219057D02*
X52519524Y-36171438D01*
X52519524Y-36171438D02*
X52614762Y-36123819D01*
X52614762Y-36123819D02*
X52805238Y-36123819D01*
X52805238Y-36123819D02*
X52900476Y-36171438D01*
X52900476Y-36171438D02*
X52948095Y-36219057D01*
X52948095Y-36219057D02*
X52995714Y-36314295D01*
X52995714Y-36314295D02*
X52995714Y-36361914D01*
X52995714Y-36361914D02*
X52948095Y-36457152D01*
X52948095Y-36457152D02*
X52900476Y-36504771D01*
X52900476Y-36504771D02*
X52805238Y-36552390D01*
X52805238Y-36552390D02*
X52614762Y-36552390D01*
X52614762Y-36552390D02*
X52519524Y-36600009D01*
X52519524Y-36600009D02*
X52471905Y-36647628D01*
X52471905Y-36647628D02*
X52424286Y-36742866D01*
X52424286Y-36742866D02*
X52424286Y-36933342D01*
X52424286Y-36933342D02*
X52471905Y-37028580D01*
X52471905Y-37028580D02*
X52519524Y-37076200D01*
X52519524Y-37076200D02*
X52614762Y-37123819D01*
X52614762Y-37123819D02*
X52805238Y-37123819D01*
X52805238Y-37123819D02*
X52900476Y-37076200D01*
X52900476Y-37076200D02*
X52948095Y-37028580D01*
X52948095Y-37028580D02*
X52995714Y-36933342D01*
X52995714Y-36933342D02*
X52995714Y-36742866D01*
X52995714Y-36742866D02*
X52948095Y-36647628D01*
X52948095Y-36647628D02*
X52900476Y-36600009D01*
X52900476Y-36600009D02*
X52805238Y-36552390D01*
X65378333Y-27630580D02*
X65330714Y-27678200D01*
X65330714Y-27678200D02*
X65187857Y-27725819D01*
X65187857Y-27725819D02*
X65092619Y-27725819D01*
X65092619Y-27725819D02*
X64949762Y-27678200D01*
X64949762Y-27678200D02*
X64854524Y-27582961D01*
X64854524Y-27582961D02*
X64806905Y-27487723D01*
X64806905Y-27487723D02*
X64759286Y-27297247D01*
X64759286Y-27297247D02*
X64759286Y-27154390D01*
X64759286Y-27154390D02*
X64806905Y-26963914D01*
X64806905Y-26963914D02*
X64854524Y-26868676D01*
X64854524Y-26868676D02*
X64949762Y-26773438D01*
X64949762Y-26773438D02*
X65092619Y-26725819D01*
X65092619Y-26725819D02*
X65187857Y-26725819D01*
X65187857Y-26725819D02*
X65330714Y-26773438D01*
X65330714Y-26773438D02*
X65378333Y-26821057D01*
X65711667Y-26725819D02*
X66378333Y-26725819D01*
X66378333Y-26725819D02*
X65949762Y-27725819D01*
X58621333Y-27503580D02*
X58573714Y-27551200D01*
X58573714Y-27551200D02*
X58430857Y-27598819D01*
X58430857Y-27598819D02*
X58335619Y-27598819D01*
X58335619Y-27598819D02*
X58192762Y-27551200D01*
X58192762Y-27551200D02*
X58097524Y-27455961D01*
X58097524Y-27455961D02*
X58049905Y-27360723D01*
X58049905Y-27360723D02*
X58002286Y-27170247D01*
X58002286Y-27170247D02*
X58002286Y-27027390D01*
X58002286Y-27027390D02*
X58049905Y-26836914D01*
X58049905Y-26836914D02*
X58097524Y-26741676D01*
X58097524Y-26741676D02*
X58192762Y-26646438D01*
X58192762Y-26646438D02*
X58335619Y-26598819D01*
X58335619Y-26598819D02*
X58430857Y-26598819D01*
X58430857Y-26598819D02*
X58573714Y-26646438D01*
X58573714Y-26646438D02*
X58621333Y-26694057D01*
X59478476Y-26598819D02*
X59288000Y-26598819D01*
X59288000Y-26598819D02*
X59192762Y-26646438D01*
X59192762Y-26646438D02*
X59145143Y-26694057D01*
X59145143Y-26694057D02*
X59049905Y-26836914D01*
X59049905Y-26836914D02*
X59002286Y-27027390D01*
X59002286Y-27027390D02*
X59002286Y-27408342D01*
X59002286Y-27408342D02*
X59049905Y-27503580D01*
X59049905Y-27503580D02*
X59097524Y-27551200D01*
X59097524Y-27551200D02*
X59192762Y-27598819D01*
X59192762Y-27598819D02*
X59383238Y-27598819D01*
X59383238Y-27598819D02*
X59478476Y-27551200D01*
X59478476Y-27551200D02*
X59526095Y-27503580D01*
X59526095Y-27503580D02*
X59573714Y-27408342D01*
X59573714Y-27408342D02*
X59573714Y-27170247D01*
X59573714Y-27170247D02*
X59526095Y-27075009D01*
X59526095Y-27075009D02*
X59478476Y-27027390D01*
X59478476Y-27027390D02*
X59383238Y-26979771D01*
X59383238Y-26979771D02*
X59192762Y-26979771D01*
X59192762Y-26979771D02*
X59097524Y-27027390D01*
X59097524Y-27027390D02*
X59049905Y-27075009D01*
X59049905Y-27075009D02*
X59002286Y-27170247D01*
X58621333Y-25471580D02*
X58573714Y-25519200D01*
X58573714Y-25519200D02*
X58430857Y-25566819D01*
X58430857Y-25566819D02*
X58335619Y-25566819D01*
X58335619Y-25566819D02*
X58192762Y-25519200D01*
X58192762Y-25519200D02*
X58097524Y-25423961D01*
X58097524Y-25423961D02*
X58049905Y-25328723D01*
X58049905Y-25328723D02*
X58002286Y-25138247D01*
X58002286Y-25138247D02*
X58002286Y-24995390D01*
X58002286Y-24995390D02*
X58049905Y-24804914D01*
X58049905Y-24804914D02*
X58097524Y-24709676D01*
X58097524Y-24709676D02*
X58192762Y-24614438D01*
X58192762Y-24614438D02*
X58335619Y-24566819D01*
X58335619Y-24566819D02*
X58430857Y-24566819D01*
X58430857Y-24566819D02*
X58573714Y-24614438D01*
X58573714Y-24614438D02*
X58621333Y-24662057D01*
X59526095Y-24566819D02*
X59049905Y-24566819D01*
X59049905Y-24566819D02*
X59002286Y-25043009D01*
X59002286Y-25043009D02*
X59049905Y-24995390D01*
X59049905Y-24995390D02*
X59145143Y-24947771D01*
X59145143Y-24947771D02*
X59383238Y-24947771D01*
X59383238Y-24947771D02*
X59478476Y-24995390D01*
X59478476Y-24995390D02*
X59526095Y-25043009D01*
X59526095Y-25043009D02*
X59573714Y-25138247D01*
X59573714Y-25138247D02*
X59573714Y-25376342D01*
X59573714Y-25376342D02*
X59526095Y-25471580D01*
X59526095Y-25471580D02*
X59478476Y-25519200D01*
X59478476Y-25519200D02*
X59383238Y-25566819D01*
X59383238Y-25566819D02*
X59145143Y-25566819D01*
X59145143Y-25566819D02*
X59049905Y-25519200D01*
X59049905Y-25519200D02*
X59002286Y-25471580D01*
X75273819Y-35385333D02*
X75988104Y-35385333D01*
X75988104Y-35385333D02*
X76130961Y-35432952D01*
X76130961Y-35432952D02*
X76226200Y-35528190D01*
X76226200Y-35528190D02*
X76273819Y-35671047D01*
X76273819Y-35671047D02*
X76273819Y-35766285D01*
X75369057Y-34956761D02*
X75321438Y-34909142D01*
X75321438Y-34909142D02*
X75273819Y-34813904D01*
X75273819Y-34813904D02*
X75273819Y-34575809D01*
X75273819Y-34575809D02*
X75321438Y-34480571D01*
X75321438Y-34480571D02*
X75369057Y-34432952D01*
X75369057Y-34432952D02*
X75464295Y-34385333D01*
X75464295Y-34385333D02*
X75559533Y-34385333D01*
X75559533Y-34385333D02*
X75702390Y-34432952D01*
X75702390Y-34432952D02*
X76273819Y-35004380D01*
X76273819Y-35004380D02*
X76273819Y-34385333D01*
X75273819Y-47577333D02*
X75988104Y-47577333D01*
X75988104Y-47577333D02*
X76130961Y-47624952D01*
X76130961Y-47624952D02*
X76226200Y-47720190D01*
X76226200Y-47720190D02*
X76273819Y-47863047D01*
X76273819Y-47863047D02*
X76273819Y-47958285D01*
X76273819Y-46577333D02*
X76273819Y-47148761D01*
X76273819Y-46863047D02*
X75273819Y-46863047D01*
X75273819Y-46863047D02*
X75416676Y-46958285D01*
X75416676Y-46958285D02*
X75511914Y-47053523D01*
X75511914Y-47053523D02*
X75559533Y-47148761D01*
X59740895Y-51626419D02*
X59740895Y-52435942D01*
X59740895Y-52435942D02*
X59788514Y-52531180D01*
X59788514Y-52531180D02*
X59836133Y-52578800D01*
X59836133Y-52578800D02*
X59931371Y-52626419D01*
X59931371Y-52626419D02*
X60121847Y-52626419D01*
X60121847Y-52626419D02*
X60217085Y-52578800D01*
X60217085Y-52578800D02*
X60264704Y-52531180D01*
X60264704Y-52531180D02*
X60312323Y-52435942D01*
X60312323Y-52435942D02*
X60312323Y-51626419D01*
X61217085Y-51959752D02*
X61217085Y-52626419D01*
X60978990Y-51578800D02*
X60740895Y-52293085D01*
X60740895Y-52293085D02*
X61359942Y-52293085D01*
X68127666Y-29268009D02*
X67794333Y-29268009D01*
X67794333Y-29791819D02*
X67794333Y-28791819D01*
X67794333Y-28791819D02*
X68270523Y-28791819D01*
X68984809Y-29268009D02*
X69127666Y-29315628D01*
X69127666Y-29315628D02*
X69175285Y-29363247D01*
X69175285Y-29363247D02*
X69222904Y-29458485D01*
X69222904Y-29458485D02*
X69222904Y-29601342D01*
X69222904Y-29601342D02*
X69175285Y-29696580D01*
X69175285Y-29696580D02*
X69127666Y-29744200D01*
X69127666Y-29744200D02*
X69032428Y-29791819D01*
X69032428Y-29791819D02*
X68651476Y-29791819D01*
X68651476Y-29791819D02*
X68651476Y-28791819D01*
X68651476Y-28791819D02*
X68984809Y-28791819D01*
X68984809Y-28791819D02*
X69080047Y-28839438D01*
X69080047Y-28839438D02*
X69127666Y-28887057D01*
X69127666Y-28887057D02*
X69175285Y-28982295D01*
X69175285Y-28982295D02*
X69175285Y-29077533D01*
X69175285Y-29077533D02*
X69127666Y-29172771D01*
X69127666Y-29172771D02*
X69080047Y-29220390D01*
X69080047Y-29220390D02*
X68984809Y-29268009D01*
X68984809Y-29268009D02*
X68651476Y-29268009D01*
X70080047Y-29125152D02*
X70080047Y-29791819D01*
X69841952Y-28744200D02*
X69603857Y-29458485D01*
X69603857Y-29458485D02*
X70222904Y-29458485D01*
X67850666Y-24796009D02*
X67517333Y-24796009D01*
X67517333Y-25319819D02*
X67517333Y-24319819D01*
X67517333Y-24319819D02*
X67993523Y-24319819D01*
X68707809Y-24796009D02*
X68850666Y-24843628D01*
X68850666Y-24843628D02*
X68898285Y-24891247D01*
X68898285Y-24891247D02*
X68945904Y-24986485D01*
X68945904Y-24986485D02*
X68945904Y-25129342D01*
X68945904Y-25129342D02*
X68898285Y-25224580D01*
X68898285Y-25224580D02*
X68850666Y-25272200D01*
X68850666Y-25272200D02*
X68755428Y-25319819D01*
X68755428Y-25319819D02*
X68374476Y-25319819D01*
X68374476Y-25319819D02*
X68374476Y-24319819D01*
X68374476Y-24319819D02*
X68707809Y-24319819D01*
X68707809Y-24319819D02*
X68803047Y-24367438D01*
X68803047Y-24367438D02*
X68850666Y-24415057D01*
X68850666Y-24415057D02*
X68898285Y-24510295D01*
X68898285Y-24510295D02*
X68898285Y-24605533D01*
X68898285Y-24605533D02*
X68850666Y-24700771D01*
X68850666Y-24700771D02*
X68803047Y-24748390D01*
X68803047Y-24748390D02*
X68707809Y-24796009D01*
X68707809Y-24796009D02*
X68374476Y-24796009D01*
X69279238Y-24319819D02*
X69898285Y-24319819D01*
X69898285Y-24319819D02*
X69564952Y-24700771D01*
X69564952Y-24700771D02*
X69707809Y-24700771D01*
X69707809Y-24700771D02*
X69803047Y-24748390D01*
X69803047Y-24748390D02*
X69850666Y-24796009D01*
X69850666Y-24796009D02*
X69898285Y-24891247D01*
X69898285Y-24891247D02*
X69898285Y-25129342D01*
X69898285Y-25129342D02*
X69850666Y-25224580D01*
X69850666Y-25224580D02*
X69803047Y-25272200D01*
X69803047Y-25272200D02*
X69707809Y-25319819D01*
X69707809Y-25319819D02*
X69422095Y-25319819D01*
X69422095Y-25319819D02*
X69326857Y-25272200D01*
X69326857Y-25272200D02*
X69279238Y-25224580D01*
X61777666Y-29141009D02*
X61444333Y-29141009D01*
X61444333Y-29664819D02*
X61444333Y-28664819D01*
X61444333Y-28664819D02*
X61920523Y-28664819D01*
X62634809Y-29141009D02*
X62777666Y-29188628D01*
X62777666Y-29188628D02*
X62825285Y-29236247D01*
X62825285Y-29236247D02*
X62872904Y-29331485D01*
X62872904Y-29331485D02*
X62872904Y-29474342D01*
X62872904Y-29474342D02*
X62825285Y-29569580D01*
X62825285Y-29569580D02*
X62777666Y-29617200D01*
X62777666Y-29617200D02*
X62682428Y-29664819D01*
X62682428Y-29664819D02*
X62301476Y-29664819D01*
X62301476Y-29664819D02*
X62301476Y-28664819D01*
X62301476Y-28664819D02*
X62634809Y-28664819D01*
X62634809Y-28664819D02*
X62730047Y-28712438D01*
X62730047Y-28712438D02*
X62777666Y-28760057D01*
X62777666Y-28760057D02*
X62825285Y-28855295D01*
X62825285Y-28855295D02*
X62825285Y-28950533D01*
X62825285Y-28950533D02*
X62777666Y-29045771D01*
X62777666Y-29045771D02*
X62730047Y-29093390D01*
X62730047Y-29093390D02*
X62634809Y-29141009D01*
X62634809Y-29141009D02*
X62301476Y-29141009D01*
X63253857Y-28760057D02*
X63301476Y-28712438D01*
X63301476Y-28712438D02*
X63396714Y-28664819D01*
X63396714Y-28664819D02*
X63634809Y-28664819D01*
X63634809Y-28664819D02*
X63730047Y-28712438D01*
X63730047Y-28712438D02*
X63777666Y-28760057D01*
X63777666Y-28760057D02*
X63825285Y-28855295D01*
X63825285Y-28855295D02*
X63825285Y-28950533D01*
X63825285Y-28950533D02*
X63777666Y-29093390D01*
X63777666Y-29093390D02*
X63206238Y-29664819D01*
X63206238Y-29664819D02*
X63825285Y-29664819D01*
X61165666Y-24711009D02*
X60832333Y-24711009D01*
X60832333Y-25234819D02*
X60832333Y-24234819D01*
X60832333Y-24234819D02*
X61308523Y-24234819D01*
X62022809Y-24711009D02*
X62165666Y-24758628D01*
X62165666Y-24758628D02*
X62213285Y-24806247D01*
X62213285Y-24806247D02*
X62260904Y-24901485D01*
X62260904Y-24901485D02*
X62260904Y-25044342D01*
X62260904Y-25044342D02*
X62213285Y-25139580D01*
X62213285Y-25139580D02*
X62165666Y-25187200D01*
X62165666Y-25187200D02*
X62070428Y-25234819D01*
X62070428Y-25234819D02*
X61689476Y-25234819D01*
X61689476Y-25234819D02*
X61689476Y-24234819D01*
X61689476Y-24234819D02*
X62022809Y-24234819D01*
X62022809Y-24234819D02*
X62118047Y-24282438D01*
X62118047Y-24282438D02*
X62165666Y-24330057D01*
X62165666Y-24330057D02*
X62213285Y-24425295D01*
X62213285Y-24425295D02*
X62213285Y-24520533D01*
X62213285Y-24520533D02*
X62165666Y-24615771D01*
X62165666Y-24615771D02*
X62118047Y-24663390D01*
X62118047Y-24663390D02*
X62022809Y-24711009D01*
X62022809Y-24711009D02*
X61689476Y-24711009D01*
X63213285Y-25234819D02*
X62641857Y-25234819D01*
X62927571Y-25234819D02*
X62927571Y-24234819D01*
X62927571Y-24234819D02*
X62832333Y-24377676D01*
X62832333Y-24377676D02*
X62737095Y-24472914D01*
X62737095Y-24472914D02*
X62641857Y-24520533D01*
X69093142Y-31187580D02*
X69045523Y-31235200D01*
X69045523Y-31235200D02*
X68902666Y-31282819D01*
X68902666Y-31282819D02*
X68807428Y-31282819D01*
X68807428Y-31282819D02*
X68664571Y-31235200D01*
X68664571Y-31235200D02*
X68569333Y-31139961D01*
X68569333Y-31139961D02*
X68521714Y-31044723D01*
X68521714Y-31044723D02*
X68474095Y-30854247D01*
X68474095Y-30854247D02*
X68474095Y-30711390D01*
X68474095Y-30711390D02*
X68521714Y-30520914D01*
X68521714Y-30520914D02*
X68569333Y-30425676D01*
X68569333Y-30425676D02*
X68664571Y-30330438D01*
X68664571Y-30330438D02*
X68807428Y-30282819D01*
X68807428Y-30282819D02*
X68902666Y-30282819D01*
X68902666Y-30282819D02*
X69045523Y-30330438D01*
X69045523Y-30330438D02*
X69093142Y-30378057D01*
X70045523Y-31282819D02*
X69474095Y-31282819D01*
X69759809Y-31282819D02*
X69759809Y-30282819D01*
X69759809Y-30282819D02*
X69664571Y-30425676D01*
X69664571Y-30425676D02*
X69569333Y-30520914D01*
X69569333Y-30520914D02*
X69474095Y-30568533D01*
X70378857Y-30282819D02*
X71045523Y-30282819D01*
X71045523Y-30282819D02*
X70616952Y-31282819D01*
D10*
X18756333Y-34144180D02*
X18708714Y-34191800D01*
X18708714Y-34191800D02*
X18565857Y-34239419D01*
X18565857Y-34239419D02*
X18470619Y-34239419D01*
X18470619Y-34239419D02*
X18327762Y-34191800D01*
X18327762Y-34191800D02*
X18232524Y-34096561D01*
X18232524Y-34096561D02*
X18184905Y-34001323D01*
X18184905Y-34001323D02*
X18137286Y-33810847D01*
X18137286Y-33810847D02*
X18137286Y-33667990D01*
X18137286Y-33667990D02*
X18184905Y-33477514D01*
X18184905Y-33477514D02*
X18232524Y-33382276D01*
X18232524Y-33382276D02*
X18327762Y-33287038D01*
X18327762Y-33287038D02*
X18470619Y-33239419D01*
X18470619Y-33239419D02*
X18565857Y-33239419D01*
X18565857Y-33239419D02*
X18708714Y-33287038D01*
X18708714Y-33287038D02*
X18756333Y-33334657D01*
X19089667Y-33239419D02*
X19708714Y-33239419D01*
X19708714Y-33239419D02*
X19375381Y-33620371D01*
X19375381Y-33620371D02*
X19518238Y-33620371D01*
X19518238Y-33620371D02*
X19613476Y-33667990D01*
X19613476Y-33667990D02*
X19661095Y-33715609D01*
X19661095Y-33715609D02*
X19708714Y-33810847D01*
X19708714Y-33810847D02*
X19708714Y-34048942D01*
X19708714Y-34048942D02*
X19661095Y-34144180D01*
X19661095Y-34144180D02*
X19613476Y-34191800D01*
X19613476Y-34191800D02*
X19518238Y-34239419D01*
X19518238Y-34239419D02*
X19232524Y-34239419D01*
X19232524Y-34239419D02*
X19137286Y-34191800D01*
X19137286Y-34191800D02*
X19089667Y-34144180D01*
X18047782Y-36031364D02*
X18809687Y-36031364D01*
X18428734Y-36412317D02*
X18428734Y-35650412D01*
D11*
X38183040Y-44740478D02*
X38135421Y-44788098D01*
X38135421Y-44788098D02*
X37992564Y-44835717D01*
X37992564Y-44835717D02*
X37897326Y-44835717D01*
X37897326Y-44835717D02*
X37754469Y-44788098D01*
X37754469Y-44788098D02*
X37659231Y-44692859D01*
X37659231Y-44692859D02*
X37611612Y-44597621D01*
X37611612Y-44597621D02*
X37563993Y-44407145D01*
X37563993Y-44407145D02*
X37563993Y-44264288D01*
X37563993Y-44264288D02*
X37611612Y-44073812D01*
X37611612Y-44073812D02*
X37659231Y-43978574D01*
X37659231Y-43978574D02*
X37754469Y-43883336D01*
X37754469Y-43883336D02*
X37897326Y-43835717D01*
X37897326Y-43835717D02*
X37992564Y-43835717D01*
X37992564Y-43835717D02*
X38135421Y-43883336D01*
X38135421Y-43883336D02*
X38183040Y-43930955D01*
X39135421Y-44835717D02*
X38563993Y-44835717D01*
X38849707Y-44835717D02*
X38849707Y-43835717D01*
X38849707Y-43835717D02*
X38754469Y-43978574D01*
X38754469Y-43978574D02*
X38659231Y-44073812D01*
X38659231Y-44073812D02*
X38563993Y-44121431D01*
X39992564Y-44169050D02*
X39992564Y-44835717D01*
X39754469Y-43788098D02*
X39516374Y-44502383D01*
X39516374Y-44502383D02*
X40135421Y-44502383D01*
X29932333Y-47431580D02*
X29884714Y-47479200D01*
X29884714Y-47479200D02*
X29741857Y-47526819D01*
X29741857Y-47526819D02*
X29646619Y-47526819D01*
X29646619Y-47526819D02*
X29503762Y-47479200D01*
X29503762Y-47479200D02*
X29408524Y-47383961D01*
X29408524Y-47383961D02*
X29360905Y-47288723D01*
X29360905Y-47288723D02*
X29313286Y-47098247D01*
X29313286Y-47098247D02*
X29313286Y-46955390D01*
X29313286Y-46955390D02*
X29360905Y-46764914D01*
X29360905Y-46764914D02*
X29408524Y-46669676D01*
X29408524Y-46669676D02*
X29503762Y-46574438D01*
X29503762Y-46574438D02*
X29646619Y-46526819D01*
X29646619Y-46526819D02*
X29741857Y-46526819D01*
X29741857Y-46526819D02*
X29884714Y-46574438D01*
X29884714Y-46574438D02*
X29932333Y-46622057D01*
X30313286Y-46622057D02*
X30360905Y-46574438D01*
X30360905Y-46574438D02*
X30456143Y-46526819D01*
X30456143Y-46526819D02*
X30694238Y-46526819D01*
X30694238Y-46526819D02*
X30789476Y-46574438D01*
X30789476Y-46574438D02*
X30837095Y-46622057D01*
X30837095Y-46622057D02*
X30884714Y-46717295D01*
X30884714Y-46717295D02*
X30884714Y-46812533D01*
X30884714Y-46812533D02*
X30837095Y-46955390D01*
X30837095Y-46955390D02*
X30265667Y-47526819D01*
X30265667Y-47526819D02*
X30884714Y-47526819D01*
X20116819Y-42996666D02*
X20116819Y-43472856D01*
X20116819Y-43472856D02*
X19116819Y-43472856D01*
X20116819Y-42139523D02*
X20116819Y-42710951D01*
X20116819Y-42425237D02*
X19116819Y-42425237D01*
X19116819Y-42425237D02*
X19259676Y-42520475D01*
X19259676Y-42520475D02*
X19354914Y-42615713D01*
X19354914Y-42615713D02*
X19402533Y-42710951D01*
X45402667Y-50953200D02*
X45545524Y-51000819D01*
X45545524Y-51000819D02*
X45783619Y-51000819D01*
X45783619Y-51000819D02*
X45878857Y-50953200D01*
X45878857Y-50953200D02*
X45926476Y-50905580D01*
X45926476Y-50905580D02*
X45974095Y-50810342D01*
X45974095Y-50810342D02*
X45974095Y-50715104D01*
X45974095Y-50715104D02*
X45926476Y-50619866D01*
X45926476Y-50619866D02*
X45878857Y-50572247D01*
X45878857Y-50572247D02*
X45783619Y-50524628D01*
X45783619Y-50524628D02*
X45593143Y-50477009D01*
X45593143Y-50477009D02*
X45497905Y-50429390D01*
X45497905Y-50429390D02*
X45450286Y-50381771D01*
X45450286Y-50381771D02*
X45402667Y-50286533D01*
X45402667Y-50286533D02*
X45402667Y-50191295D01*
X45402667Y-50191295D02*
X45450286Y-50096057D01*
X45450286Y-50096057D02*
X45497905Y-50048438D01*
X45497905Y-50048438D02*
X45593143Y-50000819D01*
X45593143Y-50000819D02*
X45831238Y-50000819D01*
X45831238Y-50000819D02*
X45974095Y-50048438D01*
X46307429Y-50000819D02*
X46545524Y-51000819D01*
X46545524Y-51000819D02*
X46736000Y-50286533D01*
X46736000Y-50286533D02*
X46926476Y-51000819D01*
X46926476Y-51000819D02*
X47164572Y-50000819D01*
X48069333Y-51000819D02*
X47497905Y-51000819D01*
X47783619Y-51000819D02*
X47783619Y-50000819D01*
X47783619Y-50000819D02*
X47688381Y-50143676D01*
X47688381Y-50143676D02*
X47593143Y-50238914D01*
X47593143Y-50238914D02*
X47497905Y-50286533D01*
X41974231Y-51566717D02*
X41640898Y-51090526D01*
X41402803Y-51566717D02*
X41402803Y-50566717D01*
X41402803Y-50566717D02*
X41783755Y-50566717D01*
X41783755Y-50566717D02*
X41878993Y-50614336D01*
X41878993Y-50614336D02*
X41926612Y-50661955D01*
X41926612Y-50661955D02*
X41974231Y-50757193D01*
X41974231Y-50757193D02*
X41974231Y-50900050D01*
X41974231Y-50900050D02*
X41926612Y-50995288D01*
X41926612Y-50995288D02*
X41878993Y-51042907D01*
X41878993Y-51042907D02*
X41783755Y-51090526D01*
X41783755Y-51090526D02*
X41402803Y-51090526D01*
X42307565Y-50566717D02*
X42974231Y-50566717D01*
X42974231Y-50566717D02*
X42545660Y-51566717D01*
X38862431Y-41954078D02*
X38814812Y-42001698D01*
X38814812Y-42001698D02*
X38671955Y-42049317D01*
X38671955Y-42049317D02*
X38576717Y-42049317D01*
X38576717Y-42049317D02*
X38433860Y-42001698D01*
X38433860Y-42001698D02*
X38338622Y-41906459D01*
X38338622Y-41906459D02*
X38291003Y-41811221D01*
X38291003Y-41811221D02*
X38243384Y-41620745D01*
X38243384Y-41620745D02*
X38243384Y-41477888D01*
X38243384Y-41477888D02*
X38291003Y-41287412D01*
X38291003Y-41287412D02*
X38338622Y-41192174D01*
X38338622Y-41192174D02*
X38433860Y-41096936D01*
X38433860Y-41096936D02*
X38576717Y-41049317D01*
X38576717Y-41049317D02*
X38671955Y-41049317D01*
X38671955Y-41049317D02*
X38814812Y-41096936D01*
X38814812Y-41096936D02*
X38862431Y-41144555D01*
X39719574Y-41382650D02*
X39719574Y-42049317D01*
X39481479Y-41001698D02*
X39243384Y-41715983D01*
X39243384Y-41715983D02*
X39862431Y-41715983D01*
X45751809Y-41380628D02*
X45751809Y-41856819D01*
X45418476Y-40856819D02*
X45751809Y-41380628D01*
X45751809Y-41380628D02*
X46085142Y-40856819D01*
X46370857Y-40952057D02*
X46418476Y-40904438D01*
X46418476Y-40904438D02*
X46513714Y-40856819D01*
X46513714Y-40856819D02*
X46751809Y-40856819D01*
X46751809Y-40856819D02*
X46847047Y-40904438D01*
X46847047Y-40904438D02*
X46894666Y-40952057D01*
X46894666Y-40952057D02*
X46942285Y-41047295D01*
X46942285Y-41047295D02*
X46942285Y-41142533D01*
X46942285Y-41142533D02*
X46894666Y-41285390D01*
X46894666Y-41285390D02*
X46323238Y-41856819D01*
X46323238Y-41856819D02*
X46942285Y-41856819D01*
X27662285Y-19616009D02*
X27805142Y-19663628D01*
X27805142Y-19663628D02*
X27852761Y-19711247D01*
X27852761Y-19711247D02*
X27900380Y-19806485D01*
X27900380Y-19806485D02*
X27900380Y-19949342D01*
X27900380Y-19949342D02*
X27852761Y-20044580D01*
X27852761Y-20044580D02*
X27805142Y-20092200D01*
X27805142Y-20092200D02*
X27709904Y-20139819D01*
X27709904Y-20139819D02*
X27328952Y-20139819D01*
X27328952Y-20139819D02*
X27328952Y-19139819D01*
X27328952Y-19139819D02*
X27662285Y-19139819D01*
X27662285Y-19139819D02*
X27757523Y-19187438D01*
X27757523Y-19187438D02*
X27805142Y-19235057D01*
X27805142Y-19235057D02*
X27852761Y-19330295D01*
X27852761Y-19330295D02*
X27852761Y-19425533D01*
X27852761Y-19425533D02*
X27805142Y-19520771D01*
X27805142Y-19520771D02*
X27757523Y-19568390D01*
X27757523Y-19568390D02*
X27662285Y-19616009D01*
X27662285Y-19616009D02*
X27328952Y-19616009D01*
X28186095Y-19139819D02*
X28757523Y-19139819D01*
X28471809Y-20139819D02*
X28471809Y-19139819D01*
X29043238Y-19235057D02*
X29090857Y-19187438D01*
X29090857Y-19187438D02*
X29186095Y-19139819D01*
X29186095Y-19139819D02*
X29424190Y-19139819D01*
X29424190Y-19139819D02*
X29519428Y-19187438D01*
X29519428Y-19187438D02*
X29567047Y-19235057D01*
X29567047Y-19235057D02*
X29614666Y-19330295D01*
X29614666Y-19330295D02*
X29614666Y-19425533D01*
X29614666Y-19425533D02*
X29567047Y-19568390D01*
X29567047Y-19568390D02*
X28995619Y-20139819D01*
X28995619Y-20139819D02*
X29614666Y-20139819D01*
X64667142Y-18234819D02*
X64190952Y-18234819D01*
X64190952Y-18234819D02*
X64190952Y-17234819D01*
X64952857Y-18187200D02*
X65095714Y-18234819D01*
X65095714Y-18234819D02*
X65333809Y-18234819D01*
X65333809Y-18234819D02*
X65429047Y-18187200D01*
X65429047Y-18187200D02*
X65476666Y-18139580D01*
X65476666Y-18139580D02*
X65524285Y-18044342D01*
X65524285Y-18044342D02*
X65524285Y-17949104D01*
X65524285Y-17949104D02*
X65476666Y-17853866D01*
X65476666Y-17853866D02*
X65429047Y-17806247D01*
X65429047Y-17806247D02*
X65333809Y-17758628D01*
X65333809Y-17758628D02*
X65143333Y-17711009D01*
X65143333Y-17711009D02*
X65048095Y-17663390D01*
X65048095Y-17663390D02*
X65000476Y-17615771D01*
X65000476Y-17615771D02*
X64952857Y-17520533D01*
X64952857Y-17520533D02*
X64952857Y-17425295D01*
X64952857Y-17425295D02*
X65000476Y-17330057D01*
X65000476Y-17330057D02*
X65048095Y-17282438D01*
X65048095Y-17282438D02*
X65143333Y-17234819D01*
X65143333Y-17234819D02*
X65381428Y-17234819D01*
X65381428Y-17234819D02*
X65524285Y-17282438D01*
X65905238Y-17330057D02*
X65952857Y-17282438D01*
X65952857Y-17282438D02*
X66048095Y-17234819D01*
X66048095Y-17234819D02*
X66286190Y-17234819D01*
X66286190Y-17234819D02*
X66381428Y-17282438D01*
X66381428Y-17282438D02*
X66429047Y-17330057D01*
X66429047Y-17330057D02*
X66476666Y-17425295D01*
X66476666Y-17425295D02*
X66476666Y-17520533D01*
X66476666Y-17520533D02*
X66429047Y-17663390D01*
X66429047Y-17663390D02*
X65857619Y-18234819D01*
X65857619Y-18234819D02*
X66476666Y-18234819D01*
X41442803Y-54614717D02*
X41442803Y-53614717D01*
X41442803Y-53614717D02*
X41680898Y-53614717D01*
X41680898Y-53614717D02*
X41823755Y-53662336D01*
X41823755Y-53662336D02*
X41918993Y-53757574D01*
X41918993Y-53757574D02*
X41966612Y-53852812D01*
X41966612Y-53852812D02*
X42014231Y-54043288D01*
X42014231Y-54043288D02*
X42014231Y-54186145D01*
X42014231Y-54186145D02*
X41966612Y-54376621D01*
X41966612Y-54376621D02*
X41918993Y-54471859D01*
X41918993Y-54471859D02*
X41823755Y-54567098D01*
X41823755Y-54567098D02*
X41680898Y-54614717D01*
X41680898Y-54614717D02*
X41442803Y-54614717D01*
X42347565Y-53614717D02*
X42966612Y-53614717D01*
X42966612Y-53614717D02*
X42633279Y-53995669D01*
X42633279Y-53995669D02*
X42776136Y-53995669D01*
X42776136Y-53995669D02*
X42871374Y-54043288D01*
X42871374Y-54043288D02*
X42918993Y-54090907D01*
X42918993Y-54090907D02*
X42966612Y-54186145D01*
X42966612Y-54186145D02*
X42966612Y-54424240D01*
X42966612Y-54424240D02*
X42918993Y-54519478D01*
X42918993Y-54519478D02*
X42871374Y-54567098D01*
X42871374Y-54567098D02*
X42776136Y-54614717D01*
X42776136Y-54614717D02*
X42490422Y-54614717D01*
X42490422Y-54614717D02*
X42395184Y-54567098D01*
X42395184Y-54567098D02*
X42347565Y-54519478D01*
X38695333Y-53540819D02*
X38362000Y-53064628D01*
X38123905Y-53540819D02*
X38123905Y-52540819D01*
X38123905Y-52540819D02*
X38504857Y-52540819D01*
X38504857Y-52540819D02*
X38600095Y-52588438D01*
X38600095Y-52588438D02*
X38647714Y-52636057D01*
X38647714Y-52636057D02*
X38695333Y-52731295D01*
X38695333Y-52731295D02*
X38695333Y-52874152D01*
X38695333Y-52874152D02*
X38647714Y-52969390D01*
X38647714Y-52969390D02*
X38600095Y-53017009D01*
X38600095Y-53017009D02*
X38504857Y-53064628D01*
X38504857Y-53064628D02*
X38123905Y-53064628D01*
X39647714Y-53540819D02*
X39076286Y-53540819D01*
X39362000Y-53540819D02*
X39362000Y-52540819D01*
X39362000Y-52540819D02*
X39266762Y-52683676D01*
X39266762Y-52683676D02*
X39171524Y-52778914D01*
X39171524Y-52778914D02*
X39076286Y-52826533D01*
X47649142Y-18361819D02*
X47172952Y-18361819D01*
X47172952Y-18361819D02*
X47172952Y-17361819D01*
X47934857Y-18314200D02*
X48077714Y-18361819D01*
X48077714Y-18361819D02*
X48315809Y-18361819D01*
X48315809Y-18361819D02*
X48411047Y-18314200D01*
X48411047Y-18314200D02*
X48458666Y-18266580D01*
X48458666Y-18266580D02*
X48506285Y-18171342D01*
X48506285Y-18171342D02*
X48506285Y-18076104D01*
X48506285Y-18076104D02*
X48458666Y-17980866D01*
X48458666Y-17980866D02*
X48411047Y-17933247D01*
X48411047Y-17933247D02*
X48315809Y-17885628D01*
X48315809Y-17885628D02*
X48125333Y-17838009D01*
X48125333Y-17838009D02*
X48030095Y-17790390D01*
X48030095Y-17790390D02*
X47982476Y-17742771D01*
X47982476Y-17742771D02*
X47934857Y-17647533D01*
X47934857Y-17647533D02*
X47934857Y-17552295D01*
X47934857Y-17552295D02*
X47982476Y-17457057D01*
X47982476Y-17457057D02*
X48030095Y-17409438D01*
X48030095Y-17409438D02*
X48125333Y-17361819D01*
X48125333Y-17361819D02*
X48363428Y-17361819D01*
X48363428Y-17361819D02*
X48506285Y-17409438D01*
X49458666Y-18361819D02*
X48887238Y-18361819D01*
X49172952Y-18361819D02*
X49172952Y-17361819D01*
X49172952Y-17361819D02*
X49077714Y-17504676D01*
X49077714Y-17504676D02*
X48982476Y-17599914D01*
X48982476Y-17599914D02*
X48887238Y-17647533D01*
X53752809Y-41634628D02*
X53752809Y-42110819D01*
X53419476Y-41110819D02*
X53752809Y-41634628D01*
X53752809Y-41634628D02*
X54086142Y-41110819D01*
X54943285Y-42110819D02*
X54371857Y-42110819D01*
X54657571Y-42110819D02*
X54657571Y-41110819D01*
X54657571Y-41110819D02*
X54562333Y-41253676D01*
X54562333Y-41253676D02*
X54467095Y-41348914D01*
X54467095Y-41348914D02*
X54371857Y-41396533D01*
X41960129Y-47585859D02*
X41626796Y-47109668D01*
X41388701Y-47585859D02*
X41388701Y-46585859D01*
X41388701Y-46585859D02*
X41769653Y-46585859D01*
X41769653Y-46585859D02*
X41864891Y-46633478D01*
X41864891Y-46633478D02*
X41912510Y-46681097D01*
X41912510Y-46681097D02*
X41960129Y-46776335D01*
X41960129Y-46776335D02*
X41960129Y-46919192D01*
X41960129Y-46919192D02*
X41912510Y-47014430D01*
X41912510Y-47014430D02*
X41864891Y-47062049D01*
X41864891Y-47062049D02*
X41769653Y-47109668D01*
X41769653Y-47109668D02*
X41388701Y-47109668D01*
X42817272Y-46919192D02*
X42817272Y-47585859D01*
X42579177Y-46538240D02*
X42341082Y-47252525D01*
X42341082Y-47252525D02*
X42960129Y-47252525D01*
X18415095Y-29601438D02*
X18319857Y-29553819D01*
X18319857Y-29553819D02*
X18177000Y-29553819D01*
X18177000Y-29553819D02*
X18034143Y-29601438D01*
X18034143Y-29601438D02*
X17938905Y-29696676D01*
X17938905Y-29696676D02*
X17891286Y-29791914D01*
X17891286Y-29791914D02*
X17843667Y-29982390D01*
X17843667Y-29982390D02*
X17843667Y-30125247D01*
X17843667Y-30125247D02*
X17891286Y-30315723D01*
X17891286Y-30315723D02*
X17938905Y-30410961D01*
X17938905Y-30410961D02*
X18034143Y-30506200D01*
X18034143Y-30506200D02*
X18177000Y-30553819D01*
X18177000Y-30553819D02*
X18272238Y-30553819D01*
X18272238Y-30553819D02*
X18415095Y-30506200D01*
X18415095Y-30506200D02*
X18462714Y-30458580D01*
X18462714Y-30458580D02*
X18462714Y-30125247D01*
X18462714Y-30125247D02*
X18272238Y-30125247D01*
X18891286Y-30553819D02*
X18891286Y-29553819D01*
X18891286Y-29553819D02*
X19462714Y-30553819D01*
X19462714Y-30553819D02*
X19462714Y-29553819D01*
X19938905Y-30553819D02*
X19938905Y-29553819D01*
X19938905Y-29553819D02*
X20177000Y-29553819D01*
X20177000Y-29553819D02*
X20319857Y-29601438D01*
X20319857Y-29601438D02*
X20415095Y-29696676D01*
X20415095Y-29696676D02*
X20462714Y-29791914D01*
X20462714Y-29791914D02*
X20510333Y-29982390D01*
X20510333Y-29982390D02*
X20510333Y-30125247D01*
X20510333Y-30125247D02*
X20462714Y-30315723D01*
X20462714Y-30315723D02*
X20415095Y-30410961D01*
X20415095Y-30410961D02*
X20319857Y-30506200D01*
X20319857Y-30506200D02*
X20177000Y-30553819D01*
X20177000Y-30553819D02*
X19938905Y-30553819D01*
X23578183Y-54356907D02*
X23721040Y-54404526D01*
X23721040Y-54404526D02*
X23768659Y-54452145D01*
X23768659Y-54452145D02*
X23816278Y-54547383D01*
X23816278Y-54547383D02*
X23816278Y-54690240D01*
X23816278Y-54690240D02*
X23768659Y-54785478D01*
X23768659Y-54785478D02*
X23721040Y-54833098D01*
X23721040Y-54833098D02*
X23625802Y-54880717D01*
X23625802Y-54880717D02*
X23244850Y-54880717D01*
X23244850Y-54880717D02*
X23244850Y-53880717D01*
X23244850Y-53880717D02*
X23578183Y-53880717D01*
X23578183Y-53880717D02*
X23673421Y-53928336D01*
X23673421Y-53928336D02*
X23721040Y-53975955D01*
X23721040Y-53975955D02*
X23768659Y-54071193D01*
X23768659Y-54071193D02*
X23768659Y-54166431D01*
X23768659Y-54166431D02*
X23721040Y-54261669D01*
X23721040Y-54261669D02*
X23673421Y-54309288D01*
X23673421Y-54309288D02*
X23578183Y-54356907D01*
X23578183Y-54356907D02*
X23244850Y-54356907D01*
X24101993Y-53880717D02*
X24673421Y-53880717D01*
X24387707Y-54880717D02*
X24387707Y-53880717D01*
X25530564Y-54880717D02*
X24959136Y-54880717D01*
X25244850Y-54880717D02*
X25244850Y-53880717D01*
X25244850Y-53880717D02*
X25149612Y-54023574D01*
X25149612Y-54023574D02*
X25054374Y-54118812D01*
X25054374Y-54118812D02*
X24959136Y-54166431D01*
X35929231Y-51312717D02*
X35595898Y-50836526D01*
X35357803Y-51312717D02*
X35357803Y-50312717D01*
X35357803Y-50312717D02*
X35738755Y-50312717D01*
X35738755Y-50312717D02*
X35833993Y-50360336D01*
X35833993Y-50360336D02*
X35881612Y-50407955D01*
X35881612Y-50407955D02*
X35929231Y-50503193D01*
X35929231Y-50503193D02*
X35929231Y-50646050D01*
X35929231Y-50646050D02*
X35881612Y-50741288D01*
X35881612Y-50741288D02*
X35833993Y-50788907D01*
X35833993Y-50788907D02*
X35738755Y-50836526D01*
X35738755Y-50836526D02*
X35357803Y-50836526D01*
X36500660Y-50741288D02*
X36405422Y-50693669D01*
X36405422Y-50693669D02*
X36357803Y-50646050D01*
X36357803Y-50646050D02*
X36310184Y-50550812D01*
X36310184Y-50550812D02*
X36310184Y-50503193D01*
X36310184Y-50503193D02*
X36357803Y-50407955D01*
X36357803Y-50407955D02*
X36405422Y-50360336D01*
X36405422Y-50360336D02*
X36500660Y-50312717D01*
X36500660Y-50312717D02*
X36691136Y-50312717D01*
X36691136Y-50312717D02*
X36786374Y-50360336D01*
X36786374Y-50360336D02*
X36833993Y-50407955D01*
X36833993Y-50407955D02*
X36881612Y-50503193D01*
X36881612Y-50503193D02*
X36881612Y-50550812D01*
X36881612Y-50550812D02*
X36833993Y-50646050D01*
X36833993Y-50646050D02*
X36786374Y-50693669D01*
X36786374Y-50693669D02*
X36691136Y-50741288D01*
X36691136Y-50741288D02*
X36500660Y-50741288D01*
X36500660Y-50741288D02*
X36405422Y-50788907D01*
X36405422Y-50788907D02*
X36357803Y-50836526D01*
X36357803Y-50836526D02*
X36310184Y-50931764D01*
X36310184Y-50931764D02*
X36310184Y-51122240D01*
X36310184Y-51122240D02*
X36357803Y-51217478D01*
X36357803Y-51217478D02*
X36405422Y-51265098D01*
X36405422Y-51265098D02*
X36500660Y-51312717D01*
X36500660Y-51312717D02*
X36691136Y-51312717D01*
X36691136Y-51312717D02*
X36786374Y-51265098D01*
X36786374Y-51265098D02*
X36833993Y-51217478D01*
X36833993Y-51217478D02*
X36881612Y-51122240D01*
X36881612Y-51122240D02*
X36881612Y-50931764D01*
X36881612Y-50931764D02*
X36833993Y-50836526D01*
X36833993Y-50836526D02*
X36786374Y-50788907D01*
X36786374Y-50788907D02*
X36691136Y-50741288D01*
X18113524Y-37808819D02*
X18732571Y-37808819D01*
X18732571Y-37808819D02*
X18399238Y-38189771D01*
X18399238Y-38189771D02*
X18542095Y-38189771D01*
X18542095Y-38189771D02*
X18637333Y-38237390D01*
X18637333Y-38237390D02*
X18684952Y-38285009D01*
X18684952Y-38285009D02*
X18732571Y-38380247D01*
X18732571Y-38380247D02*
X18732571Y-38618342D01*
X18732571Y-38618342D02*
X18684952Y-38713580D01*
X18684952Y-38713580D02*
X18637333Y-38761200D01*
X18637333Y-38761200D02*
X18542095Y-38808819D01*
X18542095Y-38808819D02*
X18256381Y-38808819D01*
X18256381Y-38808819D02*
X18161143Y-38761200D01*
X18161143Y-38761200D02*
X18113524Y-38713580D01*
X19065905Y-38142152D02*
X19304000Y-38808819D01*
X19304000Y-38808819D02*
X19542095Y-38142152D01*
X19827810Y-37808819D02*
X20446857Y-37808819D01*
X20446857Y-37808819D02*
X20113524Y-38189771D01*
X20113524Y-38189771D02*
X20256381Y-38189771D01*
X20256381Y-38189771D02*
X20351619Y-38237390D01*
X20351619Y-38237390D02*
X20399238Y-38285009D01*
X20399238Y-38285009D02*
X20446857Y-38380247D01*
X20446857Y-38380247D02*
X20446857Y-38618342D01*
X20446857Y-38618342D02*
X20399238Y-38713580D01*
X20399238Y-38713580D02*
X20351619Y-38761200D01*
X20351619Y-38761200D02*
X20256381Y-38808819D01*
X20256381Y-38808819D02*
X19970667Y-38808819D01*
X19970667Y-38808819D02*
X19875429Y-38761200D01*
X19875429Y-38761200D02*
X19827810Y-38713580D01*
D10*
X54570333Y-51257419D02*
X54237000Y-50781228D01*
X53998905Y-51257419D02*
X53998905Y-50257419D01*
X53998905Y-50257419D02*
X54379857Y-50257419D01*
X54379857Y-50257419D02*
X54475095Y-50305038D01*
X54475095Y-50305038D02*
X54522714Y-50352657D01*
X54522714Y-50352657D02*
X54570333Y-50447895D01*
X54570333Y-50447895D02*
X54570333Y-50590752D01*
X54570333Y-50590752D02*
X54522714Y-50685990D01*
X54522714Y-50685990D02*
X54475095Y-50733609D01*
X54475095Y-50733609D02*
X54379857Y-50781228D01*
X54379857Y-50781228D02*
X53998905Y-50781228D01*
X54951286Y-50352657D02*
X54998905Y-50305038D01*
X54998905Y-50305038D02*
X55094143Y-50257419D01*
X55094143Y-50257419D02*
X55332238Y-50257419D01*
X55332238Y-50257419D02*
X55427476Y-50305038D01*
X55427476Y-50305038D02*
X55475095Y-50352657D01*
X55475095Y-50352657D02*
X55522714Y-50447895D01*
X55522714Y-50447895D02*
X55522714Y-50543133D01*
X55522714Y-50543133D02*
X55475095Y-50685990D01*
X55475095Y-50685990D02*
X54903667Y-51257419D01*
X54903667Y-51257419D02*
X55522714Y-51257419D01*
D11*
X30948333Y-43506580D02*
X30900714Y-43554200D01*
X30900714Y-43554200D02*
X30757857Y-43601819D01*
X30757857Y-43601819D02*
X30662619Y-43601819D01*
X30662619Y-43601819D02*
X30519762Y-43554200D01*
X30519762Y-43554200D02*
X30424524Y-43458961D01*
X30424524Y-43458961D02*
X30376905Y-43363723D01*
X30376905Y-43363723D02*
X30329286Y-43173247D01*
X30329286Y-43173247D02*
X30329286Y-43030390D01*
X30329286Y-43030390D02*
X30376905Y-42839914D01*
X30376905Y-42839914D02*
X30424524Y-42744676D01*
X30424524Y-42744676D02*
X30519762Y-42649438D01*
X30519762Y-42649438D02*
X30662619Y-42601819D01*
X30662619Y-42601819D02*
X30757857Y-42601819D01*
X30757857Y-42601819D02*
X30900714Y-42649438D01*
X30900714Y-42649438D02*
X30948333Y-42697057D01*
X31900714Y-43601819D02*
X31329286Y-43601819D01*
X31615000Y-43601819D02*
X31615000Y-42601819D01*
X31615000Y-42601819D02*
X31519762Y-42744676D01*
X31519762Y-42744676D02*
X31424524Y-42839914D01*
X31424524Y-42839914D02*
X31329286Y-42887533D01*
D10*
X35052095Y-44415419D02*
X35052095Y-45224942D01*
X35052095Y-45224942D02*
X35099714Y-45320180D01*
X35099714Y-45320180D02*
X35147333Y-45367800D01*
X35147333Y-45367800D02*
X35242571Y-45415419D01*
X35242571Y-45415419D02*
X35433047Y-45415419D01*
X35433047Y-45415419D02*
X35528285Y-45367800D01*
X35528285Y-45367800D02*
X35575904Y-45320180D01*
X35575904Y-45320180D02*
X35623523Y-45224942D01*
X35623523Y-45224942D02*
X35623523Y-44415419D01*
X36623523Y-45415419D02*
X36052095Y-45415419D01*
X36337809Y-45415419D02*
X36337809Y-44415419D01*
X36337809Y-44415419D02*
X36242571Y-44558276D01*
X36242571Y-44558276D02*
X36147333Y-44653514D01*
X36147333Y-44653514D02*
X36052095Y-44701133D01*
%TO.C,C10*%
X61953200Y-49857200D02*
X65453200Y-49857200D01*
X61953200Y-52657200D02*
X65453200Y-52657200D01*
D12*
%TO.C,U3*%
X60406500Y-37527000D02*
X60406500Y-36802000D01*
X61131500Y-33307000D02*
X60406500Y-33307000D01*
X64626500Y-33307000D02*
X64626500Y-34032000D01*
X64626500Y-37527000D02*
X64626500Y-36802000D01*
X63901500Y-33307000D02*
X64626500Y-33307000D01*
X63901500Y-37527000D02*
X64626500Y-37527000D01*
X61131500Y-37527000D02*
X60406500Y-37527000D01*
%TO.C,J2*%
X80159000Y-35708000D02*
X80159000Y-35508000D01*
X80659000Y-31708000D02*
X80159000Y-31708000D01*
X77859000Y-40668000D02*
X77859000Y-40058000D01*
X80659000Y-33708000D02*
X80159000Y-33708000D01*
X80159000Y-31708000D02*
X80159000Y-31508000D01*
X79159000Y-40668000D02*
X79159000Y-40058000D01*
X76249000Y-39718000D02*
X76249000Y-40968000D01*
X80659000Y-29158000D02*
X77159000Y-29158000D01*
X76449000Y-38908000D02*
X76449000Y-39208000D01*
X76349000Y-38908000D02*
X76349000Y-39208000D01*
X80159000Y-33708000D02*
X80159000Y-33508000D01*
X80659000Y-33608000D02*
X80159000Y-33608000D01*
X80159000Y-33508000D02*
X80659000Y-33508000D01*
X76349000Y-39208000D02*
X76549000Y-39208000D01*
X80159000Y-37708000D02*
X80159000Y-37508000D01*
X77859000Y-28548000D02*
X77859000Y-29158000D01*
X80659000Y-35708000D02*
X80159000Y-35708000D01*
X81269000Y-40668000D02*
X81269000Y-28548000D01*
X76549000Y-40668000D02*
X81269000Y-40668000D01*
X80159000Y-37508000D02*
X80659000Y-37508000D01*
X77159000Y-31108000D02*
X76549000Y-31108000D01*
X81269000Y-28548000D02*
X76549000Y-28548000D01*
X76549000Y-38908000D02*
X76349000Y-38908000D01*
X80159000Y-35508000D02*
X80659000Y-35508000D01*
X80659000Y-35608000D02*
X80159000Y-35608000D01*
X80659000Y-31608000D02*
X80159000Y-31608000D01*
X80159000Y-31508000D02*
X80659000Y-31508000D01*
X77159000Y-40058000D02*
X80659000Y-40058000D01*
X77159000Y-38108000D02*
X77159000Y-40058000D01*
X80659000Y-37608000D02*
X80159000Y-37608000D01*
X76549000Y-38108000D02*
X77159000Y-38108000D01*
X77159000Y-29158000D02*
X77159000Y-31108000D01*
X76249000Y-40968000D02*
X77499000Y-40968000D01*
X79159000Y-28548000D02*
X79159000Y-29158000D01*
X80659000Y-40058000D02*
X80659000Y-29158000D01*
X80659000Y-37708000D02*
X80159000Y-37708000D01*
X76549000Y-28548000D02*
X76549000Y-40668000D01*
%TO.C,J1*%
X77159000Y-44744000D02*
X76549000Y-44744000D01*
X80159000Y-47144000D02*
X80659000Y-47144000D01*
X76549000Y-49744000D02*
X77159000Y-49744000D01*
X76249000Y-52604000D02*
X77499000Y-52604000D01*
X80659000Y-51694000D02*
X80659000Y-42794000D01*
X76349000Y-50544000D02*
X76349000Y-50844000D01*
X79159000Y-42184000D02*
X79159000Y-42794000D01*
X80659000Y-47344000D02*
X80159000Y-47344000D01*
X80659000Y-47244000D02*
X80159000Y-47244000D01*
X80159000Y-45344000D02*
X80159000Y-45144000D01*
X76249000Y-51354000D02*
X76249000Y-52604000D01*
X79159000Y-52304000D02*
X79159000Y-51694000D01*
X76549000Y-42184000D02*
X76549000Y-52304000D01*
X76549000Y-52304000D02*
X81269000Y-52304000D01*
X77159000Y-51694000D02*
X80659000Y-51694000D01*
X80159000Y-47344000D02*
X80159000Y-47144000D01*
X80159000Y-49144000D02*
X80659000Y-49144000D01*
X76349000Y-50844000D02*
X76549000Y-50844000D01*
X81269000Y-52304000D02*
X81269000Y-42184000D01*
X77859000Y-52304000D02*
X77859000Y-51694000D01*
X76449000Y-50544000D02*
X76449000Y-50844000D01*
X80659000Y-45344000D02*
X80159000Y-45344000D01*
X80159000Y-45144000D02*
X80659000Y-45144000D01*
X80659000Y-49244000D02*
X80159000Y-49244000D01*
X77159000Y-49744000D02*
X77159000Y-51694000D01*
X80659000Y-42794000D02*
X77159000Y-42794000D01*
X80659000Y-49344000D02*
X80159000Y-49344000D01*
X77159000Y-42794000D02*
X77159000Y-44744000D01*
X81269000Y-42184000D02*
X76549000Y-42184000D01*
X80659000Y-45244000D02*
X80159000Y-45244000D01*
X77859000Y-42184000D02*
X77859000Y-42794000D01*
X80159000Y-49344000D02*
X80159000Y-49144000D01*
X76549000Y-50544000D02*
X76349000Y-50544000D01*
%TO.C,U4*%
X61417200Y-56220000D02*
X59217200Y-56220000D01*
X61417200Y-56220000D02*
X63617200Y-56220000D01*
X61417200Y-53000000D02*
X63617200Y-53000000D01*
X61417200Y-53000000D02*
X57817200Y-53000000D01*
%TO.C,C17*%
X69595420Y-31748000D02*
X69876580Y-31748000D01*
X69595420Y-32768000D02*
X69876580Y-32768000D01*
%TO.C,U5*%
X63510000Y-48449500D02*
X63510000Y-47974500D01*
X63035000Y-41229500D02*
X63510000Y-41229500D01*
X56765000Y-41229500D02*
X56290000Y-41229500D01*
X63035000Y-48449500D02*
X63510000Y-48449500D01*
X56290000Y-48449500D02*
X56290000Y-47974500D01*
X63510000Y-41229500D02*
X63510000Y-41704500D01*
X56765000Y-48449500D02*
X56290000Y-48449500D01*
D10*
%TO.C,C3*%
X21193000Y-38191000D02*
X25193000Y-38191000D01*
X25193000Y-38191000D02*
X25193000Y-33691000D01*
X25193000Y-33691000D02*
X21193000Y-33691000D01*
X21193000Y-33691000D02*
X21193000Y-38191000D01*
D12*
%TO.C,C14*%
X38685318Y-45300898D02*
X38966478Y-45300898D01*
X38685318Y-46320898D02*
X38966478Y-46320898D01*
%TO.C,C2*%
X29717420Y-47992000D02*
X29998580Y-47992000D01*
X29717420Y-49012000D02*
X29998580Y-49012000D01*
%TO.C,L1*%
X29092000Y-44170000D02*
X29092000Y-41670000D01*
X20692000Y-41670000D02*
X20692000Y-44170000D01*
%TO.C,SW1*%
X46923000Y-56702000D02*
X45593000Y-56702000D01*
X46923000Y-55372000D02*
X46923000Y-56702000D01*
X46923000Y-54102000D02*
X46923000Y-51502000D01*
X46923000Y-54102000D02*
X44263000Y-54102000D01*
X46923000Y-51502000D02*
X44263000Y-51502000D01*
X44263000Y-54102000D02*
X44263000Y-51502000D01*
%TO.C,R7*%
X41903640Y-52019398D02*
X42378156Y-52019398D01*
X41903640Y-53064398D02*
X42378156Y-53064398D01*
%TO.C,C4*%
X38353420Y-42404000D02*
X38634580Y-42404000D01*
X38353420Y-43424000D02*
X38634580Y-43424000D01*
%TO.C,Y2*%
X47040898Y-42202898D02*
X43740898Y-42202898D01*
X43740898Y-42202898D02*
X43740898Y-46202898D01*
%TO.C,BT2*%
X54876000Y-32283000D02*
X54876000Y-31283000D01*
X54376000Y-31783000D02*
X55376000Y-31783000D01*
%TO.C,LS2*%
X63828000Y-23065000D02*
X63828000Y-21815000D01*
X63528000Y-22765000D02*
X63528000Y-18045000D01*
X63528000Y-21455000D02*
X62918000Y-21455000D01*
X63528000Y-20155000D02*
X62918000Y-20155000D01*
X63528000Y-18045000D02*
X57408000Y-18045000D01*
X62918000Y-22155000D02*
X62918000Y-18655000D01*
X62918000Y-18655000D02*
X58018000Y-18655000D01*
X62578000Y-23065000D02*
X63828000Y-23065000D01*
X62068000Y-22965000D02*
X62068000Y-22765000D01*
X61768000Y-22965000D02*
X62068000Y-22965000D01*
X61768000Y-22865000D02*
X62068000Y-22865000D01*
X61768000Y-22765000D02*
X61768000Y-22965000D01*
X60968000Y-22765000D02*
X60968000Y-22155000D01*
X60968000Y-22155000D02*
X62918000Y-22155000D01*
X60568000Y-19155000D02*
X60368000Y-19155000D01*
X60568000Y-18655000D02*
X60568000Y-19155000D01*
X60468000Y-18655000D02*
X60468000Y-19155000D01*
X60368000Y-19155000D02*
X60368000Y-18655000D01*
X59968000Y-22155000D02*
X59968000Y-22765000D01*
X58018000Y-22155000D02*
X59968000Y-22155000D01*
X58018000Y-18655000D02*
X58018000Y-22155000D01*
X57408000Y-22765000D02*
X63528000Y-22765000D01*
X57408000Y-21455000D02*
X58018000Y-21455000D01*
X57408000Y-20155000D02*
X58018000Y-20155000D01*
X57408000Y-18045000D02*
X57408000Y-22765000D01*
%TO.C,D3*%
X40695898Y-54854898D02*
X40695898Y-56324898D01*
X40695898Y-56324898D02*
X42980898Y-56324898D01*
X42980898Y-54854898D02*
X40695898Y-54854898D01*
%TO.C,R1*%
X37635640Y-54051398D02*
X38110156Y-54051398D01*
X37635640Y-55096398D02*
X38110156Y-55096398D01*
%TO.C,LS1*%
X50169000Y-18045000D02*
X50169000Y-22765000D01*
X50169000Y-20155000D02*
X50779000Y-20155000D01*
X50169000Y-21455000D02*
X50779000Y-21455000D01*
X50169000Y-22765000D02*
X56289000Y-22765000D01*
X50779000Y-18655000D02*
X50779000Y-22155000D01*
X50779000Y-22155000D02*
X52729000Y-22155000D01*
X52729000Y-22155000D02*
X52729000Y-22765000D01*
X53129000Y-19155000D02*
X53129000Y-18655000D01*
X53229000Y-18655000D02*
X53229000Y-19155000D01*
X53329000Y-18655000D02*
X53329000Y-19155000D01*
X53329000Y-19155000D02*
X53129000Y-19155000D01*
X53729000Y-22155000D02*
X55679000Y-22155000D01*
X53729000Y-22765000D02*
X53729000Y-22155000D01*
X54529000Y-22765000D02*
X54529000Y-22965000D01*
X54529000Y-22865000D02*
X54829000Y-22865000D01*
X54529000Y-22965000D02*
X54829000Y-22965000D01*
X54829000Y-22965000D02*
X54829000Y-22765000D01*
X55339000Y-23065000D02*
X56589000Y-23065000D01*
X55679000Y-18655000D02*
X50779000Y-18655000D01*
X55679000Y-22155000D02*
X55679000Y-18655000D01*
X56289000Y-18045000D02*
X50169000Y-18045000D01*
X56289000Y-20155000D02*
X55679000Y-20155000D01*
X56289000Y-21455000D02*
X55679000Y-21455000D01*
X56289000Y-22765000D02*
X56289000Y-18045000D01*
X56589000Y-23065000D02*
X56589000Y-21815000D01*
%TO.C,Y1*%
X48378000Y-42103000D02*
X48968000Y-42103000D01*
X48968000Y-41703000D02*
X48968000Y-42103000D01*
X48968000Y-44003000D02*
X48378000Y-44003000D01*
X48968000Y-44003000D02*
X48968000Y-47603000D01*
X48968000Y-49903000D02*
X48968000Y-49503000D01*
X52988000Y-41703000D02*
X48968000Y-41703000D01*
X52988000Y-41703000D02*
X52988000Y-42103000D01*
X52988000Y-44003000D02*
X52988000Y-47603000D01*
X52988000Y-49903000D02*
X48968000Y-49903000D01*
X52988000Y-49903000D02*
X52988000Y-49503000D01*
%TO.C,R4*%
X41889538Y-48038540D02*
X42364054Y-48038540D01*
X41889538Y-49083540D02*
X42364054Y-49083540D01*
%TO.C,TP2*%
X19750000Y-31750000D02*
G75*
G03*
X19750000Y-31750000I-700000J0D01*
G01*
%TO.C,BT1*%
X27723898Y-53635898D02*
X27723898Y-52385898D01*
X27423898Y-53335898D02*
X27423898Y-48615898D01*
X27423898Y-52025898D02*
X26813898Y-52025898D01*
X27423898Y-50725898D02*
X26813898Y-50725898D01*
X27423898Y-48615898D02*
X21303898Y-48615898D01*
X26813898Y-52725898D02*
X26813898Y-49225898D01*
X26813898Y-49225898D02*
X21913898Y-49225898D01*
X26473898Y-53635898D02*
X27723898Y-53635898D01*
X25963898Y-53535898D02*
X25963898Y-53335898D01*
X25663898Y-53535898D02*
X25963898Y-53535898D01*
X25663898Y-53435898D02*
X25963898Y-53435898D01*
X25663898Y-53335898D02*
X25663898Y-53535898D01*
X24863898Y-53335898D02*
X24863898Y-52725898D01*
X24863898Y-52725898D02*
X26813898Y-52725898D01*
X24463898Y-49725898D02*
X24263898Y-49725898D01*
X24463898Y-49225898D02*
X24463898Y-49725898D01*
X24363898Y-49225898D02*
X24363898Y-49725898D01*
X24263898Y-49725898D02*
X24263898Y-49225898D01*
X23863898Y-52725898D02*
X23863898Y-53335898D01*
X21913898Y-52725898D02*
X23863898Y-52725898D01*
X21913898Y-49225898D02*
X21913898Y-52725898D01*
X21303898Y-53335898D02*
X27423898Y-53335898D01*
X21303898Y-52025898D02*
X21913898Y-52025898D01*
X21303898Y-50725898D02*
X21913898Y-50725898D01*
X21303898Y-48615898D02*
X21303898Y-53335898D01*
%TO.C,R8*%
X35858640Y-51765398D02*
X36333156Y-51765398D01*
X35858640Y-52810398D02*
X36333156Y-52810398D01*
%TO.C,TP1*%
X19623000Y-40005000D02*
G75*
G03*
X19623000Y-40005000I-700000J0D01*
G01*
D10*
%TO.C,R2*%
X52512000Y-50800000D02*
X50523000Y-50800000D01*
X50523000Y-50800000D02*
X50523000Y-51054000D01*
X53123000Y-51943000D02*
X53123000Y-51435000D01*
X50523000Y-52324000D02*
X50523000Y-52578000D01*
X50523000Y-52578000D02*
X52512000Y-52578000D01*
D12*
%TO.C,C1*%
X30974420Y-44067000D02*
X31255580Y-44067000D01*
X30974420Y-45087000D02*
X31255580Y-45087000D01*
D10*
%TO.C,U1*%
X31829000Y-45846000D02*
X31829000Y-46608000D01*
X31829000Y-49602000D02*
X31829000Y-48840000D01*
X32305000Y-45846000D02*
X31829000Y-45846000D01*
X32305000Y-49602000D02*
X31829000Y-49602000D01*
X35553000Y-45846000D02*
X36029000Y-45846000D01*
X35553000Y-49602000D02*
X36029000Y-49602000D01*
X36029000Y-45846000D02*
X36029000Y-46608000D01*
X36029000Y-49602000D02*
X36029000Y-48840000D01*
%TD*%
M02*
